<mxfile host="Electron" modified="2024-04-17T10:32:19.814Z" agent="Mozilla/5.0 (Windows NT 10.0; Win64; x64) AppleWebKit/537.36 (KHTML, like Gecko) draw.io/23.1.5 Chrome/120.0.6099.109 Electron/28.1.0 Safari/537.36" etag="H0iwm_ztvaoglOl_Jo2o" version="23.1.5" type="device" pages="3">
  <diagram id="C5RBs43oDa-KdzZeNtuy" name="Page-1">
    <mxGraphModel dx="10097" dy="4764" grid="1" gridSize="10" guides="1" tooltips="1" connect="1" arrows="1" fold="1" page="1" pageScale="1" pageWidth="1169" pageHeight="827" math="0" shadow="0">
      <root>
        <mxCell id="WIyWlLk6GJQsqaUBKTNV-0" />
        <mxCell id="WIyWlLk6GJQsqaUBKTNV-1" parent="WIyWlLk6GJQsqaUBKTNV-0" />
        <mxCell id="rGZbVkjRCjmaWcljexHG-67" value="" style="rounded=1;whiteSpace=wrap;html=1;strokeColor=#000000;strokeWidth=4;align=left;verticalAlign=top;swimlaneFillColor=#99CCFF;fontFamily=Helvetica;fontSize=12;fontColor=default;fontStyle=0;fillColor=#dae8fc;" parent="WIyWlLk6GJQsqaUBKTNV-1" vertex="1">
          <mxGeometry x="-2410" y="2340" width="2760" height="3020" as="geometry" />
        </mxCell>
        <mxCell id="Znwxz7as3tQza8B5PeCA-17" value="Exit / Cleanup that needs to be handled once the storm is Done" style="rounded=0;whiteSpace=wrap;html=1;align=left;verticalAlign=top;shadow=0;glass=0;sketch=1;curveFitting=1;jiggle=2;" parent="WIyWlLk6GJQsqaUBKTNV-1" vertex="1">
          <mxGeometry x="-710" y="10" width="960" height="2220" as="geometry" />
        </mxCell>
        <mxCell id="Znwxz7as3tQza8B5PeCA-16" value="Effects that need to be Applied for a Brewing Storm" style="rounded=0;whiteSpace=wrap;html=1;align=left;verticalAlign=top;sketch=1;curveFitting=1;jiggle=2;shadow=0;glass=0;" parent="WIyWlLk6GJQsqaUBKTNV-1" vertex="1">
          <mxGeometry x="-1530" y="10" width="690" height="2230" as="geometry" />
        </mxCell>
        <mxCell id="juMGjEx32GAvLLKHNY1u-7" style="rounded=0;orthogonalLoop=1;jettySize=auto;html=1;exitX=0.944;exitY=0.972;exitDx=0;exitDy=0;entryX=0;entryY=0.5;entryDx=0;entryDy=0;curved=1;sketch=1;curveFitting=1;jiggle=2;strokeWidth=3;exitPerimeter=0;" parent="WIyWlLk6GJQsqaUBKTNV-1" source="-8z7zLYKaV2N25bag4np-0" target="juMGjEx32GAvLLKHNY1u-6" edge="1">
          <mxGeometry relative="1" as="geometry">
            <Array as="points">
              <mxPoint x="-1160" y="610" />
            </Array>
          </mxGeometry>
        </mxCell>
        <mxCell id="-8z7zLYKaV2N25bag4np-0" value="Weather" style="rounded=1;whiteSpace=wrap;html=1;fillColor=#d5e8d4;strokeColor=#82b366;glass=0;shadow=1;align=left;sketch=1;curveFitting=1;jiggle=2;spacingLeft=20;" parent="WIyWlLk6GJQsqaUBKTNV-1" vertex="1">
          <mxGeometry x="-1470" y="239" width="320" height="360" as="geometry" />
        </mxCell>
        <mxCell id="E11lnonPsDXxkd33xf_O-0" value="Overcast" style="rounded=1;whiteSpace=wrap;html=1;fillColor=#d5e8d4;strokeColor=#82b366;glass=0;shadow=1;" parent="WIyWlLk6GJQsqaUBKTNV-1" vertex="1">
          <mxGeometry x="-1310" y="310" width="120" height="60" as="geometry" />
        </mxCell>
        <mxCell id="tPFQgd7vZW-GbOvR2g9Y-20" value="" style="edgeStyle=none;shape=connector;curved=1;rounded=0;sketch=1;jiggle=2;curveFitting=1;orthogonalLoop=1;jettySize=auto;html=1;shadow=1;labelBackgroundColor=default;strokeColor=default;strokeWidth=3;align=center;verticalAlign=middle;fontFamily=Lucida Console;fontSize=14;fontColor=default;startArrow=none;startFill=0;endArrow=classic;sourcePerimeterSpacing=5;targetPerimeterSpacing=5;" parent="WIyWlLk6GJQsqaUBKTNV-1" source="E11lnonPsDXxkd33xf_O-2" target="tPFQgd7vZW-GbOvR2g9Y-19" edge="1">
          <mxGeometry relative="1" as="geometry" />
        </mxCell>
        <mxCell id="E11lnonPsDXxkd33xf_O-2" value="Fog" style="rounded=1;whiteSpace=wrap;html=1;fillColor=#d5e8d4;strokeColor=#82b366;glass=0;shadow=1;" parent="WIyWlLk6GJQsqaUBKTNV-1" vertex="1">
          <mxGeometry x="-1310" y="250" width="120" height="50" as="geometry" />
        </mxCell>
        <mxCell id="E11lnonPsDXxkd33xf_O-3" value="Rain" style="rounded=1;whiteSpace=wrap;html=1;fillColor=#d5e8d4;strokeColor=#82b366;glass=0;shadow=1;" parent="WIyWlLk6GJQsqaUBKTNV-1" vertex="1">
          <mxGeometry x="-1310" y="380" width="120" height="60" as="geometry" />
        </mxCell>
        <mxCell id="tPFQgd7vZW-GbOvR2g9Y-16" value="" style="edgeStyle=none;shape=connector;curved=1;rounded=0;sketch=1;jiggle=2;curveFitting=1;orthogonalLoop=1;jettySize=auto;html=1;shadow=1;labelBackgroundColor=default;strokeColor=default;strokeWidth=3;align=center;verticalAlign=middle;fontFamily=Lucida Console;fontSize=14;fontColor=default;startArrow=none;startFill=0;endArrow=classic;sourcePerimeterSpacing=5;targetPerimeterSpacing=5;" parent="WIyWlLk6GJQsqaUBKTNV-1" source="E11lnonPsDXxkd33xf_O-4" target="tPFQgd7vZW-GbOvR2g9Y-15" edge="1">
          <mxGeometry relative="1" as="geometry" />
        </mxCell>
        <mxCell id="E11lnonPsDXxkd33xf_O-4" value="Wind" style="rounded=1;whiteSpace=wrap;html=1;fillColor=#d5e8d4;strokeColor=#82b366;glass=0;shadow=1;" parent="WIyWlLk6GJQsqaUBKTNV-1" vertex="1">
          <mxGeometry x="-1310" y="450" width="120" height="60" as="geometry" />
        </mxCell>
        <mxCell id="E11lnonPsDXxkd33xf_O-5" value="particle spawners" style="rounded=1;whiteSpace=wrap;html=1;fillColor=#f8cecc;strokeColor=#b85450;glass=0;shadow=1;sketch=1;curveFitting=1;jiggle=2;align=left;spacingLeft=20;" parent="WIyWlLk6GJQsqaUBKTNV-1" vertex="1">
          <mxGeometry x="-1470" y="649.21" width="321.58" height="380.79" as="geometry" />
        </mxCell>
        <mxCell id="E11lnonPsDXxkd33xf_O-6" value="Sound Loops" style="rounded=1;whiteSpace=wrap;html=1;fillColor=#f8cecc;strokeColor=#b85450;glass=0;shadow=1;" parent="WIyWlLk6GJQsqaUBKTNV-1" vertex="1">
          <mxGeometry x="-1470" y="1140" width="120" height="60" as="geometry" />
        </mxCell>
        <mxCell id="E11lnonPsDXxkd33xf_O-7" value="PPEffects" style="rounded=1;whiteSpace=wrap;html=1;fillColor=#d5e8d4;strokeColor=#82b366;glass=0;shadow=1;align=left;verticalAlign=middle;labelBackgroundColor=none;labelBorderColor=none;sketch=1;curveFitting=1;jiggle=2;spacingLeft=20;" parent="WIyWlLk6GJQsqaUBKTNV-1" vertex="1">
          <mxGeometry x="-1470" y="40" width="320" height="185" as="geometry" />
        </mxCell>
        <mxCell id="E11lnonPsDXxkd33xf_O-9" value="How does the Storm process" style="text;html=1;strokeColor=none;fillColor=none;align=center;verticalAlign=middle;whiteSpace=wrap;rounded=0;" parent="WIyWlLk6GJQsqaUBKTNV-1" vertex="1">
          <mxGeometry x="-1769" y="-650" width="490" height="80" as="geometry" />
        </mxCell>
        <mxCell id="E11lnonPsDXxkd33xf_O-13" value="" style="edgeStyle=orthogonalEdgeStyle;rounded=0;orthogonalLoop=1;jettySize=auto;html=1;" parent="WIyWlLk6GJQsqaUBKTNV-1" source="E11lnonPsDXxkd33xf_O-11" target="E11lnonPsDXxkd33xf_O-12" edge="1">
          <mxGeometry relative="1" as="geometry" />
        </mxCell>
        <mxCell id="E11lnonPsDXxkd33xf_O-15" value="" style="edgeStyle=orthogonalEdgeStyle;rounded=0;orthogonalLoop=1;jettySize=auto;html=1;" parent="WIyWlLk6GJQsqaUBKTNV-1" source="E11lnonPsDXxkd33xf_O-11" target="E11lnonPsDXxkd33xf_O-14" edge="1">
          <mxGeometry relative="1" as="geometry" />
        </mxCell>
        <mxCell id="E11lnonPsDXxkd33xf_O-11" value="Start" style="rounded=0;whiteSpace=wrap;html=1;" parent="WIyWlLk6GJQsqaUBKTNV-1" vertex="1">
          <mxGeometry x="-2060" y="-517" width="120" height="60" as="geometry" />
        </mxCell>
        <mxCell id="E11lnonPsDXxkd33xf_O-12" value="Save the previous weather Parameters" style="rounded=0;whiteSpace=wrap;html=1;" parent="WIyWlLk6GJQsqaUBKTNV-1" vertex="1">
          <mxGeometry x="-2060" y="-377" width="120" height="60" as="geometry" />
        </mxCell>
        <mxCell id="E11lnonPsDXxkd33xf_O-19" value="" style="edgeStyle=orthogonalEdgeStyle;rounded=0;orthogonalLoop=1;jettySize=auto;html=1;" parent="WIyWlLk6GJQsqaUBKTNV-1" source="E11lnonPsDXxkd33xf_O-14" target="E11lnonPsDXxkd33xf_O-18" edge="1">
          <mxGeometry relative="1" as="geometry" />
        </mxCell>
        <mxCell id="E11lnonPsDXxkd33xf_O-25" value="" style="edgeStyle=orthogonalEdgeStyle;rounded=0;orthogonalLoop=1;jettySize=auto;html=1;" parent="WIyWlLk6GJQsqaUBKTNV-1" source="E11lnonPsDXxkd33xf_O-14" target="E11lnonPsDXxkd33xf_O-24" edge="1">
          <mxGeometry relative="1" as="geometry" />
        </mxCell>
        <mxCell id="E11lnonPsDXxkd33xf_O-14" value="Build up" style="rounded=0;whiteSpace=wrap;html=1;" parent="WIyWlLk6GJQsqaUBKTNV-1" vertex="1">
          <mxGeometry x="-1860" y="-517" width="120" height="60" as="geometry" />
        </mxCell>
        <mxCell id="E11lnonPsDXxkd33xf_O-21" value="" style="edgeStyle=orthogonalEdgeStyle;rounded=0;orthogonalLoop=1;jettySize=auto;html=1;" parent="WIyWlLk6GJQsqaUBKTNV-1" source="E11lnonPsDXxkd33xf_O-18" target="E11lnonPsDXxkd33xf_O-20" edge="1">
          <mxGeometry relative="1" as="geometry" />
        </mxCell>
        <mxCell id="E11lnonPsDXxkd33xf_O-27" value="" style="edgeStyle=orthogonalEdgeStyle;rounded=0;orthogonalLoop=1;jettySize=auto;html=1;" parent="WIyWlLk6GJQsqaUBKTNV-1" source="E11lnonPsDXxkd33xf_O-18" target="E11lnonPsDXxkd33xf_O-26" edge="1">
          <mxGeometry relative="1" as="geometry" />
        </mxCell>
        <mxCell id="E11lnonPsDXxkd33xf_O-18" value="Zenith / Apex" style="rounded=1;whiteSpace=wrap;html=1;" parent="WIyWlLk6GJQsqaUBKTNV-1" vertex="1">
          <mxGeometry x="-1660" y="-517" width="120" height="60" as="geometry" />
        </mxCell>
        <mxCell id="E11lnonPsDXxkd33xf_O-23" value="" style="edgeStyle=orthogonalEdgeStyle;rounded=0;orthogonalLoop=1;jettySize=auto;html=1;" parent="WIyWlLk6GJQsqaUBKTNV-1" source="E11lnonPsDXxkd33xf_O-20" target="E11lnonPsDXxkd33xf_O-22" edge="1">
          <mxGeometry relative="1" as="geometry" />
        </mxCell>
        <mxCell id="E11lnonPsDXxkd33xf_O-29" value="" style="edgeStyle=orthogonalEdgeStyle;rounded=0;orthogonalLoop=1;jettySize=auto;html=1;" parent="WIyWlLk6GJQsqaUBKTNV-1" source="E11lnonPsDXxkd33xf_O-20" target="E11lnonPsDXxkd33xf_O-28" edge="1">
          <mxGeometry relative="1" as="geometry" />
        </mxCell>
        <mxCell id="E11lnonPsDXxkd33xf_O-20" value="Drop Off" style="rounded=0;whiteSpace=wrap;html=1;" parent="WIyWlLk6GJQsqaUBKTNV-1" vertex="1">
          <mxGeometry x="-1460" y="-517" width="120" height="60" as="geometry" />
        </mxCell>
        <mxCell id="E11lnonPsDXxkd33xf_O-31" value="" style="edgeStyle=orthogonalEdgeStyle;rounded=0;orthogonalLoop=1;jettySize=auto;html=1;" parent="WIyWlLk6GJQsqaUBKTNV-1" source="E11lnonPsDXxkd33xf_O-22" target="E11lnonPsDXxkd33xf_O-30" edge="1">
          <mxGeometry relative="1" as="geometry" />
        </mxCell>
        <mxCell id="E11lnonPsDXxkd33xf_O-22" value="Return to previous Weather" style="rounded=0;whiteSpace=wrap;html=1;" parent="WIyWlLk6GJQsqaUBKTNV-1" vertex="1">
          <mxGeometry x="-1260" y="-517" width="180" height="60" as="geometry" />
        </mxCell>
        <mxCell id="E11lnonPsDXxkd33xf_O-24" value="Go from 0 -&amp;gt; 100&lt;br&gt;over Time" style="rounded=0;whiteSpace=wrap;html=1;" parent="WIyWlLk6GJQsqaUBKTNV-1" vertex="1">
          <mxGeometry x="-1860" y="-377" width="120" height="60" as="geometry" />
        </mxCell>
        <mxCell id="E11lnonPsDXxkd33xf_O-26" value="Maintain 100&lt;br&gt;for x amount of time" style="rounded=1;whiteSpace=wrap;html=1;" parent="WIyWlLk6GJQsqaUBKTNV-1" vertex="1">
          <mxGeometry x="-1660" y="-377" width="120" height="60" as="geometry" />
        </mxCell>
        <mxCell id="E11lnonPsDXxkd33xf_O-28" value="Slowly reduce to 0&lt;br&gt;over x amount of time" style="rounded=0;whiteSpace=wrap;html=1;" parent="WIyWlLk6GJQsqaUBKTNV-1" vertex="1">
          <mxGeometry x="-1460" y="-377" width="120" height="60" as="geometry" />
        </mxCell>
        <mxCell id="E11lnonPsDXxkd33xf_O-30" value="Restore previous weather parameters&lt;br&gt;Remove any PPEffects" style="rounded=0;whiteSpace=wrap;html=1;" parent="WIyWlLk6GJQsqaUBKTNV-1" vertex="1">
          <mxGeometry x="-1260" y="-377" width="180" height="60" as="geometry" />
        </mxCell>
        <mxCell id="E11lnonPsDXxkd33xf_O-32" value="All&lt;br&gt;AI Skills&lt;br&gt;and&lt;br&gt;Subskills" style="rounded=1;whiteSpace=wrap;html=1;fillColor=#f8cecc;strokeColor=#b85450;glass=0;shadow=1;" parent="WIyWlLk6GJQsqaUBKTNV-1" vertex="1">
          <mxGeometry x="-1470" y="1283.5" width="120" height="60" as="geometry" />
        </mxCell>
        <mxCell id="Znwxz7as3tQza8B5PeCA-18" style="rounded=0;orthogonalLoop=1;jettySize=auto;html=1;entryX=0;entryY=0.5;entryDx=0;entryDy=0;exitX=1;exitY=0.5;exitDx=0;exitDy=0;sketch=1;curveFitting=1;jiggle=2;strokeWidth=4;" parent="WIyWlLk6GJQsqaUBKTNV-1" source="E11lnonPsDXxkd33xf_O-7" target="Znwxz7as3tQza8B5PeCA-9" edge="1">
          <mxGeometry relative="1" as="geometry">
            <mxPoint x="-800" y="200" as="sourcePoint" />
          </mxGeometry>
        </mxCell>
        <mxCell id="Znwxz7as3tQza8B5PeCA-4" value="Basic&lt;br&gt;Color Corrections" style="rounded=1;whiteSpace=wrap;html=1;fillColor=#d5e8d4;strokeColor=#82b366;glass=0;shadow=1;" parent="WIyWlLk6GJQsqaUBKTNV-1" vertex="1">
          <mxGeometry x="-1310" y="60" width="120" height="40" as="geometry" />
        </mxCell>
        <mxCell id="Znwxz7as3tQza8B5PeCA-7" value="Film Grain" style="rounded=1;whiteSpace=wrap;html=1;fillColor=#d5e8d4;strokeColor=#82b366;glass=0;shadow=1;" parent="WIyWlLk6GJQsqaUBKTNV-1" vertex="1">
          <mxGeometry x="-1310" y="110" width="120" height="40" as="geometry" />
        </mxCell>
        <mxCell id="Znwxz7as3tQza8B5PeCA-9" value="Fade to Default and delete&lt;br&gt;&quot;CVO_Storm_Active_PP_Effects_Array&quot;&lt;br&gt;needs to be deleted on each client" style="rounded=1;whiteSpace=wrap;html=1;fillColor=#f8cecc;strokeColor=#b85450;glass=0;shadow=1;" parent="WIyWlLk6GJQsqaUBKTNV-1" vertex="1">
          <mxGeometry x="-659.58" y="207.5" width="330" height="57.5" as="geometry" />
        </mxCell>
        <mxCell id="Znwxz7as3tQza8B5PeCA-10" value="&amp;nbsp;Done" style="whiteSpace=wrap;html=1;fillColor=#d5e8d4;strokeColor=#82b366;rounded=1;sketch=1;curveFitting=1;jiggle=2;" parent="WIyWlLk6GJQsqaUBKTNV-1" vertex="1">
          <mxGeometry x="-2060" y="10" width="120" height="40" as="geometry" />
        </mxCell>
        <mxCell id="Znwxz7as3tQza8B5PeCA-11" value="WIP" style="whiteSpace=wrap;html=1;fillColor=#ffe6cc;strokeColor=#d79b00;rounded=1;sketch=1;curveFitting=1;jiggle=2;" parent="WIyWlLk6GJQsqaUBKTNV-1" vertex="1">
          <mxGeometry x="-2190" y="10" width="120" height="40" as="geometry" />
        </mxCell>
        <mxCell id="Znwxz7as3tQza8B5PeCA-12" value="ToDo" style="whiteSpace=wrap;html=1;fillColor=#f8cecc;strokeColor=#b85450;rounded=1;sketch=1;curveFitting=1;jiggle=2;" parent="WIyWlLk6GJQsqaUBKTNV-1" vertex="1">
          <mxGeometry x="-2320" y="10" width="120" height="40" as="geometry" />
        </mxCell>
        <mxCell id="Znwxz7as3tQza8B5PeCA-14" value="To Be Decided" style="rounded=0;whiteSpace=wrap;html=1;align=left;verticalAlign=top;sketch=1;curveFitting=1;jiggle=2;" parent="WIyWlLk6GJQsqaUBKTNV-1" vertex="1">
          <mxGeometry x="-2320" y="80" width="660" height="1530" as="geometry" />
        </mxCell>
        <mxCell id="Znwxz7as3tQza8B5PeCA-15" value="Blinking when&lt;br&gt;not wearing&lt;br&gt;Eye Protection" style="rounded=1;whiteSpace=wrap;html=1;fillColor=#e1d5e7;strokeColor=#9673a6;glass=0;sketch=1;curveFitting=1;jiggle=2;shadow=0;" parent="WIyWlLk6GJQsqaUBKTNV-1" vertex="1">
          <mxGeometry x="-2300" y="120" width="120" height="60" as="geometry" />
        </mxCell>
        <mxCell id="-8z7zLYKaV2N25bag4np-1" value="DynamicBlur" style="rounded=1;whiteSpace=wrap;html=1;fillColor=#d5e8d4;strokeColor=#82b366;glass=0;shadow=1;" parent="WIyWlLk6GJQsqaUBKTNV-1" vertex="1">
          <mxGeometry x="-1310" y="160" width="120" height="40" as="geometry" />
        </mxCell>
        <mxCell id="hQTQaSpxR1u1E6Dnaw2V-1" value="All JIP ID&#39;s need to be deleted on the server&lt;br&gt;&lt;div style=&quot;font-family: Consolas, &amp;quot;Courier New&amp;quot;, monospace, &amp;quot;comic Neue&amp;quot;, Consolas, &amp;quot;Courier New&amp;quot;, monospace; font-size: 14px; line-height: 19px;&quot;&gt;CVO_Storm_Active_JIP_Array&lt;br&gt;&lt;a style=&quot;&quot; href=&quot;https://community.bistudio.com/wiki/remoteExec&quot;&gt;remoteExec&lt;/a&gt; [&lt;span style=&quot;&quot; class=&quot;s&quot;&gt;&quot;&quot;&lt;/span&gt;, &lt;span style=&quot;&quot; class=&quot;s&quot;&gt;&quot;JIPid&quot;&lt;/span&gt;&lt;span style=&quot;&quot; class=&quot;ae&quot;&gt;]&lt;/span&gt;;&lt;br&gt;&lt;/div&gt;" style="rounded=1;whiteSpace=wrap;html=1;fillColor=#f8cecc;strokeColor=#b85450;glass=0;shadow=1;" parent="WIyWlLk6GJQsqaUBKTNV-1" vertex="1">
          <mxGeometry x="-660" y="73" width="349.58" height="107" as="geometry" />
        </mxCell>
        <mxCell id="W2RvpuAVs8pKlcEKHl59-0" value="Lightning Strikes" style="rounded=1;whiteSpace=wrap;html=1;fillColor=#e1d5e7;strokeColor=#9673a6;glass=0;sketch=1;curveFitting=1;jiggle=2;shadow=0;" parent="WIyWlLk6GJQsqaUBKTNV-1" vertex="1">
          <mxGeometry x="-2300" y="200" width="120" height="60" as="geometry" />
        </mxCell>
        <mxCell id="W2RvpuAVs8pKlcEKHl59-1" value="Lightning" style="rounded=1;whiteSpace=wrap;html=1;fillColor=#d5e8d4;strokeColor=#82b366;glass=0;shadow=1;" parent="WIyWlLk6GJQsqaUBKTNV-1" vertex="1">
          <mxGeometry x="-1310" y="520" width="120" height="60" as="geometry" />
        </mxCell>
        <mxCell id="UnbkybWvrtqViDbFcPGk-0" value="Handle&lt;br&gt;Humidity&lt;br&gt;(Footstep sound)&lt;br&gt;If needed" style="rounded=1;whiteSpace=wrap;html=1;fillColor=#e1d5e7;strokeColor=#9673a6;glass=0;sketch=1;curveFitting=1;jiggle=2;shadow=0;" parent="WIyWlLk6GJQsqaUBKTNV-1" vertex="1">
          <mxGeometry x="-2300" y="280" width="120" height="70" as="geometry" />
        </mxCell>
        <mxCell id="FVfylj094XFFCRxBFUlB-0" value="continous monitor and adapt playerside Effects based on &quot;insideBuilding&quot;. &lt;br&gt;For example: &lt;br&gt;- Dynamic Blur&lt;br&gt;- Sound Loops&lt;br&gt;- Particle Spawners" style="rounded=1;whiteSpace=wrap;html=1;fillColor=#e1d5e7;strokeColor=#9673a6;glass=0;sketch=1;curveFitting=1;jiggle=2;shadow=0;align=left;labelPosition=center;verticalLabelPosition=middle;verticalAlign=middle;spacingLeft=8;" parent="WIyWlLk6GJQsqaUBKTNV-1" vertex="1">
          <mxGeometry x="-2300" y="360" width="440" height="130" as="geometry" />
        </mxCell>
        <mxCell id="N2z2kw6uGRIZIay2zsSY-23" value="" style="group;movable=1;resizable=1;rotatable=1;deletable=1;editable=1;locked=0;connectable=1;" parent="WIyWlLk6GJQsqaUBKTNV-1" vertex="1" connectable="0">
          <mxGeometry x="-2310" y="2560" width="1440" height="650" as="geometry" />
        </mxCell>
        <mxCell id="_kfhSIF0BqQviyJn40GE-50" value="" style="rounded=1;whiteSpace=wrap;html=1;fontFamily=Helvetica;fontSize=11;fillColor=#d5e8d4;strokeColor=#82b366;glass=0;sketch=1;curveFitting=1;jiggle=2;shadow=1;container=0;movable=1;resizable=1;rotatable=1;deletable=1;editable=1;locked=0;connectable=1;" parent="N2z2kw6uGRIZIay2zsSY-23" vertex="1">
          <mxGeometry width="1440" height="650" as="geometry" />
        </mxCell>
        <mxCell id="_kfhSIF0BqQviyJn40GE-2" value="fn_ppEffect_request" style="rounded=1;whiteSpace=wrap;html=1;fontFamily=Lucida Console;fontSize=14;fontStyle=1;align=center;sketch=1;curveFitting=1;jiggle=2;container=0;movable=1;resizable=1;rotatable=1;deletable=1;editable=1;locked=0;connectable=1;" parent="N2z2kw6uGRIZIay2zsSY-23" vertex="1">
          <mxGeometry x="420" y="510" width="580" height="60" as="geometry" />
        </mxCell>
        <mxCell id="_kfhSIF0BqQviyJn40GE-34" value="" style="edgeStyle=none;shape=connector;rounded=0;sketch=1;jiggle=2;curveFitting=1;orthogonalLoop=1;jettySize=auto;html=1;shadow=1;labelBackgroundColor=default;strokeColor=default;strokeWidth=3;align=center;verticalAlign=middle;fontFamily=Lucida Console;fontSize=14;fontColor=default;startArrow=none;startFill=0;endArrow=classic;sourcePerimeterSpacing=5;targetPerimeterSpacing=5;fontStyle=1;movable=1;resizable=1;rotatable=1;deletable=1;editable=1;locked=0;connectable=1;" parent="N2z2kw6uGRIZIay2zsSY-23" source="_kfhSIF0BqQviyJn40GE-3" target="_kfhSIF0BqQviyJn40GE-2" edge="1">
          <mxGeometry relative="1" as="geometry" />
        </mxCell>
        <mxCell id="_kfhSIF0BqQviyJn40GE-3" value="_pp_effect_Name&lt;br style=&quot;font-size: 14px;&quot;&gt;_duration&lt;br style=&quot;font-size: 14px;&quot;&gt;_intensity" style="rounded=0;whiteSpace=wrap;html=1;sketch=1;curveFitting=1;jiggle=2;fontFamily=Lucida Console;fontSize=14;fontStyle=1;align=center;shape=step;perimeter=stepPerimeter;fixedSize=1;container=0;movable=1;resizable=1;rotatable=1;deletable=1;editable=1;locked=0;connectable=1;" parent="N2z2kw6uGRIZIay2zsSY-23" vertex="1">
          <mxGeometry x="150" y="500" width="190" height="80" as="geometry" />
        </mxCell>
        <mxCell id="_kfhSIF0BqQviyJn40GE-4" value="fnc_ppEffect_get_from_config" style="rounded=1;whiteSpace=wrap;html=1;fontFamily=Lucida Console;fontSize=14;fontStyle=1;align=center;sketch=1;curveFitting=1;jiggle=2;container=0;movable=1;resizable=1;rotatable=1;deletable=1;editable=1;locked=0;connectable=1;" parent="N2z2kw6uGRIZIay2zsSY-23" vertex="1">
          <mxGeometry x="410" y="330" width="273" height="60" as="geometry" />
        </mxCell>
        <mxCell id="_kfhSIF0BqQviyJn40GE-26" style="rounded=0;orthogonalLoop=1;jettySize=auto;html=1;exitX=0.101;exitY=0.006;exitDx=0;exitDy=0;labelBackgroundColor=default;strokeColor=default;align=center;verticalAlign=middle;fontFamily=Lucida Console;fontSize=14;fontColor=default;startArrow=none;endArrow=classic;startFill=0;edgeStyle=orthogonalEdgeStyle;curved=1;entryX=0.25;entryY=1;entryDx=0;entryDy=0;exitPerimeter=0;targetPerimeterSpacing=5;strokeWidth=3;sourcePerimeterSpacing=5;shadow=1;sketch=1;curveFitting=1;jiggle=2;fontStyle=1;movable=1;resizable=1;rotatable=1;deletable=1;editable=1;locked=0;connectable=1;" parent="N2z2kw6uGRIZIay2zsSY-23" source="_kfhSIF0BqQviyJn40GE-2" target="_kfhSIF0BqQviyJn40GE-4" edge="1">
          <mxGeometry relative="1" as="geometry" />
        </mxCell>
        <mxCell id="_kfhSIF0BqQviyJn40GE-16" value="fnc_ppEffect_remote" style="rounded=1;whiteSpace=wrap;html=1;fontFamily=Lucida Console;fontSize=14;fontStyle=1;align=center;sketch=1;curveFitting=1;jiggle=2;container=0;movable=1;resizable=1;rotatable=1;deletable=1;editable=1;locked=0;connectable=1;" parent="N2z2kw6uGRIZIay2zsSY-23" vertex="1">
          <mxGeometry x="1080" y="510" width="310" height="60" as="geometry" />
        </mxCell>
        <mxCell id="_kfhSIF0BqQviyJn40GE-35" value="" style="edgeStyle=none;shape=connector;rounded=0;sketch=1;jiggle=2;curveFitting=1;orthogonalLoop=1;jettySize=auto;html=1;shadow=1;labelBackgroundColor=default;strokeColor=default;strokeWidth=3;align=center;verticalAlign=middle;fontFamily=Lucida Console;fontSize=14;fontColor=default;startArrow=none;startFill=0;endArrow=classic;sourcePerimeterSpacing=5;targetPerimeterSpacing=5;fontStyle=1;movable=1;resizable=1;rotatable=1;deletable=1;editable=1;locked=0;connectable=1;" parent="N2z2kw6uGRIZIay2zsSY-23" source="_kfhSIF0BqQviyJn40GE-2" target="_kfhSIF0BqQviyJn40GE-16" edge="1">
          <mxGeometry relative="1" as="geometry" />
        </mxCell>
        <mxCell id="_kfhSIF0BqQviyJn40GE-21" value="fn_ppEffect_convert_intensity" style="rounded=1;whiteSpace=wrap;html=1;fontFamily=Lucida Console;fontSize=14;fontStyle=1;align=center;sketch=1;curveFitting=1;jiggle=2;container=0;movable=1;resizable=1;rotatable=1;deletable=1;editable=1;locked=0;connectable=1;" parent="N2z2kw6uGRIZIay2zsSY-23" vertex="1">
          <mxGeometry x="703" y="330" width="297" height="60" as="geometry" />
        </mxCell>
        <mxCell id="_kfhSIF0BqQviyJn40GE-30" style="edgeStyle=none;shape=connector;rounded=0;sketch=1;jiggle=2;curveFitting=1;orthogonalLoop=1;jettySize=auto;html=1;entryX=0.75;entryY=0;entryDx=0;entryDy=0;shadow=1;labelBackgroundColor=default;strokeColor=default;strokeWidth=3;align=center;verticalAlign=middle;fontFamily=Lucida Console;fontSize=14;fontColor=default;startArrow=none;startFill=0;endArrow=classic;sourcePerimeterSpacing=5;targetPerimeterSpacing=5;exitX=0.5;exitY=1;exitDx=0;exitDy=0;fontStyle=1;movable=1;resizable=1;rotatable=1;deletable=1;editable=1;locked=0;connectable=1;" parent="N2z2kw6uGRIZIay2zsSY-23" source="_kfhSIF0BqQviyJn40GE-11" target="_kfhSIF0BqQviyJn40GE-4" edge="1">
          <mxGeometry relative="1" as="geometry" />
        </mxCell>
        <mxCell id="_kfhSIF0BqQviyJn40GE-32" style="edgeStyle=none;shape=connector;rounded=0;sketch=1;jiggle=2;curveFitting=1;orthogonalLoop=1;jettySize=auto;html=1;entryX=0.25;entryY=1;entryDx=0;entryDy=0;shadow=1;labelBackgroundColor=default;strokeColor=default;strokeWidth=3;align=center;verticalAlign=middle;fontFamily=Lucida Console;fontSize=14;fontColor=default;startArrow=none;startFill=0;endArrow=classic;sourcePerimeterSpacing=5;targetPerimeterSpacing=5;exitX=0.622;exitY=0.033;exitDx=0;exitDy=0;exitPerimeter=0;fontStyle=1;movable=1;resizable=1;rotatable=1;deletable=1;editable=1;locked=0;connectable=1;" parent="N2z2kw6uGRIZIay2zsSY-23" source="_kfhSIF0BqQviyJn40GE-2" target="_kfhSIF0BqQviyJn40GE-21" edge="1">
          <mxGeometry relative="1" as="geometry" />
        </mxCell>
        <mxCell id="_kfhSIF0BqQviyJn40GE-31" style="edgeStyle=none;shape=connector;rounded=0;sketch=1;jiggle=2;curveFitting=1;orthogonalLoop=1;jettySize=auto;html=1;exitX=0.75;exitY=1;exitDx=0;exitDy=0;entryX=0.343;entryY=0.017;entryDx=0;entryDy=0;entryPerimeter=0;shadow=1;labelBackgroundColor=default;strokeColor=default;strokeWidth=3;align=center;verticalAlign=middle;fontFamily=Lucida Console;fontSize=14;fontColor=default;startArrow=none;startFill=0;endArrow=classic;sourcePerimeterSpacing=5;targetPerimeterSpacing=5;fontStyle=1;movable=1;resizable=1;rotatable=1;deletable=1;editable=1;locked=0;connectable=1;" parent="N2z2kw6uGRIZIay2zsSY-23" source="_kfhSIF0BqQviyJn40GE-4" target="_kfhSIF0BqQviyJn40GE-2" edge="1">
          <mxGeometry relative="1" as="geometry" />
        </mxCell>
        <mxCell id="_kfhSIF0BqQviyJn40GE-33" style="edgeStyle=none;shape=connector;rounded=0;sketch=1;jiggle=2;curveFitting=1;orthogonalLoop=1;jettySize=auto;html=1;exitX=0.75;exitY=1;exitDx=0;exitDy=0;entryX=0.886;entryY=-0.03;entryDx=0;entryDy=0;entryPerimeter=0;shadow=1;labelBackgroundColor=default;strokeColor=default;strokeWidth=3;align=center;verticalAlign=middle;fontFamily=Lucida Console;fontSize=14;fontColor=default;startArrow=none;startFill=0;endArrow=classic;sourcePerimeterSpacing=5;targetPerimeterSpacing=5;fontStyle=1;movable=1;resizable=1;rotatable=1;deletable=1;editable=1;locked=0;connectable=1;" parent="N2z2kw6uGRIZIay2zsSY-23" source="_kfhSIF0BqQviyJn40GE-21" target="_kfhSIF0BqQviyJn40GE-2" edge="1">
          <mxGeometry relative="1" as="geometry" />
        </mxCell>
        <mxCell id="_kfhSIF0BqQviyJn40GE-36" value="" style="group;fillColor=#f8cecc;strokeColor=#b85450;container=0;movable=1;resizable=1;rotatable=1;deletable=1;editable=1;locked=0;connectable=1;" parent="N2z2kw6uGRIZIay2zsSY-23" vertex="1" connectable="0">
          <mxGeometry x="410" y="50" width="280" height="190" as="geometry" />
        </mxCell>
        <mxCell id="_kfhSIF0BqQviyJn40GE-28" style="shape=connector;rounded=0;sketch=1;jiggle=2;curveFitting=1;orthogonalLoop=1;jettySize=auto;html=1;exitX=0.25;exitY=0;exitDx=0;exitDy=0;entryX=0.5;entryY=1;entryDx=0;entryDy=0;shadow=1;labelBackgroundColor=default;strokeColor=default;strokeWidth=3;align=center;verticalAlign=middle;fontFamily=Lucida Console;fontSize=14;fontColor=default;startArrow=none;startFill=0;endArrow=classic;sourcePerimeterSpacing=5;targetPerimeterSpacing=5;fontStyle=1;movable=1;resizable=1;rotatable=1;deletable=1;editable=1;locked=0;connectable=1;" parent="N2z2kw6uGRIZIay2zsSY-23" source="_kfhSIF0BqQviyJn40GE-4" target="_kfhSIF0BqQviyJn40GE-11" edge="1">
          <mxGeometry relative="1" as="geometry" />
        </mxCell>
        <mxCell id="_kfhSIF0BqQviyJn40GE-53" value="&lt;h1&gt;&lt;font style=&quot;font-size: 20px;&quot;&gt;Post Processing Effects&lt;/font&gt;&lt;/h1&gt;&lt;p&gt;&lt;span style=&quot;font-size: 14px;&quot;&gt;fnc_ppEffect_request handles individual CVO_PP_Effects classes, establishes values based on intensity and then remote executes them on the client.&lt;/span&gt;&lt;/p&gt;" style="text;html=1;strokeColor=default;fillColor=default;spacing=15;spacingTop=-20;whiteSpace=wrap;overflow=hidden;rounded=1;fontSize=11;fontFamily=Lucida Console;fontColor=default;sketch=1;curveFitting=1;jiggle=2;container=0;movable=1;resizable=1;rotatable=1;deletable=1;editable=1;locked=0;connectable=1;" parent="N2z2kw6uGRIZIay2zsSY-23" vertex="1">
          <mxGeometry x="50" y="50" width="340" height="190" as="geometry" />
        </mxCell>
        <mxCell id="_kfhSIF0BqQviyJn40GE-11" value="CVO_PP_Effects" style="rounded=1;whiteSpace=wrap;html=1;spacingTop=10;spacingLeft=10;align=center;verticalAlign=top;sketch=1;curveFitting=1;jiggle=2;fontFamily=Lucida Console;fontSize=14;fontStyle=1;container=0;movable=1;resizable=1;rotatable=1;deletable=1;editable=1;locked=0;connectable=1;" parent="N2z2kw6uGRIZIay2zsSY-23" vertex="1">
          <mxGeometry x="410" y="50" width="280" height="190" as="geometry" />
        </mxCell>
        <mxCell id="_kfhSIF0BqQviyJn40GE-10" value="CVO_DynamicBlur.hpp" style="shape=parallelogram;perimeter=parallelogramPerimeter;whiteSpace=wrap;html=1;fixedSize=1;align=center;spacing=22;sketch=1;curveFitting=1;jiggle=2;fontFamily=Lucida Console;fontSize=14;fontStyle=1;container=0;movable=1;resizable=1;rotatable=1;deletable=1;editable=1;locked=0;connectable=1;" parent="N2z2kw6uGRIZIay2zsSY-23" vertex="1">
          <mxGeometry x="429.58041958041963" y="90" width="240.83916083916085" height="40" as="geometry" />
        </mxCell>
        <mxCell id="_kfhSIF0BqQviyJn40GE-12" value="CVO_FilmGrain.hpp" style="shape=parallelogram;perimeter=parallelogramPerimeter;whiteSpace=wrap;html=1;fixedSize=1;align=center;spacing=22;sketch=1;curveFitting=1;jiggle=2;fontFamily=Lucida Console;fontSize=14;fontStyle=1;container=0;movable=1;resizable=1;rotatable=1;deletable=1;editable=1;locked=0;connectable=1;" parent="N2z2kw6uGRIZIay2zsSY-23" vertex="1">
          <mxGeometry x="429.58041958041963" y="130" width="240.83916083916085" height="40" as="geometry" />
        </mxCell>
        <mxCell id="_kfhSIF0BqQviyJn40GE-13" value="CVO_ColorCorrections.hpp" style="shape=parallelogram;perimeter=parallelogramPerimeter;whiteSpace=wrap;html=1;fixedSize=1;align=center;spacing=22;sketch=1;curveFitting=1;jiggle=2;fontFamily=Lucida Console;fontSize=14;fontStyle=1;container=0;movable=1;resizable=1;rotatable=1;deletable=1;editable=1;locked=0;connectable=1;" parent="N2z2kw6uGRIZIay2zsSY-23" vertex="1">
          <mxGeometry x="429.58041958041963" y="170" width="240.83916083916085" height="40" as="geometry" />
        </mxCell>
        <mxCell id="tPFQgd7vZW-GbOvR2g9Y-15" value="once the whole storm has passed -&amp;gt; setWind [x,y,&lt;b&gt;false&lt;/b&gt;]&amp;nbsp;&amp;nbsp;&lt;br&gt;server only" style="rounded=1;whiteSpace=wrap;html=1;fillColor=#f8cecc;strokeColor=#b85450;glass=0;shadow=1;" parent="WIyWlLk6GJQsqaUBKTNV-1" vertex="1">
          <mxGeometry x="-660" y="370" width="350" height="60" as="geometry" />
        </mxCell>
        <mxCell id="tPFQgd7vZW-GbOvR2g9Y-19" value="once the whole storm has passed:&lt;br&gt;GVAR(fogParams)_target =&lt;span style=&quot;background-color: initial;&quot;&gt;&amp;nbsp; false&lt;/span&gt;&lt;br&gt;server only" style="rounded=1;whiteSpace=wrap;html=1;fillColor=#f8cecc;strokeColor=#b85450;glass=0;shadow=1;" parent="WIyWlLk6GJQsqaUBKTNV-1" vertex="1">
          <mxGeometry x="-659.58" y="290" width="349.58" height="50" as="geometry" />
        </mxCell>
        <mxCell id="juMGjEx32GAvLLKHNY1u-0" value="Add the option for some dynamic Randomness to fn_weather_setFog_recursive_continous when it is in continous mode" style="rounded=1;whiteSpace=wrap;html=1;fillColor=#e1d5e7;strokeColor=#9673a6;glass=0;sketch=1;curveFitting=1;jiggle=2;shadow=0;align=left;labelPosition=center;verticalLabelPosition=middle;verticalAlign=middle;spacingLeft=8;" parent="WIyWlLk6GJQsqaUBKTNV-1" vertex="1">
          <mxGeometry x="-2300" y="510" width="440" height="130" as="geometry" />
        </mxCell>
        <mxCell id="juMGjEx32GAvLLKHNY1u-6" value="apply remaining, basic weather settings back to previous&lt;br&gt;CVO_Storm_previous_weather_hashmap" style="rounded=1;whiteSpace=wrap;html=1;fillColor=#f8cecc;strokeColor=#b85450;glass=0;shadow=1;" parent="WIyWlLk6GJQsqaUBKTNV-1" vertex="1">
          <mxGeometry x="-659.58" y="460" width="350" height="60" as="geometry" />
        </mxCell>
        <mxCell id="fDVFaNoFgKCkYp6yHZvw-0" value="" style="group" parent="WIyWlLk6GJQsqaUBKTNV-1" vertex="1" connectable="0">
          <mxGeometry x="-2270" y="4010" width="2080" height="1140" as="geometry" />
        </mxCell>
        <mxCell id="N2z2kw6uGRIZIay2zsSY-27" value="" style="rounded=1;whiteSpace=wrap;html=1;fontFamily=Helvetica;fontSize=11;fillColor=#d5e8d4;strokeColor=#82b366;glass=0;sketch=1;curveFitting=1;jiggle=2;shadow=1;container=0;" parent="fDVFaNoFgKCkYp6yHZvw-0" vertex="1">
          <mxGeometry width="2080" height="1140" as="geometry" />
        </mxCell>
        <mxCell id="juMGjEx32GAvLLKHNY1u-3" value="" style="rounded=1;whiteSpace=wrap;html=1;sketch=1;curveFitting=1;jiggle=2;" parent="fDVFaNoFgKCkYp6yHZvw-0" vertex="1">
          <mxGeometry x="1110" y="58.17000000000007" width="400" height="370" as="geometry" />
        </mxCell>
        <mxCell id="N2z2kw6uGRIZIay2zsSY-43" value="CVO_Weather_Effects" style="rounded=1;whiteSpace=wrap;html=1;spacingTop=10;spacingLeft=10;align=center;verticalAlign=top;sketch=1;curveFitting=1;jiggle=2;fontFamily=Lucida Console;fontSize=14;fontStyle=1;container=0;" parent="fDVFaNoFgKCkYp6yHZvw-0" vertex="1">
          <mxGeometry x="580" y="67" width="280" height="190" as="geometry" />
        </mxCell>
        <mxCell id="N2z2kw6uGRIZIay2zsSY-28" value="fn_weather_request" style="rounded=1;whiteSpace=wrap;html=1;fontFamily=Lucida Console;fontSize=14;fontStyle=1;align=center;sketch=1;curveFitting=1;jiggle=2;container=0;" parent="fDVFaNoFgKCkYp6yHZvw-0" vertex="1">
          <mxGeometry x="450" y="507" width="580" height="60" as="geometry" />
        </mxCell>
        <mxCell id="N2z2kw6uGRIZIay2zsSY-29" value="" style="edgeStyle=none;shape=connector;rounded=0;sketch=1;jiggle=2;curveFitting=1;orthogonalLoop=1;jettySize=auto;html=1;shadow=1;labelBackgroundColor=default;strokeColor=default;strokeWidth=3;align=center;verticalAlign=middle;fontFamily=Lucida Console;fontSize=14;fontColor=default;startArrow=none;startFill=0;endArrow=classic;sourcePerimeterSpacing=5;targetPerimeterSpacing=5;fontStyle=1" parent="fDVFaNoFgKCkYp6yHZvw-0" source="N2z2kw6uGRIZIay2zsSY-30" target="N2z2kw6uGRIZIay2zsSY-28" edge="1">
          <mxGeometry relative="1" as="geometry" />
        </mxCell>
        <mxCell id="N2z2kw6uGRIZIay2zsSY-30" value="_weather_effect_Name&lt;br style=&quot;font-size: 14px;&quot;&gt;_duration&lt;br style=&quot;font-size: 14px;&quot;&gt;_intensity" style="rounded=0;whiteSpace=wrap;html=1;sketch=1;curveFitting=1;jiggle=2;fontFamily=Lucida Console;fontSize=14;fontStyle=1;align=center;shape=step;perimeter=stepPerimeter;fixedSize=1;container=0;" parent="fDVFaNoFgKCkYp6yHZvw-0" vertex="1">
          <mxGeometry x="130" y="497" width="240" height="80" as="geometry" />
        </mxCell>
        <mxCell id="N2z2kw6uGRIZIay2zsSY-31" value="fn_weather_get_Weather_as_Hash" style="rounded=1;whiteSpace=wrap;html=1;fontFamily=Lucida Console;fontSize=14;fontStyle=1;align=center;sketch=1;curveFitting=1;jiggle=2;container=0;" parent="fDVFaNoFgKCkYp6yHZvw-0" vertex="1">
          <mxGeometry x="440" y="327" width="273" height="60" as="geometry" />
        </mxCell>
        <mxCell id="N2z2kw6uGRIZIay2zsSY-32" style="rounded=0;orthogonalLoop=1;jettySize=auto;html=1;exitX=0.101;exitY=0.006;exitDx=0;exitDy=0;labelBackgroundColor=default;strokeColor=default;align=center;verticalAlign=middle;fontFamily=Lucida Console;fontSize=14;fontColor=default;startArrow=none;endArrow=classic;startFill=0;edgeStyle=orthogonalEdgeStyle;curved=1;entryX=0.25;entryY=1;entryDx=0;entryDy=0;exitPerimeter=0;targetPerimeterSpacing=5;strokeWidth=3;sourcePerimeterSpacing=5;shadow=1;sketch=1;curveFitting=1;jiggle=2;fontStyle=1" parent="fDVFaNoFgKCkYp6yHZvw-0" source="N2z2kw6uGRIZIay2zsSY-28" target="N2z2kw6uGRIZIay2zsSY-31" edge="1">
          <mxGeometry relative="1" as="geometry" />
        </mxCell>
        <mxCell id="N2z2kw6uGRIZIay2zsSY-34" value="" style="edgeStyle=entityRelationEdgeStyle;shape=connector;rounded=0;sketch=1;jiggle=2;curveFitting=1;orthogonalLoop=1;jettySize=auto;html=1;shadow=1;labelBackgroundColor=default;strokeColor=default;strokeWidth=3;align=center;verticalAlign=middle;fontFamily=Lucida Console;fontSize=14;fontColor=default;startArrow=none;startFill=0;endArrow=classic;sourcePerimeterSpacing=5;targetPerimeterSpacing=5;fontStyle=1;exitX=1;exitY=0.5;exitDx=0;exitDy=0;" parent="fDVFaNoFgKCkYp6yHZvw-0" source="N2z2kw6uGRIZIay2zsSY-28" target="tPFQgd7vZW-GbOvR2g9Y-4" edge="1">
          <mxGeometry relative="1" as="geometry" />
        </mxCell>
        <mxCell id="N2z2kw6uGRIZIay2zsSY-35" value="fn_weather_rainParams_as_Array" style="rounded=1;whiteSpace=wrap;html=1;fontFamily=Lucida Console;fontSize=14;fontStyle=1;align=center;sketch=1;curveFitting=1;jiggle=2;container=0;" parent="fDVFaNoFgKCkYp6yHZvw-0" vertex="1">
          <mxGeometry x="733" y="327" width="297" height="60" as="geometry" />
        </mxCell>
        <mxCell id="N2z2kw6uGRIZIay2zsSY-37" style="edgeStyle=none;shape=connector;rounded=0;sketch=1;jiggle=2;curveFitting=1;orthogonalLoop=1;jettySize=auto;html=1;entryX=0.587;entryY=1.015;entryDx=0;entryDy=0;shadow=1;labelBackgroundColor=default;strokeColor=default;strokeWidth=3;align=center;verticalAlign=middle;fontFamily=Lucida Console;fontSize=14;fontColor=default;startArrow=none;startFill=0;endArrow=classic;sourcePerimeterSpacing=5;targetPerimeterSpacing=5;exitX=0.802;exitY=-0.041;exitDx=0;exitDy=0;exitPerimeter=0;fontStyle=1;entryPerimeter=0;" parent="fDVFaNoFgKCkYp6yHZvw-0" source="N2z2kw6uGRIZIay2zsSY-28" target="N2z2kw6uGRIZIay2zsSY-35" edge="1">
          <mxGeometry relative="1" as="geometry" />
        </mxCell>
        <mxCell id="N2z2kw6uGRIZIay2zsSY-38" style="edgeStyle=none;shape=connector;rounded=0;sketch=1;jiggle=2;curveFitting=1;orthogonalLoop=1;jettySize=auto;html=1;exitX=0.361;exitY=1.015;exitDx=0;exitDy=0;entryX=0.155;entryY=-0.059;entryDx=0;entryDy=0;entryPerimeter=0;shadow=1;labelBackgroundColor=default;strokeColor=default;strokeWidth=3;align=center;verticalAlign=middle;fontFamily=Lucida Console;fontSize=14;fontColor=default;startArrow=none;startFill=0;endArrow=classic;sourcePerimeterSpacing=5;targetPerimeterSpacing=5;fontStyle=1;exitPerimeter=0;" parent="fDVFaNoFgKCkYp6yHZvw-0" source="N2z2kw6uGRIZIay2zsSY-31" target="N2z2kw6uGRIZIay2zsSY-28" edge="1">
          <mxGeometry relative="1" as="geometry" />
        </mxCell>
        <mxCell id="N2z2kw6uGRIZIay2zsSY-39" style="edgeStyle=none;shape=connector;rounded=0;sketch=1;jiggle=2;curveFitting=1;orthogonalLoop=1;jettySize=auto;html=1;exitX=0.75;exitY=1;exitDx=0;exitDy=0;entryX=0.886;entryY=-0.03;entryDx=0;entryDy=0;entryPerimeter=0;shadow=1;labelBackgroundColor=default;strokeColor=default;strokeWidth=3;align=center;verticalAlign=middle;fontFamily=Lucida Console;fontSize=14;fontColor=default;startArrow=none;startFill=0;endArrow=classic;sourcePerimeterSpacing=5;targetPerimeterSpacing=5;fontStyle=1" parent="fDVFaNoFgKCkYp6yHZvw-0" source="N2z2kw6uGRIZIay2zsSY-35" target="N2z2kw6uGRIZIay2zsSY-28" edge="1">
          <mxGeometry relative="1" as="geometry" />
        </mxCell>
        <mxCell id="N2z2kw6uGRIZIay2zsSY-49" style="edgeStyle=none;shape=connector;curved=1;rounded=0;orthogonalLoop=1;jettySize=auto;html=1;exitX=0;exitY=0.75;exitDx=0;exitDy=0;entryX=0.365;entryY=-0.023;entryDx=0;entryDy=0;shadow=0;labelBackgroundColor=default;strokeColor=default;strokeWidth=3;align=center;verticalAlign=middle;fontFamily=Lucida Console;fontSize=14;fontColor=default;startArrow=none;startFill=0;endArrow=classic;sourcePerimeterSpacing=2;targetPerimeterSpacing=5;entryPerimeter=0;sketch=1;curveFitting=1;jiggle=2;" parent="fDVFaNoFgKCkYp6yHZvw-0" source="N2z2kw6uGRIZIay2zsSY-44" target="N2z2kw6uGRIZIay2zsSY-31" edge="1">
          <mxGeometry relative="1" as="geometry">
            <Array as="points">
              <mxPoint x="520" y="197" />
            </Array>
          </mxGeometry>
        </mxCell>
        <mxCell id="N2z2kw6uGRIZIay2zsSY-44" value="cvo_WeatherPresets.hpp" style="shape=parallelogram;perimeter=parallelogramPerimeter;whiteSpace=wrap;html=1;fixedSize=1;align=center;spacing=22;sketch=1;curveFitting=1;jiggle=2;fontFamily=Lucida Console;fontSize=14;fontStyle=1;container=0;" parent="fDVFaNoFgKCkYp6yHZvw-0" vertex="1">
          <mxGeometry x="599.5804195804194" y="127" width="240.83916083916085" height="40" as="geometry" />
        </mxCell>
        <mxCell id="N2z2kw6uGRIZIay2zsSY-48" style="shape=connector;rounded=0;sketch=1;jiggle=2;curveFitting=1;orthogonalLoop=1;jettySize=auto;html=1;exitX=0.25;exitY=0;exitDx=0;exitDy=0;entryX=0;entryY=0.5;entryDx=0;entryDy=0;shadow=1;labelBackgroundColor=default;strokeColor=default;strokeWidth=3;align=center;verticalAlign=middle;fontFamily=Lucida Console;fontSize=14;fontColor=default;startArrow=none;startFill=0;endArrow=classic;sourcePerimeterSpacing=5;targetPerimeterSpacing=5;curved=1;" parent="fDVFaNoFgKCkYp6yHZvw-0" source="N2z2kw6uGRIZIay2zsSY-31" target="N2z2kw6uGRIZIay2zsSY-44" edge="1">
          <mxGeometry relative="1" as="geometry">
            <Array as="points">
              <mxPoint x="500" y="137" />
            </Array>
          </mxGeometry>
        </mxCell>
        <mxCell id="N2z2kw6uGRIZIay2zsSY-46" value="cvo_RainParams.hpp" style="shape=parallelogram;perimeter=parallelogramPerimeter;whiteSpace=wrap;html=1;fixedSize=1;align=center;spacing=22;sketch=1;curveFitting=1;jiggle=2;fontFamily=Lucida Console;fontSize=14;fontStyle=1;container=0;" parent="fDVFaNoFgKCkYp6yHZvw-0" vertex="1">
          <mxGeometry x="599.5804195804194" y="197" width="240.83916083916085" height="40" as="geometry" />
        </mxCell>
        <mxCell id="N2z2kw6uGRIZIay2zsSY-0" value="&lt;h1&gt;&lt;span style=&quot;font-size: 20px;&quot;&gt;Weather Effects&lt;/span&gt;&lt;/h1&gt;&lt;div&gt;&lt;span style=&quot;font-size: 20px;&quot;&gt;fnc_weather_request takes a Weather_preset and applies all weather changes defined in the config class.&lt;/span&gt;&lt;/div&gt;" style="text;html=1;strokeColor=default;fillColor=default;spacing=15;spacingTop=-20;whiteSpace=wrap;overflow=hidden;rounded=1;fontSize=11;fontFamily=Lucida Console;fontColor=default;sketch=1;curveFitting=1;jiggle=2;container=0;" parent="fDVFaNoFgKCkYp6yHZvw-0" vertex="1">
          <mxGeometry x="60" y="52" width="340" height="190" as="geometry" />
        </mxCell>
        <mxCell id="N2z2kw6uGRIZIay2zsSY-50" value="fn_weather_getAvgASL" style="rounded=1;whiteSpace=wrap;html=1;fontFamily=Lucida Console;fontSize=14;fontStyle=1;align=center;sketch=1;curveFitting=1;jiggle=2;container=0;" parent="fDVFaNoFgKCkYp6yHZvw-0" vertex="1">
          <mxGeometry x="1340" y="708" width="310" height="60" as="geometry" />
        </mxCell>
        <mxCell id="N2z2kw6uGRIZIay2zsSY-53" style="edgeStyle=none;shape=connector;curved=1;rounded=0;sketch=1;jiggle=2;curveFitting=1;orthogonalLoop=1;jettySize=auto;html=1;exitX=0.626;exitY=0;exitDx=0;exitDy=0;entryX=1;entryY=0.75;entryDx=0;entryDy=0;shadow=1;labelBackgroundColor=default;strokeColor=default;strokeWidth=3;align=center;verticalAlign=middle;fontFamily=Lucida Console;fontSize=14;fontColor=default;startArrow=none;startFill=0;endArrow=classic;sourcePerimeterSpacing=5;targetPerimeterSpacing=5;exitPerimeter=0;" parent="fDVFaNoFgKCkYp6yHZvw-0" source="N2z2kw6uGRIZIay2zsSY-35" target="N2z2kw6uGRIZIay2zsSY-46" edge="1">
          <mxGeometry relative="1" as="geometry">
            <Array as="points">
              <mxPoint x="930" y="247" />
            </Array>
          </mxGeometry>
        </mxCell>
        <mxCell id="hYtZj3fwQ0KBCrfdkY-m-0" value="&lt;font style=&quot;font-size: 14px;&quot; face=&quot;Lucida Console&quot;&gt;Global Var ServerOnly&lt;br&gt;CVO_Storm_previous_weather_hashmap&lt;/font&gt;" style="ellipse;whiteSpace=wrap;html=1;sketch=1;curveFitting=1;jiggle=2;" parent="fDVFaNoFgKCkYp6yHZvw-0" vertex="1">
          <mxGeometry x="370" y="747" width="317" height="120" as="geometry" />
        </mxCell>
        <mxCell id="tPFQgd7vZW-GbOvR2g9Y-3" value="&lt;font style=&quot;font-size: 14px;&quot; face=&quot;Lucida Console&quot;&gt;Global Var ServerOnly&lt;br&gt;&lt;span style=&quot;&quot;&gt;CVO_WeatherChanges_active&lt;/span&gt;&lt;br&gt;&lt;/font&gt;" style="ellipse;whiteSpace=wrap;html=1;sketch=1;curveFitting=1;jiggle=2;" parent="fDVFaNoFgKCkYp6yHZvw-0" vertex="1">
          <mxGeometry x="381.5" y="927" width="240" height="120" as="geometry" />
        </mxCell>
        <mxCell id="tPFQgd7vZW-GbOvR2g9Y-12" style="edgeStyle=none;shape=connector;curved=1;rounded=0;sketch=1;jiggle=2;curveFitting=1;orthogonalLoop=1;jettySize=auto;html=1;exitX=0.75;exitY=1;exitDx=0;exitDy=0;entryX=0.25;entryY=0;entryDx=0;entryDy=0;shadow=1;labelBackgroundColor=default;strokeColor=default;strokeWidth=3;align=center;verticalAlign=middle;fontFamily=Lucida Console;fontSize=14;fontColor=default;startArrow=classicThin;startFill=1;endArrow=classic;sourcePerimeterSpacing=5;targetPerimeterSpacing=5;" parent="fDVFaNoFgKCkYp6yHZvw-0" source="tPFQgd7vZW-GbOvR2g9Y-4" target="N2z2kw6uGRIZIay2zsSY-50" edge="1">
          <mxGeometry relative="1" as="geometry" />
        </mxCell>
        <mxCell id="juMGjEx32GAvLLKHNY1u-4" style="edgeStyle=orthogonalEdgeStyle;rounded=0;orthogonalLoop=1;jettySize=auto;html=1;exitX=0.5;exitY=0;exitDx=0;exitDy=0;curved=1;sketch=1;curveFitting=1;jiggle=2;strokeWidth=3;" parent="fDVFaNoFgKCkYp6yHZvw-0" source="tPFQgd7vZW-GbOvR2g9Y-4" target="juMGjEx32GAvLLKHNY1u-3" edge="1">
          <mxGeometry relative="1" as="geometry" />
        </mxCell>
        <mxCell id="tPFQgd7vZW-GbOvR2g9Y-4" value="fn_weather_setFog_recursive_continous" style="rounded=1;whiteSpace=wrap;html=1;fontFamily=Lucida Console;fontSize=14;fontStyle=1;align=center;sketch=1;curveFitting=1;jiggle=2;container=0;" parent="fDVFaNoFgKCkYp6yHZvw-0" vertex="1">
          <mxGeometry x="1110" y="507" width="400" height="60" as="geometry" />
        </mxCell>
        <mxCell id="N2z2kw6uGRIZIay2zsSY-52" style="edgeStyle=none;shape=connector;curved=1;rounded=0;sketch=1;jiggle=2;curveFitting=1;orthogonalLoop=1;jettySize=auto;html=1;exitX=1;exitY=0.5;exitDx=0;exitDy=0;entryX=0.75;entryY=0;entryDx=0;entryDy=0;shadow=1;labelBackgroundColor=default;strokeColor=default;strokeWidth=3;align=center;verticalAlign=middle;fontFamily=Lucida Console;fontSize=14;fontColor=default;startArrow=none;startFill=0;endArrow=classic;sourcePerimeterSpacing=5;targetPerimeterSpacing=5;" parent="fDVFaNoFgKCkYp6yHZvw-0" source="N2z2kw6uGRIZIay2zsSY-46" target="N2z2kw6uGRIZIay2zsSY-35" edge="1">
          <mxGeometry relative="1" as="geometry">
            <Array as="points">
              <mxPoint x="960" y="226" />
            </Array>
          </mxGeometry>
        </mxCell>
        <mxCell id="tPFQgd7vZW-GbOvR2g9Y-8" value="&lt;font style=&quot;font-size: 14px;&quot; face=&quot;Lucida Console&quot;&gt;Global Var ServerOnly&lt;br style=&quot;font-size: 14px;&quot;&gt;&lt;span style=&quot;font-size: 14px;&quot;&gt;GVAR(fogParams)_target&lt;/span&gt;&lt;br style=&quot;font-size: 14px;&quot;&gt;&lt;/font&gt;" style="ellipse;whiteSpace=wrap;html=1;sketch=1;curveFitting=1;jiggle=2;fontSize=14;" parent="fDVFaNoFgKCkYp6yHZvw-0" vertex="1">
          <mxGeometry x="1050" y="687" width="260" height="120" as="geometry" />
        </mxCell>
        <mxCell id="tPFQgd7vZW-GbOvR2g9Y-10" style="edgeStyle=none;shape=connector;curved=1;rounded=0;sketch=1;jiggle=2;curveFitting=1;orthogonalLoop=1;jettySize=auto;html=1;exitX=0.75;exitY=1;exitDx=0;exitDy=0;entryX=0.003;entryY=0.582;entryDx=0;entryDy=0;entryPerimeter=0;shadow=1;labelBackgroundColor=default;strokeColor=default;strokeWidth=3;align=center;verticalAlign=middle;fontFamily=Lucida Console;fontSize=14;fontColor=default;startArrow=none;startFill=0;endArrow=classic;sourcePerimeterSpacing=5;targetPerimeterSpacing=5;" parent="fDVFaNoFgKCkYp6yHZvw-0" source="N2z2kw6uGRIZIay2zsSY-28" target="tPFQgd7vZW-GbOvR2g9Y-8" edge="1">
          <mxGeometry relative="1" as="geometry">
            <Array as="points">
              <mxPoint x="910" y="738" />
            </Array>
          </mxGeometry>
        </mxCell>
        <mxCell id="tPFQgd7vZW-GbOvR2g9Y-13" style="edgeStyle=none;shape=connector;curved=1;rounded=0;sketch=1;jiggle=2;curveFitting=1;orthogonalLoop=1;jettySize=auto;html=1;exitX=0.132;exitY=0.996;exitDx=0;exitDy=0;entryX=0.439;entryY=-0.02;entryDx=0;entryDy=0;entryPerimeter=0;shadow=1;labelBackgroundColor=default;strokeColor=default;strokeWidth=3;align=center;verticalAlign=middle;fontFamily=Lucida Console;fontSize=14;fontColor=default;startArrow=none;startFill=0;endArrow=classic;sourcePerimeterSpacing=5;targetPerimeterSpacing=5;exitPerimeter=0;" parent="fDVFaNoFgKCkYp6yHZvw-0" source="tPFQgd7vZW-GbOvR2g9Y-4" target="tPFQgd7vZW-GbOvR2g9Y-8" edge="1">
          <mxGeometry relative="1" as="geometry" />
        </mxCell>
        <mxCell id="tPFQgd7vZW-GbOvR2g9Y-0" value="Case 1:&lt;br style=&quot;font-size: 12px;&quot;&gt;use baseFog config&lt;br style=&quot;font-size: 12px;&quot;&gt;Condition: &lt;br style=&quot;font-size: 12px;&quot;&gt;use_AvgASL_once == 0 &amp;amp;&amp;amp; use_AvgASL_continous == 0" style="rounded=1;whiteSpace=wrap;html=1;fontSize=12;fontStyle=1;sketch=1;curveFitting=1;jiggle=2;" parent="fDVFaNoFgKCkYp6yHZvw-0" vertex="1">
          <mxGeometry x="1135" y="87" width="350" height="84.42" as="geometry" />
        </mxCell>
        <mxCell id="tPFQgd7vZW-GbOvR2g9Y-1" value="Case 2:&lt;br style=&quot;font-size: 12px;&quot;&gt;use AvgASL once&lt;br style=&quot;font-size: 12px;&quot;&gt;Condition: &lt;br style=&quot;font-size: 12px;&quot;&gt;use_AvgASL_once == 1 &amp;amp;&amp;amp; use_AvgASL_continous == 0" style="rounded=1;whiteSpace=wrap;html=1;fontSize=12;fontStyle=1;sketch=1;curveFitting=1;jiggle=2;" parent="fDVFaNoFgKCkYp6yHZvw-0" vertex="1">
          <mxGeometry x="1135" y="200.96000000000004" width="350" height="84.42" as="geometry" />
        </mxCell>
        <mxCell id="tPFQgd7vZW-GbOvR2g9Y-2" value="Case 3:&lt;br style=&quot;font-size: 12px;&quot;&gt;use AvgASL continous&lt;br style=&quot;font-size: 12px;&quot;&gt;Condition: &lt;br style=&quot;font-size: 12px;&quot;&gt;use_AvgASL_continous == 1" style="rounded=1;whiteSpace=wrap;html=1;fontSize=12;fontStyle=1;sketch=1;curveFitting=1;jiggle=2;" parent="fDVFaNoFgKCkYp6yHZvw-0" vertex="1">
          <mxGeometry x="1135" y="322.5799999999999" width="350" height="84.42" as="geometry" />
        </mxCell>
        <mxCell id="hYtZj3fwQ0KBCrfdkY-m-3" style="edgeStyle=none;shape=connector;curved=1;rounded=0;sketch=1;jiggle=2;curveFitting=1;orthogonalLoop=1;jettySize=auto;html=1;exitX=0.163;exitY=0.998;exitDx=0;exitDy=0;entryX=0.5;entryY=0;entryDx=0;entryDy=0;shadow=1;labelBackgroundColor=default;strokeColor=default;strokeWidth=3;align=center;verticalAlign=middle;fontFamily=Lucida Console;fontSize=14;fontColor=default;startArrow=none;startFill=0;endArrow=classic;sourcePerimeterSpacing=5;targetPerimeterSpacing=5;exitPerimeter=0;" parent="fDVFaNoFgKCkYp6yHZvw-0" source="N2z2kw6uGRIZIay2zsSY-28" target="hYtZj3fwQ0KBCrfdkY-m-0" edge="1">
          <mxGeometry relative="1" as="geometry" />
        </mxCell>
        <mxCell id="tPFQgd7vZW-GbOvR2g9Y-9" style="edgeStyle=none;shape=connector;curved=1;rounded=0;sketch=1;jiggle=2;curveFitting=1;orthogonalLoop=1;jettySize=auto;html=1;entryX=0.5;entryY=0;entryDx=0;entryDy=0;shadow=1;labelBackgroundColor=default;strokeColor=default;strokeWidth=3;align=center;verticalAlign=middle;fontFamily=Lucida Console;fontSize=14;fontColor=default;startArrow=none;startFill=0;endArrow=classic;sourcePerimeterSpacing=5;targetPerimeterSpacing=5;exitX=0.114;exitY=1.033;exitDx=0;exitDy=0;exitPerimeter=0;" parent="fDVFaNoFgKCkYp6yHZvw-0" source="N2z2kw6uGRIZIay2zsSY-28" target="tPFQgd7vZW-GbOvR2g9Y-3" edge="1">
          <mxGeometry relative="1" as="geometry" />
        </mxCell>
        <mxCell id="tPFQgd7vZW-GbOvR2g9Y-11" style="edgeStyle=none;shape=connector;curved=1;rounded=0;sketch=1;jiggle=2;curveFitting=1;orthogonalLoop=1;jettySize=auto;html=1;exitX=0.5;exitY=0;exitDx=0;exitDy=0;entryX=0.25;entryY=1;entryDx=0;entryDy=0;shadow=1;labelBackgroundColor=default;strokeColor=default;strokeWidth=3;align=center;verticalAlign=middle;fontFamily=Lucida Console;fontSize=14;fontColor=default;startArrow=none;startFill=0;endArrow=classic;sourcePerimeterSpacing=5;targetPerimeterSpacing=5;" parent="fDVFaNoFgKCkYp6yHZvw-0" source="tPFQgd7vZW-GbOvR2g9Y-8" target="tPFQgd7vZW-GbOvR2g9Y-4" edge="1">
          <mxGeometry relative="1" as="geometry" />
        </mxCell>
        <mxCell id="fDVFaNoFgKCkYp6yHZvw-1" value="" style="group;movable=1;resizable=1;rotatable=1;deletable=1;editable=1;locked=0;connectable=1;" parent="WIyWlLk6GJQsqaUBKTNV-1" vertex="1" connectable="0">
          <mxGeometry x="-2300" y="3250" width="1440" height="650" as="geometry" />
        </mxCell>
        <mxCell id="fDVFaNoFgKCkYp6yHZvw-2" value="" style="rounded=1;whiteSpace=wrap;html=1;fontFamily=Helvetica;fontSize=11;fillColor=#d5e8d4;strokeColor=#82b366;glass=0;sketch=1;curveFitting=1;jiggle=2;shadow=1;container=0;movable=1;resizable=1;rotatable=1;deletable=1;editable=1;locked=0;connectable=1;" parent="fDVFaNoFgKCkYp6yHZvw-1" vertex="1">
          <mxGeometry width="1440" height="650" as="geometry" />
        </mxCell>
        <mxCell id="fDVFaNoFgKCkYp6yHZvw-3" value="fn_ppEffect_request" style="rounded=1;whiteSpace=wrap;html=1;fontFamily=Lucida Console;fontSize=14;fontStyle=1;align=center;sketch=1;curveFitting=1;jiggle=2;container=0;movable=1;resizable=1;rotatable=1;deletable=1;editable=1;locked=0;connectable=1;" parent="fDVFaNoFgKCkYp6yHZvw-1" vertex="1">
          <mxGeometry x="420" y="510" width="580" height="60" as="geometry" />
        </mxCell>
        <mxCell id="fDVFaNoFgKCkYp6yHZvw-4" value="" style="edgeStyle=none;shape=connector;rounded=0;sketch=1;jiggle=2;curveFitting=1;orthogonalLoop=1;jettySize=auto;html=1;shadow=1;labelBackgroundColor=default;strokeColor=default;strokeWidth=3;align=center;verticalAlign=middle;fontFamily=Lucida Console;fontSize=14;fontColor=default;startArrow=none;startFill=0;endArrow=classic;sourcePerimeterSpacing=5;targetPerimeterSpacing=5;fontStyle=1;movable=1;resizable=1;rotatable=1;deletable=1;editable=1;locked=0;connectable=1;" parent="fDVFaNoFgKCkYp6yHZvw-1" source="fDVFaNoFgKCkYp6yHZvw-5" target="fDVFaNoFgKCkYp6yHZvw-3" edge="1">
          <mxGeometry relative="1" as="geometry" />
        </mxCell>
        <mxCell id="fDVFaNoFgKCkYp6yHZvw-5" value="_pp_effect_Name&lt;br style=&quot;font-size: 14px;&quot;&gt;_duration&lt;br style=&quot;font-size: 14px;&quot;&gt;_intensity" style="rounded=0;whiteSpace=wrap;html=1;sketch=1;curveFitting=1;jiggle=2;fontFamily=Lucida Console;fontSize=14;fontStyle=1;align=center;shape=step;perimeter=stepPerimeter;fixedSize=1;container=0;movable=1;resizable=1;rotatable=1;deletable=1;editable=1;locked=0;connectable=1;" parent="fDVFaNoFgKCkYp6yHZvw-1" vertex="1">
          <mxGeometry x="150" y="500" width="190" height="80" as="geometry" />
        </mxCell>
        <mxCell id="fDVFaNoFgKCkYp6yHZvw-6" value="fnc_ppEffect_get_from_config" style="rounded=1;whiteSpace=wrap;html=1;fontFamily=Lucida Console;fontSize=14;fontStyle=1;align=center;sketch=1;curveFitting=1;jiggle=2;container=0;movable=1;resizable=1;rotatable=1;deletable=1;editable=1;locked=0;connectable=1;" parent="fDVFaNoFgKCkYp6yHZvw-1" vertex="1">
          <mxGeometry x="410" y="330" width="273" height="60" as="geometry" />
        </mxCell>
        <mxCell id="fDVFaNoFgKCkYp6yHZvw-7" style="rounded=0;orthogonalLoop=1;jettySize=auto;html=1;exitX=0.101;exitY=0.006;exitDx=0;exitDy=0;labelBackgroundColor=default;strokeColor=default;align=center;verticalAlign=middle;fontFamily=Lucida Console;fontSize=14;fontColor=default;startArrow=none;endArrow=classic;startFill=0;edgeStyle=orthogonalEdgeStyle;curved=1;entryX=0.25;entryY=1;entryDx=0;entryDy=0;exitPerimeter=0;targetPerimeterSpacing=5;strokeWidth=3;sourcePerimeterSpacing=5;shadow=1;sketch=1;curveFitting=1;jiggle=2;fontStyle=1;movable=1;resizable=1;rotatable=1;deletable=1;editable=1;locked=0;connectable=1;" parent="fDVFaNoFgKCkYp6yHZvw-1" source="fDVFaNoFgKCkYp6yHZvw-3" target="fDVFaNoFgKCkYp6yHZvw-6" edge="1">
          <mxGeometry relative="1" as="geometry" />
        </mxCell>
        <mxCell id="fDVFaNoFgKCkYp6yHZvw-8" value="fnc_ppEffect_remote" style="rounded=1;whiteSpace=wrap;html=1;fontFamily=Lucida Console;fontSize=14;fontStyle=1;align=center;sketch=1;curveFitting=1;jiggle=2;container=0;movable=1;resizable=1;rotatable=1;deletable=1;editable=1;locked=0;connectable=1;" parent="fDVFaNoFgKCkYp6yHZvw-1" vertex="1">
          <mxGeometry x="1080" y="510" width="310" height="60" as="geometry" />
        </mxCell>
        <mxCell id="fDVFaNoFgKCkYp6yHZvw-9" value="" style="edgeStyle=none;shape=connector;rounded=0;sketch=1;jiggle=2;curveFitting=1;orthogonalLoop=1;jettySize=auto;html=1;shadow=1;labelBackgroundColor=default;strokeColor=default;strokeWidth=3;align=center;verticalAlign=middle;fontFamily=Lucida Console;fontSize=14;fontColor=default;startArrow=none;startFill=0;endArrow=classic;sourcePerimeterSpacing=5;targetPerimeterSpacing=5;fontStyle=1;movable=1;resizable=1;rotatable=1;deletable=1;editable=1;locked=0;connectable=1;" parent="fDVFaNoFgKCkYp6yHZvw-1" source="fDVFaNoFgKCkYp6yHZvw-3" target="fDVFaNoFgKCkYp6yHZvw-8" edge="1">
          <mxGeometry relative="1" as="geometry" />
        </mxCell>
        <mxCell id="fDVFaNoFgKCkYp6yHZvw-10" value="fn_ppEffect_convert_intensity" style="rounded=1;whiteSpace=wrap;html=1;fontFamily=Lucida Console;fontSize=14;fontStyle=1;align=center;sketch=1;curveFitting=1;jiggle=2;container=0;movable=1;resizable=1;rotatable=1;deletable=1;editable=1;locked=0;connectable=1;" parent="fDVFaNoFgKCkYp6yHZvw-1" vertex="1">
          <mxGeometry x="703" y="330" width="297" height="60" as="geometry" />
        </mxCell>
        <mxCell id="fDVFaNoFgKCkYp6yHZvw-11" style="edgeStyle=none;shape=connector;rounded=0;sketch=1;jiggle=2;curveFitting=1;orthogonalLoop=1;jettySize=auto;html=1;entryX=0.75;entryY=0;entryDx=0;entryDy=0;shadow=1;labelBackgroundColor=default;strokeColor=default;strokeWidth=3;align=center;verticalAlign=middle;fontFamily=Lucida Console;fontSize=14;fontColor=default;startArrow=none;startFill=0;endArrow=classic;sourcePerimeterSpacing=5;targetPerimeterSpacing=5;exitX=0.5;exitY=1;exitDx=0;exitDy=0;fontStyle=1;movable=1;resizable=1;rotatable=1;deletable=1;editable=1;locked=0;connectable=1;" parent="fDVFaNoFgKCkYp6yHZvw-1" source="fDVFaNoFgKCkYp6yHZvw-18" target="fDVFaNoFgKCkYp6yHZvw-6" edge="1">
          <mxGeometry relative="1" as="geometry" />
        </mxCell>
        <mxCell id="fDVFaNoFgKCkYp6yHZvw-12" style="edgeStyle=none;shape=connector;rounded=0;sketch=1;jiggle=2;curveFitting=1;orthogonalLoop=1;jettySize=auto;html=1;entryX=0.25;entryY=1;entryDx=0;entryDy=0;shadow=1;labelBackgroundColor=default;strokeColor=default;strokeWidth=3;align=center;verticalAlign=middle;fontFamily=Lucida Console;fontSize=14;fontColor=default;startArrow=none;startFill=0;endArrow=classic;sourcePerimeterSpacing=5;targetPerimeterSpacing=5;exitX=0.622;exitY=0.033;exitDx=0;exitDy=0;exitPerimeter=0;fontStyle=1;movable=1;resizable=1;rotatable=1;deletable=1;editable=1;locked=0;connectable=1;" parent="fDVFaNoFgKCkYp6yHZvw-1" source="fDVFaNoFgKCkYp6yHZvw-3" target="fDVFaNoFgKCkYp6yHZvw-10" edge="1">
          <mxGeometry relative="1" as="geometry" />
        </mxCell>
        <mxCell id="fDVFaNoFgKCkYp6yHZvw-13" style="edgeStyle=none;shape=connector;rounded=0;sketch=1;jiggle=2;curveFitting=1;orthogonalLoop=1;jettySize=auto;html=1;exitX=0.75;exitY=1;exitDx=0;exitDy=0;entryX=0.343;entryY=0.017;entryDx=0;entryDy=0;entryPerimeter=0;shadow=1;labelBackgroundColor=default;strokeColor=default;strokeWidth=3;align=center;verticalAlign=middle;fontFamily=Lucida Console;fontSize=14;fontColor=default;startArrow=none;startFill=0;endArrow=classic;sourcePerimeterSpacing=5;targetPerimeterSpacing=5;fontStyle=1;movable=1;resizable=1;rotatable=1;deletable=1;editable=1;locked=0;connectable=1;" parent="fDVFaNoFgKCkYp6yHZvw-1" source="fDVFaNoFgKCkYp6yHZvw-6" target="fDVFaNoFgKCkYp6yHZvw-3" edge="1">
          <mxGeometry relative="1" as="geometry" />
        </mxCell>
        <mxCell id="fDVFaNoFgKCkYp6yHZvw-14" style="edgeStyle=none;shape=connector;rounded=0;sketch=1;jiggle=2;curveFitting=1;orthogonalLoop=1;jettySize=auto;html=1;exitX=0.75;exitY=1;exitDx=0;exitDy=0;entryX=0.886;entryY=-0.03;entryDx=0;entryDy=0;entryPerimeter=0;shadow=1;labelBackgroundColor=default;strokeColor=default;strokeWidth=3;align=center;verticalAlign=middle;fontFamily=Lucida Console;fontSize=14;fontColor=default;startArrow=none;startFill=0;endArrow=classic;sourcePerimeterSpacing=5;targetPerimeterSpacing=5;fontStyle=1;movable=1;resizable=1;rotatable=1;deletable=1;editable=1;locked=0;connectable=1;" parent="fDVFaNoFgKCkYp6yHZvw-1" source="fDVFaNoFgKCkYp6yHZvw-10" target="fDVFaNoFgKCkYp6yHZvw-3" edge="1">
          <mxGeometry relative="1" as="geometry" />
        </mxCell>
        <mxCell id="fDVFaNoFgKCkYp6yHZvw-15" value="" style="group;fillColor=#f8cecc;strokeColor=#b85450;container=0;movable=1;resizable=1;rotatable=1;deletable=1;editable=1;locked=0;connectable=1;" parent="fDVFaNoFgKCkYp6yHZvw-1" vertex="1" connectable="0">
          <mxGeometry x="410" y="50" width="280" height="190" as="geometry" />
        </mxCell>
        <mxCell id="fDVFaNoFgKCkYp6yHZvw-16" style="shape=connector;rounded=0;sketch=1;jiggle=2;curveFitting=1;orthogonalLoop=1;jettySize=auto;html=1;exitX=0.25;exitY=0;exitDx=0;exitDy=0;entryX=0.5;entryY=1;entryDx=0;entryDy=0;shadow=1;labelBackgroundColor=default;strokeColor=default;strokeWidth=3;align=center;verticalAlign=middle;fontFamily=Lucida Console;fontSize=14;fontColor=default;startArrow=none;startFill=0;endArrow=classic;sourcePerimeterSpacing=5;targetPerimeterSpacing=5;fontStyle=1;movable=1;resizable=1;rotatable=1;deletable=1;editable=1;locked=0;connectable=1;" parent="fDVFaNoFgKCkYp6yHZvw-1" source="fDVFaNoFgKCkYp6yHZvw-6" target="fDVFaNoFgKCkYp6yHZvw-18" edge="1">
          <mxGeometry relative="1" as="geometry" />
        </mxCell>
        <mxCell id="fDVFaNoFgKCkYp6yHZvw-17" value="&lt;h1&gt;&lt;font style=&quot;font-size: 20px;&quot;&gt;Post Processing Effects&lt;/font&gt;&lt;/h1&gt;&lt;p&gt;&lt;span style=&quot;font-size: 14px;&quot;&gt;fnc_ppEffect_request handles individual CVO_PP_Effects classes, establishes values based on intensity and then remote executes them on the client.&lt;/span&gt;&lt;/p&gt;" style="text;html=1;strokeColor=default;fillColor=default;spacing=15;spacingTop=-20;whiteSpace=wrap;overflow=hidden;rounded=1;fontSize=11;fontFamily=Lucida Console;fontColor=default;sketch=1;curveFitting=1;jiggle=2;container=0;movable=1;resizable=1;rotatable=1;deletable=1;editable=1;locked=0;connectable=1;" parent="fDVFaNoFgKCkYp6yHZvw-1" vertex="1">
          <mxGeometry x="50" y="50" width="340" height="190" as="geometry" />
        </mxCell>
        <mxCell id="fDVFaNoFgKCkYp6yHZvw-18" value="CVO_PP_Effects" style="rounded=1;whiteSpace=wrap;html=1;spacingTop=10;spacingLeft=10;align=center;verticalAlign=top;sketch=1;curveFitting=1;jiggle=2;fontFamily=Lucida Console;fontSize=14;fontStyle=1;container=0;movable=1;resizable=1;rotatable=1;deletable=1;editable=1;locked=0;connectable=1;" parent="fDVFaNoFgKCkYp6yHZvw-1" vertex="1">
          <mxGeometry x="410" y="50" width="280" height="190" as="geometry" />
        </mxCell>
        <mxCell id="fDVFaNoFgKCkYp6yHZvw-19" value="CVO_DynamicBlur.hpp" style="shape=parallelogram;perimeter=parallelogramPerimeter;whiteSpace=wrap;html=1;fixedSize=1;align=center;spacing=22;sketch=1;curveFitting=1;jiggle=2;fontFamily=Lucida Console;fontSize=14;fontStyle=1;container=0;movable=1;resizable=1;rotatable=1;deletable=1;editable=1;locked=0;connectable=1;" parent="fDVFaNoFgKCkYp6yHZvw-1" vertex="1">
          <mxGeometry x="429.58041958041963" y="90" width="240.83916083916085" height="40" as="geometry" />
        </mxCell>
        <mxCell id="fDVFaNoFgKCkYp6yHZvw-20" value="CVO_FilmGrain.hpp" style="shape=parallelogram;perimeter=parallelogramPerimeter;whiteSpace=wrap;html=1;fixedSize=1;align=center;spacing=22;sketch=1;curveFitting=1;jiggle=2;fontFamily=Lucida Console;fontSize=14;fontStyle=1;container=0;movable=1;resizable=1;rotatable=1;deletable=1;editable=1;locked=0;connectable=1;" parent="fDVFaNoFgKCkYp6yHZvw-1" vertex="1">
          <mxGeometry x="429.58041958041963" y="130" width="240.83916083916085" height="40" as="geometry" />
        </mxCell>
        <mxCell id="fDVFaNoFgKCkYp6yHZvw-21" value="CVO_ColorCorrections.hpp" style="shape=parallelogram;perimeter=parallelogramPerimeter;whiteSpace=wrap;html=1;fixedSize=1;align=center;spacing=22;sketch=1;curveFitting=1;jiggle=2;fontFamily=Lucida Console;fontSize=14;fontStyle=1;container=0;movable=1;resizable=1;rotatable=1;deletable=1;editable=1;locked=0;connectable=1;" parent="fDVFaNoFgKCkYp6yHZvw-1" vertex="1">
          <mxGeometry x="429.58041958041963" y="170" width="240.83916083916085" height="40" as="geometry" />
        </mxCell>
        <mxCell id="aE2ASzNUeNIFsLcNc5l_-0" value="Camera Shake during storm when outside&lt;br&gt;enableCamShake /&amp;nbsp;addCamShake&amp;nbsp;" style="rounded=1;whiteSpace=wrap;html=1;fillColor=#e1d5e7;strokeColor=#9673a6;glass=0;sketch=1;curveFitting=1;jiggle=2;shadow=0;" parent="WIyWlLk6GJQsqaUBKTNV-1" vertex="1">
          <mxGeometry x="-2300" y="660" width="440" height="150" as="geometry" />
        </mxCell>
        <mxCell id="cKyNB1eMBbICheBmmyxn-0" value="Adjust Particle Spawner interval if player FPS below threshold" style="rounded=1;whiteSpace=wrap;html=1;fillColor=#e1d5e7;strokeColor=#9673a6;glass=0;sketch=1;curveFitting=1;jiggle=2;shadow=0;" parent="WIyWlLk6GJQsqaUBKTNV-1" vertex="1">
          <mxGeometry x="-2300" y="827" width="440" height="150" as="geometry" />
        </mxCell>
        <mxCell id="rGZbVkjRCjmaWcljexHG-2" value="" style="edgeStyle=orthogonalEdgeStyle;rounded=0;orthogonalLoop=1;jettySize=auto;html=1;" parent="WIyWlLk6GJQsqaUBKTNV-1" source="rGZbVkjRCjmaWcljexHG-0" target="rGZbVkjRCjmaWcljexHG-1" edge="1">
          <mxGeometry relative="1" as="geometry" />
        </mxCell>
        <mxCell id="rGZbVkjRCjmaWcljexHG-4" style="edgeStyle=orthogonalEdgeStyle;rounded=0;orthogonalLoop=1;jettySize=auto;html=1;" parent="WIyWlLk6GJQsqaUBKTNV-1" source="rGZbVkjRCjmaWcljexHG-0" target="rGZbVkjRCjmaWcljexHG-3" edge="1">
          <mxGeometry relative="1" as="geometry" />
        </mxCell>
        <mxCell id="rGZbVkjRCjmaWcljexHG-11" style="edgeStyle=orthogonalEdgeStyle;rounded=0;orthogonalLoop=1;jettySize=auto;html=1;" parent="WIyWlLk6GJQsqaUBKTNV-1" source="rGZbVkjRCjmaWcljexHG-0" target="rGZbVkjRCjmaWcljexHG-10" edge="1">
          <mxGeometry relative="1" as="geometry" />
        </mxCell>
        <mxCell id="rGZbVkjRCjmaWcljexHG-17" style="edgeStyle=orthogonalEdgeStyle;rounded=0;orthogonalLoop=1;jettySize=auto;html=1;" parent="WIyWlLk6GJQsqaUBKTNV-1" source="rGZbVkjRCjmaWcljexHG-0" target="rGZbVkjRCjmaWcljexHG-15" edge="1">
          <mxGeometry relative="1" as="geometry" />
        </mxCell>
        <mxCell id="rGZbVkjRCjmaWcljexHG-18" style="edgeStyle=orthogonalEdgeStyle;rounded=0;orthogonalLoop=1;jettySize=auto;html=1;" parent="WIyWlLk6GJQsqaUBKTNV-1" source="rGZbVkjRCjmaWcljexHG-0" target="rGZbVkjRCjmaWcljexHG-16" edge="1">
          <mxGeometry relative="1" as="geometry" />
        </mxCell>
        <mxCell id="rGZbVkjRCjmaWcljexHG-37" style="edgeStyle=orthogonalEdgeStyle;rounded=0;orthogonalLoop=1;jettySize=auto;html=1;" parent="WIyWlLk6GJQsqaUBKTNV-1" source="rGZbVkjRCjmaWcljexHG-0" target="rGZbVkjRCjmaWcljexHG-34" edge="1">
          <mxGeometry relative="1" as="geometry" />
        </mxCell>
        <mxCell id="rGZbVkjRCjmaWcljexHG-38" style="edgeStyle=orthogonalEdgeStyle;rounded=0;orthogonalLoop=1;jettySize=auto;html=1;" parent="WIyWlLk6GJQsqaUBKTNV-1" source="rGZbVkjRCjmaWcljexHG-0" target="rGZbVkjRCjmaWcljexHG-36" edge="1">
          <mxGeometry relative="1" as="geometry" />
        </mxCell>
        <mxCell id="rGZbVkjRCjmaWcljexHG-39" style="edgeStyle=orthogonalEdgeStyle;rounded=0;orthogonalLoop=1;jettySize=auto;html=1;" parent="WIyWlLk6GJQsqaUBKTNV-1" source="rGZbVkjRCjmaWcljexHG-0" target="rGZbVkjRCjmaWcljexHG-35" edge="1">
          <mxGeometry relative="1" as="geometry" />
        </mxCell>
        <mxCell id="rGZbVkjRCjmaWcljexHG-0" value="Base Effect&amp;nbsp;&lt;br&gt;of Type as&lt;br&gt;HashMapObject" style="rounded=1;whiteSpace=wrap;html=1;" parent="WIyWlLk6GJQsqaUBKTNV-1" vertex="1">
          <mxGeometry x="3080" y="720" width="120" height="60" as="geometry" />
        </mxCell>
        <mxCell id="rGZbVkjRCjmaWcljexHG-1" value="ServerTime&lt;br&gt;Start" style="rounded=1;whiteSpace=wrap;html=1;" parent="WIyWlLk6GJQsqaUBKTNV-1" vertex="1">
          <mxGeometry x="3400" y="860" width="120" height="60" as="geometry" />
        </mxCell>
        <mxCell id="rGZbVkjRCjmaWcljexHG-3" value="ServerTime&lt;br&gt;End" style="rounded=1;whiteSpace=wrap;html=1;" parent="WIyWlLk6GJQsqaUBKTNV-1" vertex="1">
          <mxGeometry x="3400" y="920" width="120" height="60" as="geometry" />
        </mxCell>
        <mxCell id="rGZbVkjRCjmaWcljexHG-10" value="isActive" style="rounded=1;whiteSpace=wrap;html=1;" parent="WIyWlLk6GJQsqaUBKTNV-1" vertex="1">
          <mxGeometry x="3560" y="860" width="120" height="60" as="geometry" />
        </mxCell>
        <mxCell id="rGZbVkjRCjmaWcljexHG-12" value="isTransitioning" style="rounded=1;whiteSpace=wrap;html=1;" parent="WIyWlLk6GJQsqaUBKTNV-1" vertex="1">
          <mxGeometry x="4040" y="599" width="120" height="60" as="geometry" />
        </mxCell>
        <mxCell id="rGZbVkjRCjmaWcljexHG-13" style="edgeStyle=orthogonalEdgeStyle;rounded=0;orthogonalLoop=1;jettySize=auto;html=1;" parent="WIyWlLk6GJQsqaUBKTNV-1" source="rGZbVkjRCjmaWcljexHG-0" target="rGZbVkjRCjmaWcljexHG-12" edge="1">
          <mxGeometry relative="1" as="geometry" />
        </mxCell>
        <mxCell id="rGZbVkjRCjmaWcljexHG-14" value="&lt;h1&gt;Persistent Clientside Effects&lt;/h1&gt;&lt;div&gt;These are Clientside Effects that are being executed with a certain percistency&lt;/div&gt;&lt;div&gt;some need to be handled and maintained by a loop&lt;br&gt;&lt;br&gt;Others just need to be applied during the beginning of the transition, but all of those need to be transfered/handled to a joining client.&lt;/div&gt;&lt;div&gt;&lt;br&gt;&lt;/div&gt;&lt;div&gt;&lt;br&gt;&lt;/div&gt;" style="text;html=1;spacing=5;spacingTop=-20;whiteSpace=wrap;overflow=hidden;rounded=0;" parent="WIyWlLk6GJQsqaUBKTNV-1" vertex="1">
          <mxGeometry x="2510" y="659" width="583.33" height="200" as="geometry" />
        </mxCell>
        <mxCell id="rGZbVkjRCjmaWcljexHG-15" value="PresetName" style="rounded=1;whiteSpace=wrap;html=1;" parent="WIyWlLk6GJQsqaUBKTNV-1" vertex="1">
          <mxGeometry x="3240" y="860" width="120" height="60" as="geometry" />
        </mxCell>
        <mxCell id="rGZbVkjRCjmaWcljexHG-16" value="Effect Type" style="rounded=1;whiteSpace=wrap;html=1;" parent="WIyWlLk6GJQsqaUBKTNV-1" vertex="1">
          <mxGeometry x="3240" y="920" width="120" height="60" as="geometry" />
        </mxCell>
        <mxCell id="rGZbVkjRCjmaWcljexHG-22" value="&lt;span style=&quot;white-space: pre;&quot;&gt;&#x9;&lt;/span&gt;FX Sounds 3D Local" style="swimlane;fontStyle=0;childLayout=stackLayout;horizontal=1;startSize=30;horizontalStack=0;resizeParent=1;resizeParentMax=0;resizeLast=0;collapsible=1;marginBottom=0;whiteSpace=wrap;html=1;fillColor=#dae8fc;strokeColor=#000000;verticalAlign=top;align=left;swimlaneFillColor=#99CCFF;perimeterSpacing=2;strokeWidth=4;swimlaneLine=1;" parent="WIyWlLk6GJQsqaUBKTNV-1" vertex="1">
          <mxGeometry x="1100" y="800" width="440" height="1410" as="geometry">
            <mxRectangle x="2200" y="750" width="150" height="30" as="alternateBounds" />
          </mxGeometry>
        </mxCell>
        <mxCell id="rGZbVkjRCjmaWcljexHG-43" value="Intensity: Distance &amp;amp; Delay" style="text;strokeColor=#000000;fillColor=none;align=left;verticalAlign=middle;spacingLeft=4;spacingRight=4;overflow=hidden;points=[[0,0.5],[1,0.5]];portConstraint=eastwest;rotatable=0;whiteSpace=wrap;html=1;swimlaneLine=1;strokeWidth=4;" parent="rGZbVkjRCjmaWcljexHG-22" vertex="1">
          <mxGeometry y="30" width="440" height="30" as="geometry" />
        </mxCell>
        <mxCell id="rGZbVkjRCjmaWcljexHG-47" value="#flags: [&quot;noCopy&quot;, &quot;unscheduled&quot;]" style="text;strokeColor=#000000;fillColor=none;align=left;verticalAlign=middle;spacingLeft=4;spacingRight=4;overflow=hidden;points=[[0,0.5],[1,0.5]];portConstraint=eastwest;rotatable=0;whiteSpace=wrap;html=1;swimlaneLine=1;strokeWidth=4;" parent="rGZbVkjRCjmaWcljexHG-22" vertex="1">
          <mxGeometry y="60" width="440" height="30" as="geometry" />
        </mxCell>
        <mxCell id="rGZbVkjRCjmaWcljexHG-48" value="#str: { [ADDON,HMO,_presetName] joinString &quot;_&quot; }" style="text;strokeColor=#000000;fillColor=none;align=left;verticalAlign=middle;spacingLeft=4;spacingRight=4;overflow=hidden;points=[[0,0.5],[1,0.5]];portConstraint=eastwest;rotatable=0;whiteSpace=wrap;html=1;swimlaneLine=1;strokeWidth=4;" parent="rGZbVkjRCjmaWcljexHG-22" vertex="1">
          <mxGeometry y="90" width="440" height="30" as="geometry" />
        </mxCell>
        <mxCell id="rGZbVkjRCjmaWcljexHG-23" value="&lt;b&gt;#Create:&lt;/b&gt;&lt;br&gt;Input: [_presetName, _startTime, _duration, Target Intensity]&amp;nbsp;&lt;br&gt;&lt;br&gt;store PresetName (_presetName)&lt;br&gt;store name --&amp;gt; from Config&lt;br&gt;&lt;br&gt;store EffectType COMPONENT&lt;br&gt;&lt;br&gt;Store Intensity_Start &lt;span style=&quot;&quot;&gt;&lt;span style=&quot;&quot;&gt;&amp;nbsp;&amp;nbsp;&amp;nbsp;&amp;nbsp;&lt;/span&gt;&lt;/span&gt;(0)&lt;br&gt;Store Intensity_Target &lt;span style=&quot;&quot;&gt;&lt;span style=&quot;&quot;&gt;&amp;nbsp;&amp;nbsp;&amp;nbsp;&amp;nbsp;&lt;/span&gt;&lt;/span&gt;_targetIntensity&lt;br&gt;Store Intensity_Current (0.001)&lt;br&gt;&lt;br&gt;Store serverTime_Start &lt;span style=&quot;&quot;&gt;&lt;span style=&quot;&quot;&gt;&amp;nbsp;&amp;nbsp;&amp;nbsp;&amp;nbsp;&lt;/span&gt;&lt;/span&gt;(_startTime)&lt;br&gt;Store serverTime_End &lt;span style=&quot;&quot;&gt;&lt;span style=&quot;&quot;&gt;&amp;nbsp;&amp;nbsp;&amp;nbsp;&amp;nbsp;&lt;/span&gt;&lt;/span&gt;(_startTime + _duration)&lt;br&gt;&lt;br&gt;Store isActive (true)&lt;br&gt;&lt;br&gt;createVehicleLocal _Helper&lt;br&gt;Store HelperObj&lt;br&gt;&lt;br&gt;Store soundArrayFull&lt;span style=&quot;&quot;&gt;&lt;span style=&quot;&quot;&gt;&amp;nbsp;&amp;nbsp;&amp;nbsp;&amp;nbsp;&lt;/span&gt;&lt;/span&gt;&lt;span style=&quot;&quot;&gt;&lt;span style=&quot;&quot;&gt;&amp;nbsp;&amp;nbsp;&amp;nbsp;&amp;nbsp;&lt;/span&gt;&lt;/span&gt;--&amp;gt; from Config&lt;br&gt;Store soundArrayCurrent [] emptyArray&lt;br&gt;Store soundArrayPrevious []&lt;span style=&quot;&quot;&gt;&lt;span style=&quot;white-space: pre;&quot;&gt;&amp;nbsp;&amp;nbsp;&amp;nbsp;&amp;nbsp;&lt;/span&gt;&lt;/span&gt;emptyArray&lt;div&gt;&lt;br&gt;Store DelayMin&lt;span style=&quot;&quot;&gt;&lt;span style=&quot;&quot;&gt;&amp;nbsp; &amp;nbsp; &amp;nbsp; &amp;nbsp; &amp;nbsp; &amp;nbsp;&lt;/span&gt;&lt;/span&gt;--&amp;gt; from Config&lt;br&gt;Store DelayMax&lt;span style=&quot;&quot;&gt;&lt;span style=&quot;&quot;&gt;&amp;nbsp;&amp;nbsp;&amp;nbsp;&amp;nbsp;&lt;/span&gt;&lt;/span&gt;&amp;nbsp; &amp;nbsp; --&amp;gt; from Config&lt;br&gt;&lt;br&gt;Store DistanceMin&lt;span style=&quot;&quot;&gt;&lt;span style=&quot;&quot;&gt;&amp;nbsp;&amp;nbsp;&amp;nbsp;&amp;nbsp;&lt;/span&gt;&lt;/span&gt;&lt;span style=&quot;&quot;&gt;&lt;span style=&quot;&quot;&gt;&amp;nbsp;&amp;nbsp;&amp;nbsp;&lt;/span&gt;&lt;/span&gt;--&amp;gt; from Config&lt;br&gt;Store DistanceMax&lt;span style=&quot;&quot;&gt;&lt;span style=&quot;&quot;&gt;&amp;nbsp;&amp;nbsp;&amp;nbsp;&amp;nbsp;&lt;/span&gt;&lt;/span&gt;&lt;span style=&quot;&quot;&gt;&lt;span style=&quot;&quot;&gt;&amp;nbsp;&amp;nbsp;&lt;/span&gt;&lt;/span&gt;--&amp;gt; from Config&lt;br&gt;&lt;br&gt;Store Direction &lt;span style=&quot;&quot;&gt;&lt;span style=&quot;&quot;&gt;&amp;nbsp;&amp;nbsp;&amp;nbsp;&amp;nbsp;&lt;/span&gt;&lt;/span&gt;&lt;span style=&quot;&quot;&gt;&lt;span style=&quot;&quot;&gt;&amp;nbsp;&amp;nbsp;&amp;nbsp;&amp;nbsp;&lt;span style=&quot;&quot;&gt;&lt;span style=&quot;&quot;&gt;&amp;nbsp;&amp;nbsp;&amp;nbsp;&amp;nbsp;&lt;/span&gt;&lt;/span&gt;&lt;/span&gt;&lt;/span&gt;--&amp;gt; from Config&lt;br&gt;&lt;br&gt;At the end:&lt;br&gt;if &lt;b&gt;isNil QPVAR(C_&lt;/b&gt;&lt;b style=&quot;border-color: var(--border-color);&quot;&gt;FX_&lt;/b&gt;&lt;b&gt;Array) then { PVAR(C_FX_Array) = [] };&lt;/b&gt;&lt;br&gt;PVAR(C_&lt;b style=&quot;border-color: var(--border-color);&quot;&gt;FX_&lt;/b&gt;Array) pushBack _self;&lt;br&gt;&lt;br&gt;// Execute next frame to avoid a start of intensity == 0 on the first itteration&lt;br&gt;_self call [&quot;Meth_Loop&quot;, []];&lt;br&gt;&lt;br&gt;&lt;/div&gt;" style="text;strokeColor=#000000;fillColor=none;align=left;verticalAlign=top;spacingLeft=4;spacingRight=4;overflow=hidden;points=[[0,0.5],[1,0.5]];portConstraint=eastwest;rotatable=0;whiteSpace=wrap;html=1;swimlaneLine=1;strokeWidth=4;" parent="rGZbVkjRCjmaWcljexHG-22" vertex="1">
          <mxGeometry y="120" width="440" height="580" as="geometry" />
        </mxCell>
        <mxCell id="rGZbVkjRCjmaWcljexHG-25" value="&lt;b&gt;#Delete:&lt;br&gt;&lt;br&gt;deleteVehicle (_self get HelperObj)&lt;br&gt;PVAR(C_&lt;/b&gt;&lt;b style=&quot;border-color: var(--border-color);&quot;&gt;FX_&lt;/b&gt;&lt;b&gt;Array) =&amp;nbsp;&lt;/b&gt;&lt;b style=&quot;border-color: var(--border-color);&quot;&gt;PVAR(C_&lt;b style=&quot;border-color: var(--border-color);&quot;&gt;FX_&lt;/b&gt;Array) - [_self]&lt;/b&gt;&lt;b&gt;;&lt;br&gt;if count PVAR(_FX_Array) == 0 then PVAR(C_FX_ARRAY) = nil;&lt;br&gt;&lt;br&gt;&lt;br&gt;&lt;/b&gt;" style="text;strokeColor=#000000;fillColor=none;align=left;verticalAlign=top;spacingLeft=4;spacingRight=4;overflow=hidden;points=[[0,0.5],[1,0.5]];portConstraint=eastwest;rotatable=0;whiteSpace=wrap;html=1;swimlaneLine=1;strokeWidth=4;" parent="rGZbVkjRCjmaWcljexHG-22" vertex="1">
          <mxGeometry y="700" width="440" height="90" as="geometry" />
        </mxCell>
        <mxCell id="rGZbVkjRCjmaWcljexHG-24" value="&lt;b&gt;Meth_Loop:&lt;/b&gt;&lt;br&gt;// ensures previous sound will be completed and doesnt get cut off&lt;br&gt;If !isActive exitWith ( _self = nil)&lt;br&gt;&lt;br&gt;&lt;br&gt;Establish Current Intensity based on ServerTime/Start/End&lt;br&gt;(if Intensity == 0, set isActive to false)&lt;br&gt;&lt;br&gt;&lt;br&gt;Establish Distance _currentIntensity &amp;amp; MinMax Distance + random&lt;br&gt;&lt;br&gt;Establish Direction&lt;br&gt;&lt;br&gt;Position Helper,&lt;br&gt;&lt;br&gt;Establish _sound and manage the SoundArrays&lt;br&gt;&lt;br&gt;_sayObj = helper say3d select sound&lt;div&gt;&lt;br&gt;&lt;br&gt;Establish delay based on _currentIntensity &amp;amp; MinMax Delay + random&lt;br&gt;&lt;br&gt;waitUntil _sayObj isEqualTo objNull&lt;br&gt;&lt;br&gt;{&lt;br&gt;if (isNil _thisHMO) exitWith {};&lt;br&gt;}&lt;br&gt;WaitAndExecute Recursive Call&lt;/div&gt;" style="text;strokeColor=#000000;fillColor=none;align=left;verticalAlign=top;spacingLeft=4;spacingRight=4;overflow=hidden;points=[[0,0.5],[1,0.5]];portConstraint=eastwest;rotatable=0;whiteSpace=wrap;html=1;swimlaneLine=1;strokeWidth=4;" parent="rGZbVkjRCjmaWcljexHG-22" vertex="1">
          <mxGeometry y="790" width="440" height="450" as="geometry" />
        </mxCell>
        <mxCell id="rGZbVkjRCjmaWcljexHG-49" value="&lt;b&gt;Meth_Update:&lt;br&gt;&lt;/b&gt;&lt;div&gt;&lt;br&gt;[_presetName,_startTime, _duration,_intensity]&lt;br&gt;&lt;br&gt;Store Intensity_Start&amp;nbsp;&lt;span style=&quot;&quot;&gt;&amp;nbsp;&amp;nbsp;&amp;nbsp;&amp;nbsp;&lt;span style=&quot;white-space: pre;&quot;&gt;&#x9;&lt;/span&gt;&lt;/span&gt;(Intensity_Current)&lt;br style=&quot;border-color: var(--border-color);&quot;&gt;Store Intensity_Target&amp;nbsp;&lt;span style=&quot;border-color: var(--border-color);&quot;&gt;&lt;span style=&quot;&quot;&gt;&amp;nbsp;&amp;nbsp;&amp;nbsp;&amp;nbsp;&lt;/span&gt;&lt;/span&gt;_targetIntensity&lt;br style=&quot;border-color: var(--border-color);&quot;&gt;&lt;br&gt;Store serverTime_Start&amp;nbsp;&lt;span style=&quot;white-space: pre;&quot;&gt;&#x9;&lt;/span&gt;&amp;nbsp;&lt;span style=&quot;border-color: var(--border-color);&quot;&gt;&lt;/span&gt;(_startTime)&lt;br style=&quot;border-color: var(--border-color);&quot;&gt;Store serverTime_End&amp;nbsp;&lt;span style=&quot;border-color: var(--border-color);&quot;&gt;&lt;span style=&quot;border-color: var(--border-color);&quot;&gt;&amp;nbsp;&amp;nbsp;&amp;nbsp;&amp;nbsp;&lt;/span&gt;&lt;/span&gt;(_startTime + _duration)&lt;br style=&quot;border-color: var(--border-color);&quot;&gt;&lt;br&gt;&lt;/div&gt;" style="text;strokeColor=#000000;fillColor=none;align=left;verticalAlign=top;spacingLeft=4;spacingRight=4;overflow=hidden;points=[[0,0.5],[1,0.5]];portConstraint=eastwest;rotatable=0;whiteSpace=wrap;html=1;swimlaneLine=1;strokeWidth=4;" parent="rGZbVkjRCjmaWcljexHG-22" vertex="1">
          <mxGeometry y="1240" width="440" height="170" as="geometry" />
        </mxCell>
        <mxCell id="rGZbVkjRCjmaWcljexHG-26" value="FX Particles" style="swimlane;fontStyle=0;childLayout=stackLayout;horizontal=1;startSize=30;horizontalStack=0;resizeParent=1;resizeParentMax=0;resizeLast=0;collapsible=1;marginBottom=0;whiteSpace=wrap;html=1;fillColor=#dae8fc;strokeColor=#6c8ebf;" parent="WIyWlLk6GJQsqaUBKTNV-1" vertex="1">
          <mxGeometry x="3110" y="1200" width="260" height="120" as="geometry" />
        </mxCell>
        <mxCell id="rGZbVkjRCjmaWcljexHG-27" value="Item 1" style="text;strokeColor=none;fillColor=none;align=left;verticalAlign=middle;spacingLeft=4;spacingRight=4;overflow=hidden;points=[[0,0.5],[1,0.5]];portConstraint=eastwest;rotatable=0;whiteSpace=wrap;html=1;" parent="rGZbVkjRCjmaWcljexHG-26" vertex="1">
          <mxGeometry y="30" width="260" height="30" as="geometry" />
        </mxCell>
        <mxCell id="rGZbVkjRCjmaWcljexHG-28" value="Item 2" style="text;strokeColor=none;fillColor=none;align=left;verticalAlign=middle;spacingLeft=4;spacingRight=4;overflow=hidden;points=[[0,0.5],[1,0.5]];portConstraint=eastwest;rotatable=0;whiteSpace=wrap;html=1;" parent="rGZbVkjRCjmaWcljexHG-26" vertex="1">
          <mxGeometry y="60" width="260" height="30" as="geometry" />
        </mxCell>
        <mxCell id="rGZbVkjRCjmaWcljexHG-29" value="Item 3" style="text;strokeColor=none;fillColor=none;align=left;verticalAlign=middle;spacingLeft=4;spacingRight=4;overflow=hidden;points=[[0,0.5],[1,0.5]];portConstraint=eastwest;rotatable=0;whiteSpace=wrap;html=1;" parent="rGZbVkjRCjmaWcljexHG-26" vertex="1">
          <mxGeometry y="90" width="260" height="30" as="geometry" />
        </mxCell>
        <mxCell id="rGZbVkjRCjmaWcljexHG-30" value="FX Post Processing" style="swimlane;fontStyle=0;childLayout=stackLayout;horizontal=1;startSize=30;horizontalStack=0;resizeParent=1;resizeParentMax=0;resizeLast=0;collapsible=1;marginBottom=0;whiteSpace=wrap;html=1;fillColor=#dae8fc;strokeColor=#6c8ebf;" parent="WIyWlLk6GJQsqaUBKTNV-1" vertex="1">
          <mxGeometry x="3400" y="1200" width="260" height="140" as="geometry" />
        </mxCell>
        <mxCell id="rGZbVkjRCjmaWcljexHG-31" value="Establish PP Effect" style="text;strokeColor=none;fillColor=none;align=center;verticalAlign=middle;spacingLeft=4;spacingRight=4;overflow=hidden;points=[[0,0.5],[1,0.5]];portConstraint=eastwest;rotatable=0;whiteSpace=wrap;html=1;" parent="rGZbVkjRCjmaWcljexHG-30" vertex="1">
          <mxGeometry y="30" width="260" height="30" as="geometry" />
        </mxCell>
        <mxCell id="rGZbVkjRCjmaWcljexHG-32" value="Provide Effect Array&lt;div&gt;&lt;br&gt;&lt;/div&gt;" style="text;strokeColor=none;fillColor=none;align=center;verticalAlign=middle;spacingLeft=4;spacingRight=4;overflow=hidden;points=[[0,0.5],[1,0.5]];portConstraint=eastwest;rotatable=0;whiteSpace=wrap;html=1;" parent="rGZbVkjRCjmaWcljexHG-30" vertex="1">
          <mxGeometry y="60" width="260" height="30" as="geometry" />
        </mxCell>
        <mxCell id="rGZbVkjRCjmaWcljexHG-33" value="Transition from Current to Target over Time&lt;br&gt;(min 10 secounds)" style="text;strokeColor=none;fillColor=none;align=center;verticalAlign=middle;spacingLeft=4;spacingRight=4;overflow=hidden;points=[[0,0.5],[1,0.5]];portConstraint=eastwest;rotatable=0;whiteSpace=wrap;html=1;" parent="rGZbVkjRCjmaWcljexHG-30" vertex="1">
          <mxGeometry y="90" width="260" height="50" as="geometry" />
        </mxCell>
        <mxCell id="rGZbVkjRCjmaWcljexHG-34" value="Intensity&lt;br&gt;Start" style="rounded=1;whiteSpace=wrap;html=1;" parent="WIyWlLk6GJQsqaUBKTNV-1" vertex="1">
          <mxGeometry x="3710" y="860" width="120" height="60" as="geometry" />
        </mxCell>
        <mxCell id="rGZbVkjRCjmaWcljexHG-35" value="Intensity&lt;br&gt;Target" style="rounded=1;whiteSpace=wrap;html=1;" parent="WIyWlLk6GJQsqaUBKTNV-1" vertex="1">
          <mxGeometry x="3710" y="980" width="120" height="60" as="geometry" />
        </mxCell>
        <mxCell id="rGZbVkjRCjmaWcljexHG-36" value="Intensity&lt;br&gt;Current" style="rounded=1;whiteSpace=wrap;html=1;" parent="WIyWlLk6GJQsqaUBKTNV-1" vertex="1">
          <mxGeometry x="3710" y="920" width="120" height="60" as="geometry" />
        </mxCell>
        <mxCell id="rGZbVkjRCjmaWcljexHG-54" value="Preset_HMO" style="rounded=1;whiteSpace=wrap;html=1;" parent="WIyWlLk6GJQsqaUBKTNV-1" vertex="1">
          <mxGeometry x="1145" y="740" width="350" height="60" as="geometry" />
        </mxCell>
        <mxCell id="rGZbVkjRCjmaWcljexHG-62" value="CLIENTSIDE" style="rounded=1;whiteSpace=wrap;html=1;horizontal=0;fontSize=30;fontStyle=1" parent="WIyWlLk6GJQsqaUBKTNV-1" vertex="1">
          <mxGeometry x="930" y="370" width="93.33" height="1840" as="geometry" />
        </mxCell>
        <mxCell id="rGZbVkjRCjmaWcljexHG-69" style="edgeStyle=orthogonalEdgeStyle;rounded=0;orthogonalLoop=1;jettySize=auto;html=1;fontFamily=Helvetica;fontSize=12;fontColor=default;fontStyle=0;" parent="WIyWlLk6GJQsqaUBKTNV-1" source="rGZbVkjRCjmaWcljexHG-63" target="rGZbVkjRCjmaWcljexHG-22" edge="1">
          <mxGeometry relative="1" as="geometry" />
        </mxCell>
        <mxCell id="rGZbVkjRCjmaWcljexHG-63" value="FUNC(REMOTE)" style="swimlane;fontStyle=0;childLayout=stackLayout;horizontal=1;startSize=30;horizontalStack=0;resizeParent=1;resizeParentMax=0;resizeLast=0;collapsible=1;marginBottom=0;whiteSpace=wrap;html=1;fillColor=#dae8fc;strokeColor=#000000;verticalAlign=top;align=left;swimlaneFillColor=#99CCFF;perimeterSpacing=2;strokeWidth=4;swimlaneLine=1;" parent="WIyWlLk6GJQsqaUBKTNV-1" vertex="1">
          <mxGeometry x="1160" y="420" width="320" height="310" as="geometry" />
        </mxCell>
        <mxCell id="rGZbVkjRCjmaWcljexHG-64" value="&lt;div style=&quot;border-color: var(--border-color);&quot;&gt;params [&quot;_presetName&quot;, &quot;_startTime&quot;, &quot;_duration&quot;, &quot;_intensity&quot;];&lt;/div&gt;&lt;div&gt;&lt;br&gt;&lt;/div&gt;" style="text;strokeColor=none;fillColor=none;align=left;verticalAlign=middle;spacingLeft=4;spacingRight=4;overflow=hidden;points=[[0,0.5],[1,0.5]];portConstraint=eastwest;rotatable=0;whiteSpace=wrap;html=1;" parent="rGZbVkjRCjmaWcljexHG-63" vertex="1">
          <mxGeometry y="30" width="320" height="30" as="geometry" />
        </mxCell>
        <mxCell id="rGZbVkjRCjmaWcljexHG-65" value="_varName = [ADDON,HMO,_presetName]joinString &quot;_&quot;;&lt;br style=&quot;border-color: var(--border-color);&quot;&gt;&lt;br style=&quot;border-color: var(--border-color);&quot;&gt;_hmo = missionNamespace getVariable [_varName, &quot;404&quot;];&lt;br style=&quot;border-color: var(--border-color);&quot;&gt;&lt;br style=&quot;border-color: var(--border-color);&quot;&gt;if _hmo isEqualTo &quot;404&quot; then {&lt;br style=&quot;border-color: var(--border-color);&quot;&gt;&lt;span style=&quot;border-color: var(--border-color);&quot;&gt;&lt;/span&gt;// create new HMO&lt;br style=&quot;border-color: var(--border-color);&quot;&gt;} else {&lt;br style=&quot;border-color: var(--border-color);&quot;&gt;&lt;span style=&quot;border-color: var(--border-color);&quot;&gt;&lt;span style=&quot;border-color: var(--border-color);&quot;&gt;&amp;nbsp;&amp;nbsp;&amp;nbsp;&amp;nbsp;&lt;/span&gt;&lt;/span&gt;// update existing&lt;br style=&quot;border-color: var(--border-color);&quot;&gt;&lt;span style=&quot;border-color: var(--border-color);&quot;&gt;&lt;span style=&quot;border-color: var(--border-color);&quot;&gt;&amp;nbsp;&amp;nbsp;&amp;nbsp;&amp;nbsp;&lt;/span&gt;&lt;/span&gt;_hmo call [&quot;Meth_Update&quot;, _this];&lt;br style=&quot;border-color: var(--border-color);&quot;&gt;};" style="text;strokeColor=none;fillColor=none;align=left;verticalAlign=middle;spacingLeft=4;spacingRight=4;overflow=hidden;points=[[0,0.5],[1,0.5]];portConstraint=eastwest;rotatable=0;whiteSpace=wrap;html=1;" parent="rGZbVkjRCjmaWcljexHG-63" vertex="1">
          <mxGeometry y="60" width="320" height="250" as="geometry" />
        </mxCell>
        <mxCell id="rGZbVkjRCjmaWcljexHG-68" value="SERVER SIDE" style="rounded=1;whiteSpace=wrap;html=1;horizontal=0;fontStyle=1;fontSize=30;" parent="WIyWlLk6GJQsqaUBKTNV-1" vertex="1">
          <mxGeometry x="930" y="-140" width="93.33" height="490" as="geometry" />
        </mxCell>
        <mxCell id="rGZbVkjRCjmaWcljexHG-71" value="FUNC(Request)" style="swimlane;fontStyle=0;childLayout=stackLayout;horizontal=1;startSize=30;horizontalStack=0;resizeParent=1;resizeParentMax=0;resizeLast=0;collapsible=1;marginBottom=0;whiteSpace=wrap;html=1;fillColor=#dae8fc;strokeColor=#000000;verticalAlign=top;align=left;swimlaneFillColor=#99CCFF;perimeterSpacing=2;strokeWidth=4;swimlaneLine=1;" parent="WIyWlLk6GJQsqaUBKTNV-1" vertex="1">
          <mxGeometry x="1095" y="-75" width="450" height="360" as="geometry" />
        </mxCell>
        <mxCell id="rGZbVkjRCjmaWcljexHG-72" value="&lt;div style=&quot;border-color: var(--border-color);&quot;&gt;params [&quot;_presetName&quot;, &quot;_duration&quot;, &quot;_intensity&quot;];&lt;/div&gt;&lt;div&gt;&lt;br&gt;&lt;/div&gt;" style="text;strokeColor=none;fillColor=none;align=left;verticalAlign=middle;spacingLeft=4;spacingRight=4;overflow=hidden;points=[[0,0.5],[1,0.5]];portConstraint=eastwest;rotatable=0;whiteSpace=wrap;html=1;" parent="rGZbVkjRCjmaWcljexHG-71" vertex="1">
          <mxGeometry y="30" width="450" height="80" as="geometry" />
        </mxCell>
        <mxCell id="rGZbVkjRCjmaWcljexHG-73" value="Create String to be used as JIP and GVAR(S_FX_Sound_activeEffects)&lt;br&gt;&lt;div&gt;&lt;br/&gt;&lt;/div&gt;" style="text;strokeColor=none;fillColor=none;align=left;verticalAlign=middle;spacingLeft=4;spacingRight=4;overflow=hidden;points=[[0,0.5],[1,0.5]];portConstraint=eastwest;rotatable=0;whiteSpace=wrap;html=1;" parent="rGZbVkjRCjmaWcljexHG-71" vertex="1">
          <mxGeometry y="110" width="450" height="250" as="geometry" />
        </mxCell>
        <mxCell id="rGZbVkjRCjmaWcljexHG-74" value="Limitation: &lt;br&gt;There can be only one active FX_Sound per presetName" style="rounded=1;whiteSpace=wrap;html=1;strokeColor=#82b366;strokeWidth=4;align=left;verticalAlign=top;swimlaneFillColor=#99CCFF;fontFamily=Helvetica;fontSize=12;fontStyle=0;fillColor=#d5e8d4;" parent="WIyWlLk6GJQsqaUBKTNV-1" vertex="1">
          <mxGeometry x="1155" y="-310" width="330" height="40" as="geometry" />
        </mxCell>
        <mxCell id="v-bgBQz-u3DvL2Q_WB0F-1" value="&lt;span style=&quot;white-space: pre;&quot;&gt;&#x9;&lt;/span&gt;FX Particle" style="swimlane;fontStyle=0;childLayout=stackLayout;horizontal=1;startSize=30;horizontalStack=0;resizeParent=1;resizeParentMax=0;resizeLast=0;collapsible=1;marginBottom=0;whiteSpace=wrap;html=1;fillColor=#dae8fc;strokeColor=#000000;verticalAlign=top;align=left;swimlaneFillColor=#99CCFF;perimeterSpacing=2;strokeWidth=4;swimlaneLine=1;" parent="WIyWlLk6GJQsqaUBKTNV-1" vertex="1">
          <mxGeometry x="1790" y="800" width="750" height="1900" as="geometry">
            <mxRectangle x="2200" y="750" width="150" height="30" as="alternateBounds" />
          </mxGeometry>
        </mxCell>
        <mxCell id="v-bgBQz-u3DvL2Q_WB0F-2" value="Intensity: DropInterval" style="text;strokeColor=#000000;fillColor=none;align=left;verticalAlign=middle;spacingLeft=4;spacingRight=4;overflow=hidden;points=[[0,0.5],[1,0.5]];portConstraint=eastwest;rotatable=0;whiteSpace=wrap;html=1;swimlaneLine=1;strokeWidth=4;" parent="v-bgBQz-u3DvL2Q_WB0F-1" vertex="1">
          <mxGeometry y="30" width="750" height="30" as="geometry" />
        </mxCell>
        <mxCell id="v-bgBQz-u3DvL2Q_WB0F-3" value="#flags: [&quot;noCopy&quot;, &quot;unscheduled&quot;]" style="text;strokeColor=#000000;fillColor=none;align=left;verticalAlign=middle;spacingLeft=4;spacingRight=4;overflow=hidden;points=[[0,0.5],[1,0.5]];portConstraint=eastwest;rotatable=0;whiteSpace=wrap;html=1;swimlaneLine=1;strokeWidth=4;" parent="v-bgBQz-u3DvL2Q_WB0F-1" vertex="1">
          <mxGeometry y="60" width="750" height="30" as="geometry" />
        </mxCell>
        <mxCell id="v-bgBQz-u3DvL2Q_WB0F-4" value="#str: { [ADDON,HMO,_presetName] joinString &quot;_&quot; }" style="text;strokeColor=#000000;fillColor=none;align=left;verticalAlign=middle;spacingLeft=4;spacingRight=4;overflow=hidden;points=[[0,0.5],[1,0.5]];portConstraint=eastwest;rotatable=0;whiteSpace=wrap;html=1;swimlaneLine=1;strokeWidth=4;" parent="v-bgBQz-u3DvL2Q_WB0F-1" vertex="1">
          <mxGeometry y="90" width="750" height="30" as="geometry" />
        </mxCell>
        <mxCell id="v-bgBQz-u3DvL2Q_WB0F-5" value="Input: [_presetName, _startTime, _duration, Target Intensity]&amp;nbsp;&lt;br style=&quot;border-color: var(--border-color);&quot;&gt;&lt;br&gt;isActive, true&lt;br&gt;&lt;br&gt;varName, _varName&lt;br&gt;presetName, _presetName&lt;br&gt;&lt;br&gt;helperObj, &quot;&quot;&lt;br&gt;&lt;br&gt;missionTimeStart _startTime&lt;br&gt;missionTimeEnd _startTime + Duration&lt;br&gt;&lt;br&gt;intensityStart 0&lt;br&gt;intensityCurrent 0.01&lt;br&gt;intensityTarget _intensity&lt;br&gt;&lt;div&gt;&lt;br&gt;&lt;/div&gt;&lt;div&gt;coefSpeedHeli cfg coefSpeedHeli&lt;br&gt;coefSpeed&lt;span style=&quot;&quot;&gt;&lt;span style=&quot;white-space: pre;&quot;&gt;&amp;nbsp;&amp;nbsp;&amp;nbsp;&amp;nbsp;&lt;/span&gt;&lt;/span&gt;cfg coefSpeed&lt;br&gt;coefWind&lt;span style=&quot;&quot;&gt;&lt;span style=&quot;white-space: pre;&quot;&gt;&amp;nbsp;&amp;nbsp;&amp;nbsp;&amp;nbsp;&lt;/span&gt;&lt;/span&gt;&lt;span style=&quot;&quot;&gt;&lt;span style=&quot;white-space: pre;&quot;&gt;&amp;nbsp;&amp;nbsp;&amp;nbsp;&amp;nbsp;&lt;/span&gt;&lt;/span&gt;cfg coefWind&lt;br&gt;&lt;br&gt;offsetHeight&lt;span style=&quot;&quot;&gt;&lt;span style=&quot;white-space: pre;&quot;&gt;&amp;nbsp;&amp;nbsp;&amp;nbsp;&amp;nbsp;&lt;/span&gt;&lt;/span&gt;cfg coef offsetHeight&lt;br&gt;&lt;br&gt;intervalMin&amp;nbsp; cfg intervalMin&lt;br&gt;intervalMax cfg interval&lt;br&gt;&lt;br&gt;&lt;br&gt;&lt;/div&gt;" style="text;strokeColor=#000000;fillColor=none;align=left;verticalAlign=top;spacingLeft=4;spacingRight=4;overflow=hidden;points=[[0,0.5],[1,0.5]];portConstraint=eastwest;rotatable=0;whiteSpace=wrap;html=1;swimlaneLine=1;strokeWidth=4;" parent="v-bgBQz-u3DvL2Q_WB0F-1" vertex="1">
          <mxGeometry y="120" width="750" height="440" as="geometry" />
        </mxCell>
        <mxCell id="v-bgBQz-u3DvL2Q_WB0F-9" value="&lt;b&gt;#Create:&lt;/b&gt;&lt;br&gt;&lt;div&gt;&lt;br&gt;&lt;div style=&quot;color: rgb(204, 204, 204); background-color: rgb(31, 31, 31); font-family: &amp;quot;Fire Code&amp;quot;, Consolas, &amp;quot;Courier New&amp;quot;, monospace; font-size: 16px; line-height: 22px;&quot;&gt;&lt;div&gt;&amp;nbsp; &amp;nbsp; &amp;nbsp; &amp;nbsp; &amp;nbsp; &amp;nbsp; _fnc_scriptName &lt;span style=&quot;color: #d4d4d4;&quot;&gt;=&lt;/span&gt; &lt;span style=&quot;color: #ce9178;&quot;&gt;&quot;#create&quot;&lt;/span&gt;;&lt;/div&gt;&lt;div&gt;&amp;nbsp; &amp;nbsp; &amp;nbsp; &amp;nbsp; &amp;nbsp; &amp;nbsp; [ {&lt;span style=&quot;color: #569cd6;&quot;&gt; _this&lt;/span&gt;&lt;span style=&quot;color: #d4d4d4;&quot;&gt;#&lt;/span&gt;&lt;span style=&quot;color: #b5cea8;&quot;&gt;0&lt;/span&gt; &lt;span style=&quot;color: #9cdcfe;&quot;&gt;call&lt;/span&gt; [&lt;span style=&quot;color: #ce9178;&quot;&gt;&quot;Meth_Loop&quot;&lt;/span&gt;, []]; } , [&lt;span style=&quot;color: #9cdcfe;&quot;&gt;_self&lt;/span&gt;],&lt;span style=&quot;color: #b5cea8;&quot;&gt; 1&lt;/span&gt;] call &lt;span style=&quot;color: #dcdcaa;&quot;&gt;CBA_fnc_waitAndExecute&lt;/span&gt;;&lt;/div&gt;&lt;div&gt;&lt;/div&gt;&lt;/div&gt;&lt;/div&gt;" style="text;strokeColor=#000000;fillColor=none;align=left;verticalAlign=top;spacingLeft=4;spacingRight=4;overflow=hidden;points=[[0,0.5],[1,0.5]];portConstraint=eastwest;rotatable=0;whiteSpace=wrap;html=1;swimlaneLine=1;strokeWidth=4;" parent="v-bgBQz-u3DvL2Q_WB0F-1" vertex="1">
          <mxGeometry y="560" width="750" height="160" as="geometry" />
        </mxCell>
        <mxCell id="v-bgBQz-u3DvL2Q_WB0F-6" value="&lt;div style=&quot;color: rgb(204, 204, 204); background-color: rgb(31, 31, 31); font-family: &amp;quot;Fire Code&amp;quot;, Consolas, &amp;quot;Courier New&amp;quot;, monospace; font-size: 16px; line-height: 22px;&quot;&gt;#delete&lt;br&gt;ToDo: destroy per Frame handler if&amp;nbsp;&lt;br&gt;&lt;div&gt;&amp;nbsp; &amp;nbsp; &amp;nbsp; &amp;nbsp; [&quot;#delete&quot;, {&lt;/div&gt;&lt;div&gt;&lt;span style=&quot;color: #9cdcfe;&quot;&gt;&amp;nbsp; &amp;nbsp; &amp;nbsp; &amp;nbsp; &amp;nbsp; &amp;nbsp; _fnc_scriptName&lt;/span&gt; &lt;span style=&quot;color: #d4d4d4;&quot;&gt;=&lt;/span&gt; &lt;span style=&quot;color: #ce9178;&quot;&gt;&quot;#delete&quot;&lt;/span&gt;;&lt;/div&gt;&lt;div&gt;&lt;span style=&quot;color: #dcdcaa;&quot;&gt;&amp;nbsp; &amp;nbsp; &amp;nbsp; &amp;nbsp; &amp;nbsp; &amp;nbsp; deleteVehicle&lt;/span&gt; &lt;span style=&quot;color: #9cdcfe;&quot;&gt;OGET&lt;/span&gt;(&lt;span style=&quot;color: #9cdcfe;&quot;&gt;HelperObj&lt;/span&gt;);&lt;br&gt;&lt;br&gt;&lt;/div&gt;&lt;div&gt;&amp;nbsp; &amp;nbsp; &amp;nbsp; &amp;nbsp; }],&lt;/div&gt;&lt;/div&gt;" style="text;strokeColor=#000000;fillColor=none;align=left;verticalAlign=top;spacingLeft=4;spacingRight=4;overflow=hidden;points=[[0,0.5],[1,0.5]];portConstraint=eastwest;rotatable=0;whiteSpace=wrap;html=1;swimlaneLine=1;strokeWidth=4;" parent="v-bgBQz-u3DvL2Q_WB0F-1" vertex="1">
          <mxGeometry y="720" width="750" height="200" as="geometry" />
        </mxCell>
        <mxCell id="v-bgBQz-u3DvL2Q_WB0F-10" value="&lt;div style=&quot;color: rgb(204, 204, 204); background-color: rgb(31, 31, 31); font-family: &amp;quot;Fire Code&amp;quot;, Consolas, &amp;quot;Courier New&amp;quot;, monospace; font-size: 16px; line-height: 22px;&quot;&gt;&lt;div&gt;&amp;nbsp; &amp;nbsp; &amp;nbsp; &amp;nbsp; [&quot;Meth_Create_Helper&quot;,{&lt;/div&gt;&lt;div&gt;&lt;span style=&quot;color: #9cdcfe;&quot;&gt;&amp;nbsp; &amp;nbsp; &amp;nbsp; &amp;nbsp; &amp;nbsp; &amp;nbsp; _fnc_scriptName&lt;/span&gt; &lt;span style=&quot;color: #d4d4d4;&quot;&gt;=&lt;/span&gt; &lt;span style=&quot;color: #ce9178;&quot;&gt;&quot;Meth_Create_Helper&quot;&lt;/span&gt;;&lt;/div&gt;&lt;div&gt;&lt;span style=&quot;color: #9cdcfe;&quot;&gt;&amp;nbsp; &amp;nbsp; &amp;nbsp; &amp;nbsp; &amp;nbsp; &amp;nbsp; _helperObj&lt;/span&gt; &lt;span style=&quot;color: #d4d4d4;&quot;&gt;=&lt;/span&gt;&lt;span style=&quot;color: #dcdcaa;&quot;&gt; createVehicleLocal&lt;/span&gt; [&quot;&lt;span style=&quot;color: rgb(206, 145, 120);&quot;&gt;#particlesource&lt;/span&gt;&lt;span style=&quot;color: rgb(206, 145, 120);&quot;&gt;&quot;&lt;/span&gt;, [&lt;span style=&quot;color: rgb(181, 206, 168);&quot;&gt;0&lt;/span&gt;,&lt;span style=&quot;color: rgb(181, 206, 168);&quot;&gt;0&lt;/span&gt;,&lt;span style=&quot;color: rgb(181, 206, 168);&quot;&gt;0&lt;/span&gt;]];&lt;br&gt;&lt;/div&gt;&lt;div&gt;&amp;nbsp; &amp;nbsp; &amp;nbsp; &amp;nbsp; &amp;nbsp; &amp;nbsp; &lt;span style=&quot;color: #9cdcfe;&quot;&gt;OSET&lt;/span&gt;(&lt;span style=&quot;color: #9cdcfe;&quot;&gt;helperObj&lt;/span&gt;,&lt;span style=&quot;color: #9cdcfe;&quot;&gt;_helperObj&lt;/span&gt;);&lt;br&gt;&lt;div style=&quot;line-height: 22px;&quot;&gt;_helperObj setParticleClass OGET(presetName);&lt;/div&gt;&lt;/div&gt;&lt;div&gt;&amp;nbsp; &amp;nbsp; &amp;nbsp; &amp;nbsp; }]&lt;br&gt;&lt;br&gt;&lt;br&gt;&lt;/div&gt;&lt;/div&gt;" style="text;strokeColor=#000000;fillColor=none;align=left;verticalAlign=top;spacingLeft=4;spacingRight=4;overflow=hidden;points=[[0,0.5],[1,0.5]];portConstraint=eastwest;rotatable=0;whiteSpace=wrap;html=1;swimlaneLine=1;strokeWidth=4;" parent="v-bgBQz-u3DvL2Q_WB0F-1" vertex="1">
          <mxGeometry y="920" width="750" height="250" as="geometry" />
        </mxCell>
        <mxCell id="v-bgBQz-u3DvL2Q_WB0F-8" value="&lt;div style=&quot;color: rgb(204, 204, 204); background-color: rgb(31, 31, 31); font-family: &amp;quot;Fire Code&amp;quot;, Consolas, &amp;quot;Courier New&amp;quot;, monospace; font-size: 16px; line-height: 22px;&quot;&gt;&lt;div&gt;&amp;nbsp; &amp;nbsp; &amp;nbsp; &amp;nbsp; [&quot;Meth_Update&quot;, {&lt;/div&gt;&lt;div&gt;&lt;span style=&quot;color: #9cdcfe;&quot;&gt;&amp;nbsp; &amp;nbsp; &amp;nbsp; &amp;nbsp; &amp;nbsp; &amp;nbsp; _fnc_scriptName&lt;/span&gt; &lt;span style=&quot;color: #d4d4d4;&quot;&gt;=&lt;/span&gt; &lt;span style=&quot;color: #ce9178;&quot;&gt;&quot;Meth_Update&quot;&lt;/span&gt;;&lt;/div&gt;&lt;br&gt;&lt;div&gt;&lt;span style=&quot;color: #dcdcaa;&quot;&gt;&amp;nbsp; &amp;nbsp; &amp;nbsp; &amp;nbsp; &amp;nbsp; &amp;nbsp; params&lt;/span&gt; [&lt;span style=&quot;color: #ce9178;&quot;&gt;&quot;_presetName&quot;&lt;/span&gt;, &lt;span style=&quot;color: #ce9178;&quot;&gt;&quot;_startTime&quot;&lt;/span&gt;, &lt;span style=&quot;color: #ce9178;&quot;&gt;&quot;_duration&quot;&lt;/span&gt;, &lt;span style=&quot;color: #ce9178;&quot;&gt;&quot;_intensity&quot;&lt;/span&gt;];&lt;/div&gt;&lt;br&gt;&lt;div&gt;&amp;nbsp; &amp;nbsp; &amp;nbsp; &amp;nbsp; &amp;nbsp; &amp;nbsp; &lt;span style=&quot;color: #9cdcfe;&quot;&gt;OSET&lt;/span&gt;(&lt;span style=&quot;color: #9cdcfe;&quot;&gt;missionTimeStart&lt;/span&gt;,&lt;span style=&quot;color: #9cdcfe;&quot;&gt;_startTime&lt;/span&gt;);&lt;/div&gt;&lt;div&gt;&amp;nbsp; &amp;nbsp; &amp;nbsp; &amp;nbsp; &amp;nbsp; &amp;nbsp; &lt;span style=&quot;color: #9cdcfe;&quot;&gt;OSET&lt;/span&gt;(&lt;span style=&quot;color: #9cdcfe;&quot;&gt;missionTimeStart&lt;/span&gt;,&lt;span style=&quot;color: #9cdcfe;&quot;&gt;_startTime&lt;/span&gt; &lt;span style=&quot;color: #d4d4d4;&quot;&gt;+&lt;/span&gt;&lt;span style=&quot;color: #9cdcfe;&quot;&gt; _duration&lt;/span&gt;);&lt;/div&gt;&lt;div&gt;&amp;nbsp; &amp;nbsp; &amp;nbsp; &amp;nbsp; &amp;nbsp; &amp;nbsp; &lt;span style=&quot;color: #9cdcfe;&quot;&gt;OSET&lt;/span&gt;(&lt;span style=&quot;color: #9cdcfe;&quot;&gt;intensityStart&lt;/span&gt;,&lt;span style=&quot;color: #9cdcfe;&quot;&gt;OGET&lt;/span&gt;(&lt;span style=&quot;color: #9cdcfe;&quot;&gt;intensityCurrent&lt;/span&gt;));&lt;/div&gt;&lt;div&gt;&amp;nbsp; &amp;nbsp; &amp;nbsp; &amp;nbsp; &amp;nbsp; &amp;nbsp; &lt;span style=&quot;color: #9cdcfe;&quot;&gt;OSET&lt;/span&gt;(&lt;span style=&quot;color: #9cdcfe;&quot;&gt;intensityTarget&lt;/span&gt;,&lt;span style=&quot;color: #9cdcfe;&quot;&gt;_intensity&lt;/span&gt;);&lt;/div&gt;&lt;br&gt;&lt;div&gt;&amp;nbsp; &amp;nbsp; &amp;nbsp; &amp;nbsp; }]&lt;/div&gt;&lt;div&gt;+ re-attach the object to the player&lt;br&gt;&lt;br&gt;&lt;/div&gt;&lt;/div&gt;" style="text;strokeColor=#000000;fillColor=none;align=left;verticalAlign=top;spacingLeft=4;spacingRight=4;overflow=hidden;points=[[0,0.5],[1,0.5]];portConstraint=eastwest;rotatable=0;whiteSpace=wrap;html=1;swimlaneLine=1;strokeWidth=4;" parent="v-bgBQz-u3DvL2Q_WB0F-1" vertex="1">
          <mxGeometry y="1170" width="750" height="340" as="geometry" />
        </mxCell>
        <mxCell id="v-bgBQz-u3DvL2Q_WB0F-7" value="&lt;b&gt;Meth_Loop:&lt;/b&gt;&lt;br&gt;// ensures previous sound will be completed and doesnt get cut off&lt;br&gt;If !isActive exitWith ( _self = nil)&lt;br&gt;&lt;br&gt;&lt;br&gt;Establish Current Intensity based on ServerTime/Start/End&lt;br&gt;(if Intensity == 0, set isActive to false)&lt;br&gt;&lt;br&gt;Establish DropInterval&lt;br&gt;&lt;span style=&quot;background-color: rgb(31, 31, 31); color: rgb(204, 204, 204); font-family: &amp;quot;Fire Code&amp;quot;, Consolas, &amp;quot;Courier New&amp;quot;, monospace; font-size: 16px;&quot;&gt;setDropInterval&lt;/span&gt;&lt;br&gt;&lt;div&gt;&lt;br&gt;&lt;br&gt;&lt;br&gt;Re-Attach based on&lt;br&gt;&lt;br&gt;{&lt;br&gt;if (isNil _thisHMO) exitWith {};&lt;br&gt;}&lt;br&gt;WaitAndExecute Recursive Call&lt;/div&gt;" style="text;strokeColor=#000000;fillColor=none;align=left;verticalAlign=top;spacingLeft=4;spacingRight=4;overflow=hidden;points=[[0,0.5],[1,0.5]];portConstraint=eastwest;rotatable=0;whiteSpace=wrap;html=1;swimlaneLine=1;strokeWidth=4;" parent="v-bgBQz-u3DvL2Q_WB0F-1" vertex="1">
          <mxGeometry y="1510" width="750" height="390" as="geometry" />
        </mxCell>
        <mxCell id="v-bgBQz-u3DvL2Q_WB0F-15" value="Classname" style="swimlane;fontStyle=0;childLayout=stackLayout;horizontal=1;startSize=26;fillColor=none;horizontalStack=0;resizeParent=1;resizeParentMax=0;resizeLast=0;collapsible=1;marginBottom=0;whiteSpace=wrap;html=1;" parent="WIyWlLk6GJQsqaUBKTNV-1" vertex="1">
          <mxGeometry x="1130" y="850" width="140" height="104" as="geometry" />
        </mxCell>
        <mxCell id="v-bgBQz-u3DvL2Q_WB0F-16" value="+ field: type" style="text;strokeColor=none;fillColor=none;align=left;verticalAlign=top;spacingLeft=4;spacingRight=4;overflow=hidden;rotatable=0;points=[[0,0.5],[1,0.5]];portConstraint=eastwest;whiteSpace=wrap;html=1;" parent="v-bgBQz-u3DvL2Q_WB0F-15" vertex="1">
          <mxGeometry y="26" width="140" height="26" as="geometry" />
        </mxCell>
        <mxCell id="v-bgBQz-u3DvL2Q_WB0F-17" value="+ field: type" style="text;strokeColor=none;fillColor=none;align=left;verticalAlign=top;spacingLeft=4;spacingRight=4;overflow=hidden;rotatable=0;points=[[0,0.5],[1,0.5]];portConstraint=eastwest;whiteSpace=wrap;html=1;" parent="v-bgBQz-u3DvL2Q_WB0F-15" vertex="1">
          <mxGeometry y="52" width="140" height="26" as="geometry" />
        </mxCell>
        <mxCell id="v-bgBQz-u3DvL2Q_WB0F-18" value="+ field: type" style="text;strokeColor=none;fillColor=none;align=left;verticalAlign=top;spacingLeft=4;spacingRight=4;overflow=hidden;rotatable=0;points=[[0,0.5],[1,0.5]];portConstraint=eastwest;whiteSpace=wrap;html=1;" parent="v-bgBQz-u3DvL2Q_WB0F-15" vertex="1">
          <mxGeometry y="78" width="140" height="26" as="geometry" />
        </mxCell>
      </root>
    </mxGraphModel>
  </diagram>
  <diagram id="Efahxjpp6xXbP0bDASFz" name="Seite-2">
    <mxGraphModel dx="1977" dy="2008" grid="1" gridSize="10" guides="1" tooltips="1" connect="1" arrows="1" fold="1" page="1" pageScale="1" pageWidth="1169" pageHeight="827" math="0" shadow="0">
      <root>
        <mxCell id="0" />
        <mxCell id="1" parent="0" />
        <mxCell id="RQXzxg8gnpPvuf_qEGjH-1" value="FX Sounds 3D Local&lt;br&gt;&lt;br&gt;&lt;span style=&quot;white-space: pre;&quot;&gt;&lt;span style=&quot;white-space: pre;&quot;&gt;&#x9;&lt;/span&gt;&lt;span style=&quot;white-space: pre;&quot;&gt;&#x9;&lt;/span&gt;&lt;span style=&quot;white-space: pre;&quot;&gt;&#x9;&lt;/span&gt;&#x9;&lt;/span&gt;&lt;div&gt;&lt;br/&gt;&lt;/div&gt;" style="swimlane;fontStyle=0;childLayout=stackLayout;horizontal=1;startSize=30;horizontalStack=0;resizeParent=1;resizeParentMax=0;resizeLast=0;collapsible=1;marginBottom=0;whiteSpace=wrap;html=1;fillColor=#dae8fc;strokeColor=#000000;verticalAlign=top;align=left;swimlaneFillColor=#99CCFF;perimeterSpacing=2;strokeWidth=4;swimlaneLine=1;" parent="1" vertex="1">
          <mxGeometry x="250" y="330" width="440" height="1442" as="geometry">
            <mxRectangle x="2200" y="750" width="150" height="30" as="alternateBounds" />
          </mxGeometry>
        </mxCell>
        <mxCell id="RQXzxg8gnpPvuf_qEGjH-20" value="Limitation: max 1 per PresetName (fnc remote handles this)" style="text;strokeColor=#000000;fillColor=none;align=left;verticalAlign=middle;spacingLeft=4;spacingRight=4;overflow=hidden;points=[[0,0.5],[1,0.5]];portConstraint=eastwest;rotatable=0;whiteSpace=wrap;html=1;swimlaneLine=1;strokeWidth=4;" parent="RQXzxg8gnpPvuf_qEGjH-1" vertex="1">
          <mxGeometry y="30" width="440" height="30" as="geometry" />
        </mxCell>
        <mxCell id="RQXzxg8gnpPvuf_qEGjH-2" value="Intensity: Distance &amp;amp; Delay" style="text;strokeColor=#000000;fillColor=none;align=left;verticalAlign=middle;spacingLeft=4;spacingRight=4;overflow=hidden;points=[[0,0.5],[1,0.5]];portConstraint=eastwest;rotatable=0;whiteSpace=wrap;html=1;swimlaneLine=1;strokeWidth=4;" parent="RQXzxg8gnpPvuf_qEGjH-1" vertex="1">
          <mxGeometry y="60" width="440" height="30" as="geometry" />
        </mxCell>
        <mxCell id="RQXzxg8gnpPvuf_qEGjH-3" value="#flags: [&quot;noCopy&quot;, &quot;unscheduled&quot;]" style="text;strokeColor=#000000;fillColor=none;align=left;verticalAlign=middle;spacingLeft=4;spacingRight=4;overflow=hidden;points=[[0,0.5],[1,0.5]];portConstraint=eastwest;rotatable=0;whiteSpace=wrap;html=1;swimlaneLine=1;strokeWidth=4;" parent="RQXzxg8gnpPvuf_qEGjH-1" vertex="1">
          <mxGeometry y="90" width="440" height="30" as="geometry" />
        </mxCell>
        <mxCell id="RQXzxg8gnpPvuf_qEGjH-4" value="#str: { [ADDON,HMO,_presetName] joinString &quot;_&quot; }" style="text;strokeColor=#000000;fillColor=none;align=left;verticalAlign=middle;spacingLeft=4;spacingRight=4;overflow=hidden;points=[[0,0.5],[1,0.5]];portConstraint=eastwest;rotatable=0;whiteSpace=wrap;html=1;swimlaneLine=1;strokeWidth=4;" parent="RQXzxg8gnpPvuf_qEGjH-1" vertex="1">
          <mxGeometry y="120" width="440" height="30" as="geometry" />
        </mxCell>
        <mxCell id="RQXzxg8gnpPvuf_qEGjH-5" value="&lt;b&gt;#Create:&lt;/b&gt;&lt;br&gt;Input: [_presetName, _startTime, _duration, Target Intensity]&amp;nbsp;&lt;br&gt;&lt;br&gt;store PresetName (_presetName)&lt;br&gt;store name --&amp;gt; from Config&lt;br&gt;&lt;br&gt;store EffectType COMPONENT&lt;br&gt;&lt;br&gt;Store Intensity_Start &lt;span style=&quot;&quot;&gt;&lt;span style=&quot;&quot;&gt;&amp;nbsp;&amp;nbsp;&amp;nbsp;&amp;nbsp;&lt;/span&gt;&lt;/span&gt;(0)&lt;br&gt;Store Intensity_Target &lt;span style=&quot;&quot;&gt;&lt;span style=&quot;&quot;&gt;&amp;nbsp;&amp;nbsp;&amp;nbsp;&amp;nbsp;&lt;/span&gt;&lt;/span&gt;_targetIntensity&lt;br&gt;Store Intensity_Current (0.001)&lt;br&gt;&lt;br&gt;Store serverTime_Start &lt;span style=&quot;&quot;&gt;&lt;span style=&quot;&quot;&gt;&amp;nbsp;&amp;nbsp;&amp;nbsp;&amp;nbsp;&lt;/span&gt;&lt;/span&gt;(_startTime)&lt;br&gt;Store serverTime_End &lt;span style=&quot;&quot;&gt;&lt;span style=&quot;&quot;&gt;&amp;nbsp;&amp;nbsp;&amp;nbsp;&amp;nbsp;&lt;/span&gt;&lt;/span&gt;(_startTime + _duration)&lt;br&gt;&lt;br&gt;Store isActive (true)&lt;br&gt;&lt;br&gt;Store soundArrayFull&amp;nbsp;&amp;nbsp;&amp;nbsp;&amp;nbsp;&lt;span style=&quot;border-color: var(--border-color);&quot;&gt;&amp;nbsp;&amp;nbsp;&amp;nbsp;&amp;nbsp;&lt;/span&gt;--&amp;gt; from Config&lt;br style=&quot;border-color: var(--border-color);&quot;&gt;Store soundArrayCurrent [] emptyArray&lt;br style=&quot;border-color: var(--border-color);&quot;&gt;Store soundArrayPrevious []&lt;span style=&quot;border-color: var(--border-color);&quot;&gt;&lt;span style=&quot;border-color: var(--border-color);&quot;&gt;&amp;nbsp;&amp;nbsp;&amp;nbsp;&amp;nbsp;&lt;/span&gt;&lt;/span&gt;emptyArray&lt;div style=&quot;border-color: var(--border-color);&quot;&gt;&lt;br style=&quot;border-color: var(--border-color);&quot;&gt;Store DelayMin&lt;span style=&quot;border-color: var(--border-color);&quot;&gt;&amp;nbsp; &amp;nbsp; &amp;nbsp; &amp;nbsp; &amp;nbsp; &amp;nbsp;&lt;/span&gt;--&amp;gt; from Config&lt;br style=&quot;border-color: var(--border-color);&quot;&gt;Store DelayMax&lt;span style=&quot;border-color: var(--border-color);&quot;&gt;&amp;nbsp;&amp;nbsp;&amp;nbsp;&amp;nbsp;&lt;/span&gt;&amp;nbsp; &amp;nbsp; --&amp;gt; from Config&lt;br style=&quot;border-color: var(--border-color);&quot;&gt;&lt;br style=&quot;border-color: var(--border-color);&quot;&gt;Store DistanceMin&lt;span style=&quot;border-color: var(--border-color);&quot;&gt;&amp;nbsp;&amp;nbsp;&amp;nbsp;&amp;nbsp;&lt;/span&gt;&lt;span style=&quot;border-color: var(--border-color);&quot;&gt;&amp;nbsp;&amp;nbsp;&amp;nbsp;&lt;/span&gt;--&amp;gt; from Config&lt;br style=&quot;border-color: var(--border-color);&quot;&gt;Store DistanceMax&lt;span style=&quot;border-color: var(--border-color);&quot;&gt;&amp;nbsp;&amp;nbsp;&amp;nbsp;&amp;nbsp;&lt;/span&gt;&lt;span style=&quot;border-color: var(--border-color);&quot;&gt;&amp;nbsp;&amp;nbsp;&lt;/span&gt;--&amp;gt; from Config&lt;br style=&quot;border-color: var(--border-color);&quot;&gt;&lt;br style=&quot;border-color: var(--border-color);&quot;&gt;Store Direction&amp;nbsp;&lt;span style=&quot;border-color: var(--border-color);&quot;&gt;&amp;nbsp;&amp;nbsp;&amp;nbsp;&amp;nbsp;&lt;/span&gt;&lt;span style=&quot;border-color: var(--border-color);&quot;&gt;&lt;span style=&quot;border-color: var(--border-color);&quot;&gt;&amp;nbsp;&amp;nbsp;&amp;nbsp;&amp;nbsp;&lt;span style=&quot;border-color: var(--border-color);&quot;&gt;&lt;span style=&quot;border-color: var(--border-color);&quot;&gt;&amp;nbsp;&amp;nbsp;&amp;nbsp;&amp;nbsp;&lt;/span&gt;&lt;/span&gt;&lt;/span&gt;&lt;/span&gt;--&amp;gt; from Config&lt;br style=&quot;border-color: var(--border-color);&quot;&gt;&lt;/div&gt;&lt;br&gt;createVehicleLocal _Helper&lt;br&gt;Store HelperObj&lt;br&gt;&lt;br&gt;&lt;br&gt;&lt;div&gt;At the end:&lt;br&gt;&lt;br&gt;&lt;br&gt;// Execute next frame to avoid a start of intensity == 0 on the first itteration&lt;br&gt;_self call [&quot;Meth_Loop&quot;, []];&lt;br&gt;&lt;br&gt;&lt;/div&gt;" style="text;strokeColor=#000000;fillColor=none;align=left;verticalAlign=top;spacingLeft=4;spacingRight=4;overflow=hidden;points=[[0,0.5],[1,0.5]];portConstraint=eastwest;rotatable=0;whiteSpace=wrap;html=1;swimlaneLine=1;strokeWidth=4;" parent="RQXzxg8gnpPvuf_qEGjH-1" vertex="1">
          <mxGeometry y="150" width="440" height="581" as="geometry" />
        </mxCell>
        <mxCell id="RQXzxg8gnpPvuf_qEGjH-6" value="&lt;b&gt;#Delete:&lt;br&gt;&lt;br&gt;deleteVehicle (_self get HelperObj)&lt;br&gt;PVAR(C_&lt;/b&gt;&lt;b style=&quot;border-color: var(--border-color);&quot;&gt;FX_&lt;/b&gt;&lt;b&gt;Array) =&amp;nbsp;&lt;/b&gt;&lt;b style=&quot;border-color: var(--border-color);&quot;&gt;PVAR(C_&lt;b style=&quot;border-color: var(--border-color);&quot;&gt;FX_&lt;/b&gt;Array) - [_self]&lt;/b&gt;&lt;b&gt;;&lt;br&gt;if count PVAR(_FX_Array) == 0 then PVAR(C_FX_ARRAY) = nil;&lt;br&gt;&lt;br&gt;&lt;br&gt;&lt;/b&gt;" style="text;strokeColor=#000000;fillColor=none;align=left;verticalAlign=top;spacingLeft=4;spacingRight=4;overflow=hidden;points=[[0,0.5],[1,0.5]];portConstraint=eastwest;rotatable=0;whiteSpace=wrap;html=1;swimlaneLine=1;strokeWidth=4;" parent="RQXzxg8gnpPvuf_qEGjH-1" vertex="1">
          <mxGeometry y="731" width="440" height="90" as="geometry" />
        </mxCell>
        <mxCell id="RQXzxg8gnpPvuf_qEGjH-7" value="&lt;b&gt;Meth_Loop:&lt;/b&gt;&lt;br&gt;// ensures previous sound will be completed and doesnt get cut off&lt;br&gt;If !isActive exitWith ( _self = nil)&lt;br&gt;&lt;br&gt;&lt;br&gt;Establish Current Intensity based on ServerTime/Start/End&lt;br&gt;(if Intensity == 0, set isActive to false)&lt;br&gt;&lt;br&gt;&lt;br&gt;Establish Distance _currentIntensity &amp;amp; MinMax Distance + random&lt;br&gt;&lt;br&gt;Establish Direction&lt;br&gt;&lt;br&gt;Position Helper,&lt;br&gt;&lt;br&gt;Establish _sound and manage the SoundArrays&lt;br&gt;&lt;br&gt;_sayObj = helper say3d select sound&lt;div&gt;&lt;br&gt;&lt;br&gt;Establish delay based on _currentIntensity &amp;amp; MinMax Delay + random&lt;br&gt;&lt;br&gt;waitUntil _sayObj isEqualTo objNull&lt;br&gt;&lt;br&gt;{&lt;br&gt;if (isNil _thisHMO) exitWith {};&lt;br&gt;}&lt;br&gt;WaitAndExecute Recursive Call&lt;/div&gt;" style="text;strokeColor=#000000;fillColor=none;align=left;verticalAlign=top;spacingLeft=4;spacingRight=4;overflow=hidden;points=[[0,0.5],[1,0.5]];portConstraint=eastwest;rotatable=0;whiteSpace=wrap;html=1;swimlaneLine=1;strokeWidth=4;" parent="RQXzxg8gnpPvuf_qEGjH-1" vertex="1">
          <mxGeometry y="821" width="440" height="450" as="geometry" />
        </mxCell>
        <mxCell id="RQXzxg8gnpPvuf_qEGjH-8" value="&lt;b&gt;Meth_Update:&lt;br&gt;&lt;/b&gt;&lt;div&gt;&lt;br&gt;[_presetName,_startTime, _duration,_intensity]&lt;br&gt;&lt;br&gt;Store Intensity_Start&amp;nbsp;&lt;span style=&quot;&quot;&gt;&amp;nbsp;&amp;nbsp;&amp;nbsp;&amp;nbsp;&lt;span style=&quot;white-space: pre;&quot;&gt;&#x9;&lt;/span&gt;&lt;/span&gt;(Intensity_Current)&lt;br style=&quot;border-color: var(--border-color);&quot;&gt;Store Intensity_Target&amp;nbsp;&lt;span style=&quot;border-color: var(--border-color);&quot;&gt;&lt;span style=&quot;&quot;&gt;&amp;nbsp;&amp;nbsp;&amp;nbsp;&amp;nbsp;&lt;/span&gt;&lt;/span&gt;_targetIntensity&lt;br style=&quot;border-color: var(--border-color);&quot;&gt;&lt;br&gt;Store serverTime_Start&amp;nbsp;&lt;span style=&quot;white-space: pre;&quot;&gt;&#x9;&lt;/span&gt;&amp;nbsp;&lt;span style=&quot;border-color: var(--border-color);&quot;&gt;&lt;/span&gt;(_startTime)&lt;br style=&quot;border-color: var(--border-color);&quot;&gt;Store serverTime_End&amp;nbsp;&lt;span style=&quot;border-color: var(--border-color);&quot;&gt;&lt;span style=&quot;border-color: var(--border-color);&quot;&gt;&amp;nbsp;&amp;nbsp;&amp;nbsp;&amp;nbsp;&lt;/span&gt;&lt;/span&gt;(_startTime + _duration)&lt;br style=&quot;border-color: var(--border-color);&quot;&gt;&lt;br&gt;&lt;/div&gt;&lt;div&gt;&lt;span style=&quot;white-space: pre;&quot;&gt;&#x9;&lt;/span&gt;&lt;br&gt;&lt;/div&gt;" style="text;strokeColor=#000000;fillColor=none;align=left;verticalAlign=top;spacingLeft=4;spacingRight=4;overflow=hidden;points=[[0,0.5],[1,0.5]];portConstraint=eastwest;rotatable=0;whiteSpace=wrap;html=1;swimlaneLine=1;strokeWidth=4;" parent="RQXzxg8gnpPvuf_qEGjH-1" vertex="1">
          <mxGeometry y="1271" width="440" height="171" as="geometry" />
        </mxCell>
        <mxCell id="RQXzxg8gnpPvuf_qEGjH-9" value="GVAR: ADDON_C_HMO_TemplateName" style="rounded=1;whiteSpace=wrap;html=1;" parent="1" vertex="1">
          <mxGeometry x="770" y="100" width="350" height="60" as="geometry" />
        </mxCell>
        <mxCell id="RQXzxg8gnpPvuf_qEGjH-23" style="edgeStyle=orthogonalEdgeStyle;rounded=0;orthogonalLoop=1;jettySize=auto;html=1;exitX=0.75;exitY=1;exitDx=0;exitDy=0;fontFamily=Helvetica;fontSize=12;fontColor=default;fontStyle=0;" parent="1" source="RQXzxg8gnpPvuf_qEGjH-10" edge="1">
          <mxGeometry relative="1" as="geometry">
            <mxPoint x="140" y="1803.7037037037042" as="targetPoint" />
          </mxGeometry>
        </mxCell>
        <mxCell id="RQXzxg8gnpPvuf_qEGjH-10" value="CLIENTSIDE" style="rounded=1;whiteSpace=wrap;html=1;horizontal=0;fontSize=30;fontStyle=1" parent="1" vertex="1">
          <mxGeometry x="80" y="-100" width="93.33" height="1860" as="geometry" />
        </mxCell>
        <mxCell id="RQXzxg8gnpPvuf_qEGjH-11" style="edgeStyle=orthogonalEdgeStyle;rounded=0;orthogonalLoop=1;jettySize=auto;html=1;fontFamily=Helvetica;fontSize=12;fontColor=default;fontStyle=0;" parent="1" source="RQXzxg8gnpPvuf_qEGjH-12" target="RQXzxg8gnpPvuf_qEGjH-1" edge="1">
          <mxGeometry relative="1" as="geometry" />
        </mxCell>
        <mxCell id="RQXzxg8gnpPvuf_qEGjH-12" value="FUNC(REMOTE)" style="swimlane;fontStyle=0;childLayout=stackLayout;horizontal=1;startSize=30;horizontalStack=0;resizeParent=1;resizeParentMax=0;resizeLast=0;collapsible=1;marginBottom=0;whiteSpace=wrap;html=1;fillColor=#dae8fc;strokeColor=#000000;verticalAlign=top;align=left;swimlaneFillColor=#99CCFF;perimeterSpacing=2;strokeWidth=4;swimlaneLine=1;" parent="1" vertex="1">
          <mxGeometry x="310" y="-50" width="320" height="310" as="geometry" />
        </mxCell>
        <mxCell id="RQXzxg8gnpPvuf_qEGjH-13" value="&lt;div style=&quot;border-color: var(--border-color);&quot;&gt;params [&quot;_presetName&quot;, &quot;_startTime&quot;, &quot;_duration&quot;, &quot;_intensity&quot;];&lt;/div&gt;&lt;div&gt;&lt;br&gt;&lt;/div&gt;" style="text;strokeColor=none;fillColor=none;align=left;verticalAlign=middle;spacingLeft=4;spacingRight=4;overflow=hidden;points=[[0,0.5],[1,0.5]];portConstraint=eastwest;rotatable=0;whiteSpace=wrap;html=1;" parent="RQXzxg8gnpPvuf_qEGjH-12" vertex="1">
          <mxGeometry y="30" width="320" height="30" as="geometry" />
        </mxCell>
        <mxCell id="RQXzxg8gnpPvuf_qEGjH-14" value="_varName = [ADDON,HMO,_presetName]joinString &quot;_&quot;;&lt;br style=&quot;border-color: var(--border-color);&quot;&gt;&lt;br style=&quot;border-color: var(--border-color);&quot;&gt;_hmo = missionNamespace getVariable [_varName, &quot;404&quot;];&lt;br style=&quot;border-color: var(--border-color);&quot;&gt;&lt;br style=&quot;border-color: var(--border-color);&quot;&gt;if _hmo isEqualTo &quot;404&quot; then {&lt;br style=&quot;border-color: var(--border-color);&quot;&gt;&lt;span style=&quot;border-color: var(--border-color);&quot;&gt;&lt;/span&gt;// create new HMO&lt;br style=&quot;border-color: var(--border-color);&quot;&gt;} else {&lt;br style=&quot;border-color: var(--border-color);&quot;&gt;&lt;span style=&quot;border-color: var(--border-color);&quot;&gt;&lt;span style=&quot;border-color: var(--border-color);&quot;&gt;&amp;nbsp;&amp;nbsp;&amp;nbsp;&amp;nbsp;&lt;/span&gt;&lt;/span&gt;// update existing&lt;br style=&quot;border-color: var(--border-color);&quot;&gt;&lt;span style=&quot;border-color: var(--border-color);&quot;&gt;&lt;span style=&quot;border-color: var(--border-color);&quot;&gt;&amp;nbsp;&amp;nbsp;&amp;nbsp;&amp;nbsp;&lt;/span&gt;&lt;/span&gt;_hmo call [&quot;Meth_Update&quot;, _this];&lt;br style=&quot;border-color: var(--border-color);&quot;&gt;};" style="text;strokeColor=none;fillColor=none;align=left;verticalAlign=middle;spacingLeft=4;spacingRight=4;overflow=hidden;points=[[0,0.5],[1,0.5]];portConstraint=eastwest;rotatable=0;whiteSpace=wrap;html=1;" parent="RQXzxg8gnpPvuf_qEGjH-12" vertex="1">
          <mxGeometry y="60" width="320" height="250" as="geometry" />
        </mxCell>
        <mxCell id="RQXzxg8gnpPvuf_qEGjH-15" value="SERVER SIDE" style="rounded=1;whiteSpace=wrap;html=1;horizontal=0;fontStyle=1;fontSize=30;" parent="1" vertex="1">
          <mxGeometry x="80" y="-610" width="93.33" height="490" as="geometry" />
        </mxCell>
        <mxCell id="RQXzxg8gnpPvuf_qEGjH-16" value="FUNC(Request)" style="swimlane;fontStyle=0;childLayout=stackLayout;horizontal=1;startSize=30;horizontalStack=0;resizeParent=1;resizeParentMax=0;resizeLast=0;collapsible=1;marginBottom=0;whiteSpace=wrap;html=1;fillColor=#dae8fc;strokeColor=#000000;verticalAlign=top;align=left;swimlaneFillColor=#99CCFF;perimeterSpacing=2;strokeWidth=4;swimlaneLine=1;" parent="1" vertex="1">
          <mxGeometry x="245" y="-545" width="450" height="360" as="geometry" />
        </mxCell>
        <mxCell id="RQXzxg8gnpPvuf_qEGjH-17" value="&lt;div style=&quot;border-color: var(--border-color);&quot;&gt;params [&quot;_presetName&quot;, &quot;_duration&quot;, &quot;_intensity&quot;];&lt;/div&gt;&lt;div&gt;&lt;br&gt;&lt;/div&gt;" style="text;strokeColor=none;fillColor=none;align=left;verticalAlign=middle;spacingLeft=4;spacingRight=4;overflow=hidden;points=[[0,0.5],[1,0.5]];portConstraint=eastwest;rotatable=0;whiteSpace=wrap;html=1;" parent="RQXzxg8gnpPvuf_qEGjH-16" vertex="1">
          <mxGeometry y="30" width="450" height="80" as="geometry" />
        </mxCell>
        <mxCell id="RQXzxg8gnpPvuf_qEGjH-18" value="Create String to be used as JIP and GVAR(S_FX_Sound_activeEffects)&lt;br&gt;&lt;div&gt;&lt;br&gt;Remote Executes the Remote Fnc on each Client.&lt;/div&gt;" style="text;strokeColor=none;fillColor=none;align=left;verticalAlign=middle;spacingLeft=4;spacingRight=4;overflow=hidden;points=[[0,0.5],[1,0.5]];portConstraint=eastwest;rotatable=0;whiteSpace=wrap;html=1;" parent="RQXzxg8gnpPvuf_qEGjH-16" vertex="1">
          <mxGeometry y="110" width="450" height="250" as="geometry" />
        </mxCell>
      </root>
    </mxGraphModel>
  </diagram>
  <diagram id="LxHpjd9qzRYYe-rKZhcS" name="What does it do">
    <mxGraphModel dx="1977" dy="1181" grid="1" gridSize="10" guides="1" tooltips="1" connect="1" arrows="1" fold="1" page="1" pageScale="1" pageWidth="1169" pageHeight="827" math="0" shadow="0">
      <root>
        <mxCell id="0" />
        <mxCell id="1" parent="0" />
        <mxCell id="HU0x1PNDHyvJca4Ds508-62" style="edgeStyle=orthogonalEdgeStyle;rounded=0;orthogonalLoop=1;jettySize=auto;html=1;entryX=1;entryY=0.5;entryDx=0;entryDy=0;" parent="1" source="HU0x1PNDHyvJca4Ds508-1" target="HU0x1PNDHyvJca4Ds508-39" edge="1">
          <mxGeometry relative="1" as="geometry" />
        </mxCell>
        <mxCell id="HU0x1PNDHyvJca4Ds508-63" style="edgeStyle=orthogonalEdgeStyle;rounded=0;orthogonalLoop=1;jettySize=auto;html=1;entryX=1;entryY=0.5;entryDx=0;entryDy=0;" parent="1" source="HU0x1PNDHyvJca4Ds508-1" target="HU0x1PNDHyvJca4Ds508-56" edge="1">
          <mxGeometry relative="1" as="geometry" />
        </mxCell>
        <mxCell id="HU0x1PNDHyvJca4Ds508-64" style="edgeStyle=orthogonalEdgeStyle;rounded=0;orthogonalLoop=1;jettySize=auto;html=1;entryX=0;entryY=0.5;entryDx=0;entryDy=0;" parent="1" source="HU0x1PNDHyvJca4Ds508-1" target="HU0x1PNDHyvJca4Ds508-38" edge="1">
          <mxGeometry relative="1" as="geometry" />
        </mxCell>
        <mxCell id="HU0x1PNDHyvJca4Ds508-65" style="edgeStyle=orthogonalEdgeStyle;rounded=0;orthogonalLoop=1;jettySize=auto;html=1;entryX=0;entryY=0.5;entryDx=0;entryDy=0;" parent="1" source="HU0x1PNDHyvJca4Ds508-1" target="HU0x1PNDHyvJca4Ds508-35" edge="1">
          <mxGeometry relative="1" as="geometry" />
        </mxCell>
        <mxCell id="HU0x1PNDHyvJca4Ds508-66" style="edgeStyle=orthogonalEdgeStyle;rounded=0;orthogonalLoop=1;jettySize=auto;html=1;entryX=0;entryY=0.5;entryDx=0;entryDy=0;" parent="1" source="HU0x1PNDHyvJca4Ds508-1" target="HU0x1PNDHyvJca4Ds508-34" edge="1">
          <mxGeometry relative="1" as="geometry" />
        </mxCell>
        <mxCell id="HU0x1PNDHyvJca4Ds508-1" value="STORM_fnc_request_transition" style="swimlane;fontStyle=0;childLayout=stackLayout;horizontal=1;startSize=30;horizontalStack=0;resizeParent=1;resizeParentMax=0;resizeLast=0;collapsible=1;marginBottom=0;whiteSpace=wrap;html=1;fillColor=#1ba1e2;strokeColor=#006EAF;fontColor=#ffffff;gradientColor=none;fillStyle=solid;rounded=1;swimlaneFillColor=none;" parent="1" vertex="1">
          <mxGeometry x="380" y="160" width="410" height="60" as="geometry" />
        </mxCell>
        <mxCell id="HU0x1PNDHyvJca4Ds508-3" value="[&quot;STORM_Sandstorm&quot;, 5, 0.75] call STORM_fnc_request_transition" style="text;strokeColor=#6c8ebf;fillColor=#dae8fc;align=center;verticalAlign=middle;spacingLeft=4;spacingRight=4;overflow=hidden;points=[[0,0.5],[1,0.5]];portConstraint=eastwest;rotatable=0;whiteSpace=wrap;html=1;labelBackgroundColor=none;swimlaneFillColor=none;fillStyle=auto;rounded=1;" parent="HU0x1PNDHyvJca4Ds508-1" vertex="1">
          <mxGeometry y="30" width="410" height="30" as="geometry" />
        </mxCell>
        <mxCell id="HU0x1PNDHyvJca4Ds508-12" style="edgeStyle=orthogonalEdgeStyle;rounded=0;orthogonalLoop=1;jettySize=auto;html=1;" parent="1" source="HU0x1PNDHyvJca4Ds508-5" target="HU0x1PNDHyvJca4Ds508-1" edge="1">
          <mxGeometry relative="1" as="geometry" />
        </mxCell>
        <mxCell id="HU0x1PNDHyvJca4Ds508-5" value="Presetname" style="swimlane;fontStyle=0;childLayout=stackLayout;horizontal=1;startSize=30;horizontalStack=0;resizeParent=1;resizeParentMax=0;resizeLast=0;collapsible=1;marginBottom=0;whiteSpace=wrap;html=1;fillColor=#1ba1e2;strokeColor=#006EAF;fontColor=#ffffff;gradientColor=none;fillStyle=solid;rounded=1;swimlaneFillColor=none;" parent="1" vertex="1">
          <mxGeometry x="150" y="60" width="275" height="60" as="geometry" />
        </mxCell>
        <mxCell id="HU0x1PNDHyvJca4Ds508-6" value="String of ConfigClass &amp;gt;&amp;gt; STORM_MainPresets" style="text;strokeColor=#6c8ebf;fillColor=#dae8fc;align=center;verticalAlign=middle;spacingLeft=4;spacingRight=4;overflow=hidden;points=[[0,0.5],[1,0.5]];portConstraint=eastwest;rotatable=0;whiteSpace=wrap;html=1;labelBackgroundColor=none;swimlaneFillColor=none;fillStyle=auto;rounded=1;" parent="HU0x1PNDHyvJca4Ds508-5" vertex="1">
          <mxGeometry y="30" width="275" height="30" as="geometry" />
        </mxCell>
        <mxCell id="HU0x1PNDHyvJca4Ds508-13" style="edgeStyle=orthogonalEdgeStyle;rounded=0;orthogonalLoop=1;jettySize=auto;html=1;" parent="1" source="HU0x1PNDHyvJca4Ds508-8" target="HU0x1PNDHyvJca4Ds508-1" edge="1">
          <mxGeometry relative="1" as="geometry" />
        </mxCell>
        <mxCell id="HU0x1PNDHyvJca4Ds508-8" value="Duration" style="swimlane;fontStyle=0;childLayout=stackLayout;horizontal=1;startSize=30;horizontalStack=0;resizeParent=1;resizeParentMax=0;resizeLast=0;collapsible=1;marginBottom=0;whiteSpace=wrap;html=1;fillColor=#1ba1e2;strokeColor=#006EAF;fontColor=#ffffff;gradientColor=none;fillStyle=solid;rounded=1;swimlaneFillColor=none;" parent="1" vertex="1">
          <mxGeometry x="445" y="60" width="280" height="60" as="geometry" />
        </mxCell>
        <mxCell id="HU0x1PNDHyvJca4Ds508-9" value="Number of Time in Minutes" style="text;strokeColor=#6c8ebf;fillColor=#dae8fc;align=center;verticalAlign=middle;spacingLeft=4;spacingRight=4;overflow=hidden;points=[[0,0.5],[1,0.5]];portConstraint=eastwest;rotatable=0;whiteSpace=wrap;html=1;labelBackgroundColor=none;swimlaneFillColor=none;fillStyle=auto;rounded=1;" parent="HU0x1PNDHyvJca4Ds508-8" vertex="1">
          <mxGeometry y="30" width="280" height="30" as="geometry" />
        </mxCell>
        <mxCell id="HU0x1PNDHyvJca4Ds508-14" style="edgeStyle=orthogonalEdgeStyle;rounded=0;orthogonalLoop=1;jettySize=auto;html=1;" parent="1" source="HU0x1PNDHyvJca4Ds508-10" target="HU0x1PNDHyvJca4Ds508-1" edge="1">
          <mxGeometry relative="1" as="geometry" />
        </mxCell>
        <mxCell id="HU0x1PNDHyvJca4Ds508-10" value="Intensity" style="swimlane;fontStyle=0;childLayout=stackLayout;horizontal=1;startSize=30;horizontalStack=0;resizeParent=1;resizeParentMax=0;resizeLast=0;collapsible=1;marginBottom=0;whiteSpace=wrap;html=1;fillColor=#1ba1e2;strokeColor=#006EAF;fontColor=#ffffff;gradientColor=none;fillStyle=solid;rounded=1;swimlaneFillColor=none;" parent="1" vertex="1">
          <mxGeometry x="750" y="60" width="280" height="60" as="geometry" />
        </mxCell>
        <mxCell id="HU0x1PNDHyvJca4Ds508-11" value="Number of Intensity - from 0 to 1" style="text;strokeColor=#6c8ebf;fillColor=#dae8fc;align=center;verticalAlign=middle;spacingLeft=4;spacingRight=4;overflow=hidden;points=[[0,0.5],[1,0.5]];portConstraint=eastwest;rotatable=0;whiteSpace=wrap;html=1;labelBackgroundColor=none;swimlaneFillColor=none;fillStyle=auto;rounded=1;" parent="HU0x1PNDHyvJca4Ds508-10" vertex="1">
          <mxGeometry y="30" width="280" height="30" as="geometry" />
        </mxCell>
        <mxCell id="HU0x1PNDHyvJca4Ds508-17" value="Storm FX Sound" style="swimlane;fontStyle=0;childLayout=stackLayout;horizontal=1;startSize=30;horizontalStack=0;resizeParent=1;resizeParentMax=0;resizeLast=0;collapsible=1;marginBottom=0;whiteSpace=wrap;html=1;fillColor=#1ba1e2;strokeColor=#006EAF;fontColor=#ffffff;gradientColor=none;fillStyle=solid;rounded=1;swimlaneFillColor=none;" parent="1" vertex="1">
          <mxGeometry x="710" y="626" width="410" height="140" as="geometry" />
        </mxCell>
        <mxCell id="HU0x1PNDHyvJca4Ds508-19" value="&lt;b&gt;Limitation:&lt;/b&gt; 1 per Classname" style="text;strokeColor=#6c8ebf;fillColor=#dae8fc;align=left;verticalAlign=middle;spacingLeft=4;spacingRight=4;overflow=hidden;points=[[0,0.5],[1,0.5]];portConstraint=eastwest;rotatable=0;whiteSpace=wrap;html=1;labelBackgroundColor=none;swimlaneFillColor=none;fillStyle=auto;rounded=1;" parent="HU0x1PNDHyvJca4Ds508-17" vertex="1">
          <mxGeometry y="30" width="410" height="30" as="geometry" />
        </mxCell>
        <mxCell id="HU0x1PNDHyvJca4Ds508-34" value="&lt;b&gt;Intensity affects:&lt;/b&gt; distance from player, delay between sounds" style="text;strokeColor=#6c8ebf;fillColor=#dae8fc;align=left;verticalAlign=middle;spacingLeft=4;spacingRight=4;overflow=hidden;points=[[0,0.5],[1,0.5]];portConstraint=eastwest;rotatable=0;whiteSpace=wrap;html=1;labelBackgroundColor=none;swimlaneFillColor=none;fillStyle=auto;rounded=1;" parent="HU0x1PNDHyvJca4Ds508-17" vertex="1">
          <mxGeometry y="60" width="410" height="30" as="geometry" />
        </mxCell>
        <mxCell id="HU0x1PNDHyvJca4Ds508-18" value="Creates soundsorces that are local to the client.&lt;br&gt;Position is determined by distance and direction relative from player.&lt;br&gt;Direction is defined by fx_sound-preset (Random, Wind or set Number)." style="text;strokeColor=#6c8ebf;fillColor=#dae8fc;align=center;verticalAlign=middle;spacingLeft=4;spacingRight=4;overflow=hidden;points=[[0,0.5],[1,0.5]];portConstraint=eastwest;rotatable=0;whiteSpace=wrap;html=1;labelBackgroundColor=none;swimlaneFillColor=none;fillStyle=auto;rounded=1;" parent="HU0x1PNDHyvJca4Ds508-17" vertex="1">
          <mxGeometry y="90" width="410" height="50" as="geometry" />
        </mxCell>
        <mxCell id="HU0x1PNDHyvJca4Ds508-20" value="Storm FX Particle" style="swimlane;fontStyle=0;childLayout=stackLayout;horizontal=1;startSize=30;horizontalStack=0;resizeParent=1;resizeParentMax=0;resizeLast=0;collapsible=1;marginBottom=0;whiteSpace=wrap;html=1;fillColor=#1ba1e2;strokeColor=#006EAF;fontColor=#ffffff;gradientColor=none;fillStyle=solid;rounded=1;swimlaneFillColor=none;" parent="1" vertex="1">
          <mxGeometry x="710" y="466" width="410" height="140" as="geometry" />
        </mxCell>
        <mxCell id="HU0x1PNDHyvJca4Ds508-21" value="&lt;b style=&quot;border-color: var(--border-color);&quot;&gt;Limitation:&lt;/b&gt;&amp;nbsp;1 per Classname" style="text;strokeColor=#6c8ebf;fillColor=#dae8fc;align=left;verticalAlign=middle;spacingLeft=4;spacingRight=4;overflow=hidden;points=[[0,0.5],[1,0.5]];portConstraint=eastwest;rotatable=0;whiteSpace=wrap;html=1;labelBackgroundColor=none;swimlaneFillColor=none;fillStyle=auto;rounded=1;" parent="HU0x1PNDHyvJca4Ds508-20" vertex="1">
          <mxGeometry y="30" width="410" height="30" as="geometry" />
        </mxCell>
        <mxCell id="HU0x1PNDHyvJca4Ds508-35" value="&lt;b&gt;Intensity affects:&lt;/b&gt; dropInterval of particle (how many particles)" style="text;strokeColor=#6c8ebf;fillColor=#dae8fc;align=left;verticalAlign=middle;spacingLeft=4;spacingRight=4;overflow=hidden;points=[[0,0.5],[1,0.5]];portConstraint=eastwest;rotatable=0;whiteSpace=wrap;html=1;labelBackgroundColor=none;swimlaneFillColor=none;fillStyle=auto;rounded=1;" parent="HU0x1PNDHyvJca4Ds508-20" vertex="1">
          <mxGeometry y="60" width="410" height="30" as="geometry" />
        </mxCell>
        <mxCell id="HU0x1PNDHyvJca4Ds508-22" value="Creates particlesource that are local to the client.&lt;br&gt;Position is attached to player.&lt;br&gt;offset based on Windspeed * coef + player movement * coef" style="text;strokeColor=#6c8ebf;fillColor=#dae8fc;align=center;verticalAlign=middle;spacingLeft=4;spacingRight=4;overflow=hidden;points=[[0,0.5],[1,0.5]];portConstraint=eastwest;rotatable=0;whiteSpace=wrap;html=1;labelBackgroundColor=none;swimlaneFillColor=none;fillStyle=auto;rounded=1;" parent="HU0x1PNDHyvJca4Ds508-20" vertex="1">
          <mxGeometry y="90" width="410" height="50" as="geometry" />
        </mxCell>
        <mxCell id="HU0x1PNDHyvJca4Ds508-23" value="Storm FX Post" style="swimlane;fontStyle=0;childLayout=stackLayout;horizontal=1;startSize=30;horizontalStack=0;resizeParent=1;resizeParentMax=0;resizeLast=0;collapsible=1;marginBottom=0;whiteSpace=wrap;html=1;fillColor=#1ba1e2;strokeColor=#006EAF;fontColor=#ffffff;gradientColor=none;fillStyle=solid;rounded=1;swimlaneFillColor=none;" parent="1" vertex="1">
          <mxGeometry x="710" y="310" width="410" height="140" as="geometry" />
        </mxCell>
        <mxCell id="HU0x1PNDHyvJca4Ds508-24" value="&lt;b style=&quot;border-color: var(--border-color);&quot;&gt;Limitation:&lt;/b&gt;&amp;nbsp;1 per Type and Layer" style="text;strokeColor=#6c8ebf;fillColor=#dae8fc;align=left;verticalAlign=middle;spacingLeft=4;spacingRight=4;overflow=hidden;points=[[0,0.5],[1,0.5]];portConstraint=eastwest;rotatable=0;whiteSpace=wrap;html=1;labelBackgroundColor=none;swimlaneFillColor=none;fillStyle=auto;rounded=1;" parent="HU0x1PNDHyvJca4Ds508-23" vertex="1">
          <mxGeometry y="30" width="410" height="30" as="geometry" />
        </mxCell>
        <mxCell id="HU0x1PNDHyvJca4Ds508-38" value="&lt;b&gt;Intensity affects: &lt;/b&gt;Intensity of Effect Params" style="text;strokeColor=#6c8ebf;fillColor=#dae8fc;align=left;verticalAlign=middle;spacingLeft=4;spacingRight=4;overflow=hidden;points=[[0,0.5],[1,0.5]];portConstraint=eastwest;rotatable=0;whiteSpace=wrap;html=1;labelBackgroundColor=none;swimlaneFillColor=none;fillStyle=auto;rounded=1;" parent="HU0x1PNDHyvJca4Ds508-23" vertex="1">
          <mxGeometry y="60" width="410" height="30" as="geometry" />
        </mxCell>
        <mxCell id="HU0x1PNDHyvJca4Ds508-25" value="Creates a postProcessing effect of different types.&lt;br&gt;ColorCorrection, Dynamic Blur, FilmGrain" style="text;strokeColor=#6c8ebf;fillColor=#dae8fc;align=center;verticalAlign=middle;spacingLeft=4;spacingRight=4;overflow=hidden;points=[[0,0.5],[1,0.5]];portConstraint=eastwest;rotatable=0;whiteSpace=wrap;html=1;labelBackgroundColor=none;swimlaneFillColor=none;fillStyle=auto;rounded=1;" parent="HU0x1PNDHyvJca4Ds508-23" vertex="1">
          <mxGeometry y="90" width="410" height="50" as="geometry" />
        </mxCell>
        <mxCell id="HU0x1PNDHyvJca4Ds508-39" value="Storm FX Weather" style="swimlane;fontStyle=0;childLayout=stackLayout;horizontal=1;startSize=30;horizontalStack=0;resizeParent=1;resizeParentMax=0;resizeLast=0;collapsible=1;marginBottom=0;whiteSpace=wrap;html=1;fillColor=#1ba1e2;strokeColor=#006EAF;fontColor=#ffffff;gradientColor=none;fillStyle=solid;rounded=1;swimlaneFillColor=none;" parent="1" vertex="1">
          <mxGeometry x="40" y="310" width="410" height="450" as="geometry" />
        </mxCell>
        <mxCell id="HU0x1PNDHyvJca4Ds508-40" value="&lt;b style=&quot;border-color: var(--border-color);&quot;&gt;Limitation:&lt;/b&gt;&amp;nbsp;Once (Server Side, Global Effects)" style="text;strokeColor=#6c8ebf;fillColor=#dae8fc;align=left;verticalAlign=middle;spacingLeft=4;spacingRight=4;overflow=hidden;points=[[0,0.5],[1,0.5]];portConstraint=eastwest;rotatable=0;whiteSpace=wrap;html=1;labelBackgroundColor=none;swimlaneFillColor=none;fillStyle=auto;rounded=1;" parent="HU0x1PNDHyvJca4Ds508-39" vertex="1">
          <mxGeometry y="30" width="410" height="30" as="geometry" />
        </mxCell>
        <mxCell id="HU0x1PNDHyvJca4Ds508-41" value="&lt;b&gt;Intensity affects: &lt;/b&gt;Intensity of individual Parameters" style="text;strokeColor=#6c8ebf;fillColor=#dae8fc;align=left;verticalAlign=middle;spacingLeft=4;spacingRight=4;overflow=hidden;points=[[0,0.5],[1,0.5]];portConstraint=eastwest;rotatable=0;whiteSpace=wrap;html=1;labelBackgroundColor=none;swimlaneFillColor=none;fillStyle=auto;rounded=1;" parent="HU0x1PNDHyvJca4Ds508-39" vertex="1">
          <mxGeometry y="60" width="410" height="30" as="geometry" />
        </mxCell>
        <mxCell id="HU0x1PNDHyvJca4Ds508-42" value="Controls many Base Weather Effects with, simple or complex, mechanics." style="text;strokeColor=#6c8ebf;fillColor=#dae8fc;align=center;verticalAlign=middle;spacingLeft=4;spacingRight=4;overflow=hidden;points=[[0,0.5],[1,0.5]];portConstraint=eastwest;rotatable=0;whiteSpace=wrap;html=1;labelBackgroundColor=none;swimlaneFillColor=none;fillStyle=auto;rounded=1;" parent="HU0x1PNDHyvJca4Ds508-39" vertex="1">
          <mxGeometry y="90" width="410" height="30" as="geometry" />
        </mxCell>
        <mxCell id="HU0x1PNDHyvJca4Ds508-48" value="&lt;div style=&quot;&quot;&gt;&lt;span style=&quot;background-color: initial;&quot;&gt;&lt;b&gt;Overcast&lt;/b&gt;: Simple&lt;/span&gt;&lt;/div&gt;" style="text;strokeColor=#6c8ebf;fillColor=#dae8fc;align=left;verticalAlign=middle;spacingLeft=4;spacingRight=4;overflow=hidden;points=[[0,0.5],[1,0.5]];portConstraint=eastwest;rotatable=0;whiteSpace=wrap;html=1;labelBackgroundColor=none;swimlaneFillColor=none;fillStyle=auto;rounded=1;" parent="HU0x1PNDHyvJca4Ds508-39" vertex="1">
          <mxGeometry y="120" width="410" height="30" as="geometry" />
        </mxCell>
        <mxCell id="HU0x1PNDHyvJca4Ds508-49" value="&lt;div style=&quot;&quot;&gt;&lt;b&gt;Rain&lt;/b&gt;: Simple&lt;/div&gt;" style="text;strokeColor=#6c8ebf;fillColor=#dae8fc;align=left;verticalAlign=middle;spacingLeft=4;spacingRight=4;overflow=hidden;points=[[0,0.5],[1,0.5]];portConstraint=eastwest;rotatable=0;whiteSpace=wrap;html=1;labelBackgroundColor=none;swimlaneFillColor=none;fillStyle=auto;rounded=1;" parent="HU0x1PNDHyvJca4Ds508-39" vertex="1">
          <mxGeometry y="150" width="410" height="30" as="geometry" />
        </mxCell>
        <mxCell id="HU0x1PNDHyvJca4Ds508-50" value="&lt;div style=&quot;&quot;&gt;&lt;span style=&quot;background-color: initial;&quot;&gt;&lt;b&gt;RainParams&lt;/b&gt;: Simple +&lt;br&gt;Check if previous rainParams are equal, if not, will stop rain, then apply new effect, and restart rain.&lt;/span&gt;&lt;/div&gt;" style="text;strokeColor=#6c8ebf;fillColor=#dae8fc;align=left;verticalAlign=middle;spacingLeft=4;spacingRight=4;overflow=hidden;points=[[0,0.5],[1,0.5]];portConstraint=eastwest;rotatable=0;whiteSpace=wrap;html=1;labelBackgroundColor=none;swimlaneFillColor=none;fillStyle=auto;rounded=1;" parent="HU0x1PNDHyvJca4Ds508-39" vertex="1">
          <mxGeometry y="180" width="410" height="60" as="geometry" />
        </mxCell>
        <mxCell id="HU0x1PNDHyvJca4Ds508-51" value="&lt;div style=&quot;&quot;&gt;&lt;span style=&quot;background-color: initial;&quot;&gt;&lt;b&gt;Fog&lt;/b&gt;: Optional Simple or Complex&lt;br&gt;When Complex, the bracket (25m) with the most players in it regarding Altitude above Sealevel is defined. This bracket will be taken as the target fogbase + Offset&lt;/span&gt;&lt;/div&gt;" style="text;strokeColor=#6c8ebf;fillColor=#dae8fc;align=left;verticalAlign=middle;spacingLeft=4;spacingRight=4;overflow=hidden;points=[[0,0.5],[1,0.5]];portConstraint=eastwest;rotatable=0;whiteSpace=wrap;html=1;labelBackgroundColor=none;swimlaneFillColor=none;fillStyle=auto;rounded=1;" parent="HU0x1PNDHyvJca4Ds508-39" vertex="1">
          <mxGeometry y="240" width="410" height="70" as="geometry" />
        </mxCell>
        <mxCell id="HU0x1PNDHyvJca4Ds508-52" value="&lt;div style=&quot;&quot;&gt;&lt;span style=&quot;background-color: initial;&quot;&gt;&lt;b&gt;wind&lt;/b&gt;: Simple +&amp;nbsp;&lt;br&gt;With the use of setWind [x,y,z] strong winds can be defined - will be applied over transition time.&amp;nbsp;&lt;/span&gt;&lt;/div&gt;" style="text;strokeColor=#6c8ebf;fillColor=#dae8fc;align=left;verticalAlign=middle;spacingLeft=4;spacingRight=4;overflow=hidden;points=[[0,0.5],[1,0.5]];portConstraint=eastwest;rotatable=0;whiteSpace=wrap;html=1;labelBackgroundColor=none;swimlaneFillColor=none;fillStyle=auto;rounded=1;" parent="HU0x1PNDHyvJca4Ds508-39" vertex="1">
          <mxGeometry y="310" width="410" height="50" as="geometry" />
        </mxCell>
        <mxCell id="HU0x1PNDHyvJca4Ds508-53" value="&lt;div style=&quot;&quot;&gt;&lt;span style=&quot;background-color: initial;&quot;&gt;&lt;b&gt;Gusts&lt;/b&gt;: Simple&lt;br&gt;&lt;/span&gt;&lt;/div&gt;" style="text;strokeColor=#6c8ebf;fillColor=#dae8fc;align=left;verticalAlign=middle;spacingLeft=4;spacingRight=4;overflow=hidden;points=[[0,0.5],[1,0.5]];portConstraint=eastwest;rotatable=0;whiteSpace=wrap;html=1;labelBackgroundColor=none;swimlaneFillColor=none;fillStyle=auto;rounded=1;" parent="HU0x1PNDHyvJca4Ds508-39" vertex="1">
          <mxGeometry y="360" width="410" height="30" as="geometry" />
        </mxCell>
        <mxCell id="HU0x1PNDHyvJca4Ds508-54" value="&lt;div style=&quot;&quot;&gt;&lt;span style=&quot;background-color: initial;&quot;&gt;&lt;b&gt;Waves&lt;/b&gt;: Simple&lt;br&gt;&lt;/span&gt;&lt;/div&gt;" style="text;strokeColor=#6c8ebf;fillColor=#dae8fc;align=left;verticalAlign=middle;spacingLeft=4;spacingRight=4;overflow=hidden;points=[[0,0.5],[1,0.5]];portConstraint=eastwest;rotatable=0;whiteSpace=wrap;html=1;labelBackgroundColor=none;swimlaneFillColor=none;fillStyle=auto;rounded=1;" parent="HU0x1PNDHyvJca4Ds508-39" vertex="1">
          <mxGeometry y="390" width="410" height="30" as="geometry" />
        </mxCell>
        <mxCell id="HU0x1PNDHyvJca4Ds508-55" value="&lt;div style=&quot;&quot;&gt;&lt;span style=&quot;background-color: initial;&quot;&gt;&lt;b&gt;ACE Temperature Shift&lt;/b&gt;: Simple&lt;br&gt;&lt;/span&gt;&lt;/div&gt;" style="text;strokeColor=#6c8ebf;fillColor=#dae8fc;align=left;verticalAlign=middle;spacingLeft=4;spacingRight=4;overflow=hidden;points=[[0,0.5],[1,0.5]];portConstraint=eastwest;rotatable=0;whiteSpace=wrap;html=1;labelBackgroundColor=none;swimlaneFillColor=none;fillStyle=auto;rounded=1;" parent="HU0x1PNDHyvJca4Ds508-39" vertex="1">
          <mxGeometry y="420" width="410" height="30" as="geometry" />
        </mxCell>
        <mxCell id="HU0x1PNDHyvJca4Ds508-56" value="Storm MOD SKILL" style="swimlane;fontStyle=0;childLayout=stackLayout;horizontal=1;startSize=30;horizontalStack=0;resizeParent=1;resizeParentMax=0;resizeLast=0;collapsible=1;marginBottom=0;whiteSpace=wrap;html=1;fillColor=#1ba1e2;strokeColor=#006EAF;fontColor=#ffffff;gradientColor=none;fillStyle=solid;rounded=1;swimlaneFillColor=none;" parent="1" vertex="1">
          <mxGeometry x="40" y="786" width="410" height="280" as="geometry" />
        </mxCell>
        <mxCell id="HU0x1PNDHyvJca4Ds508-57" value="&lt;b style=&quot;border-color: var(--border-color);&quot;&gt;Limitation:&lt;/b&gt;&amp;nbsp;Once (Server Side, Global Effects)" style="text;strokeColor=#6c8ebf;fillColor=#dae8fc;align=left;verticalAlign=middle;spacingLeft=4;spacingRight=4;overflow=hidden;points=[[0,0.5],[1,0.5]];portConstraint=eastwest;rotatable=0;whiteSpace=wrap;html=1;labelBackgroundColor=none;swimlaneFillColor=none;fillStyle=auto;rounded=1;" parent="HU0x1PNDHyvJca4Ds508-56" vertex="1">
          <mxGeometry y="30" width="410" height="30" as="geometry" />
        </mxCell>
        <mxCell id="HU0x1PNDHyvJca4Ds508-58" value="&lt;b&gt;Intensity affects: Linear Conversion of individual SubSkills&lt;/b&gt;" style="text;strokeColor=#6c8ebf;fillColor=#dae8fc;align=left;verticalAlign=middle;spacingLeft=4;spacingRight=4;overflow=hidden;points=[[0,0.5],[1,0.5]];portConstraint=eastwest;rotatable=0;whiteSpace=wrap;html=1;labelBackgroundColor=none;swimlaneFillColor=none;fillStyle=auto;rounded=1;" parent="HU0x1PNDHyvJca4Ds508-56" vertex="1">
          <mxGeometry y="60" width="410" height="30" as="geometry" />
        </mxCell>
        <mxCell id="HU0x1PNDHyvJca4Ds508-59" value="&lt;b&gt;At Start:&lt;br&gt;&lt;/b&gt;Will store Initial AI Skill in Variable on Unit.&lt;br&gt;Create Eventhandler to adapt AI Skill when unit is created based on current Intensity.&lt;br&gt;&lt;b&gt;During Transition:&lt;/b&gt;&lt;br&gt;Will Iterate multiple times over all AI placed on map and, based on current intensity andIndividual AI&amp;nbsp;base skill, will set current AI Skill.&lt;br&gt;&lt;b&gt;After Transition:&amp;nbsp;&lt;br&gt;&lt;/b&gt;Only update newly created Entities.&lt;br&gt;&lt;b&gt;After reset (Transition to Intensity 0):&lt;/b&gt;&lt;br&gt;Previously stored Base AI Subskill is restored." style="text;strokeColor=#6c8ebf;fillColor=#dae8fc;align=left;verticalAlign=middle;spacingLeft=4;spacingRight=4;overflow=hidden;points=[[0,0.5],[1,0.5]];portConstraint=eastwest;rotatable=0;whiteSpace=wrap;html=1;labelBackgroundColor=none;swimlaneFillColor=none;fillStyle=auto;rounded=1;" parent="HU0x1PNDHyvJca4Ds508-56" vertex="1">
          <mxGeometry y="90" width="410" height="190" as="geometry" />
        </mxCell>
        <mxCell id="HU0x1PNDHyvJca4Ds508-67" value="&lt;b style=&quot;font-size: 18px;&quot;&gt;Client Side Effects&lt;/b&gt;" style="rounded=1;whiteSpace=wrap;html=1;fillColor=#b1ddf0;strokeColor=#10739e;fontSize=18;" parent="1" vertex="1">
          <mxGeometry x="710" y="250" width="410" height="40" as="geometry" />
        </mxCell>
        <mxCell id="HU0x1PNDHyvJca4Ds508-68" value="&lt;b style=&quot;font-size: 18px;&quot;&gt;Server Side Effects&lt;br&gt;&lt;/b&gt;" style="rounded=1;whiteSpace=wrap;html=1;fillColor=#b1ddf0;strokeColor=#10739e;fontSize=18;" parent="1" vertex="1">
          <mxGeometry x="40" y="250" width="410" height="40" as="geometry" />
        </mxCell>
      </root>
    </mxGraphModel>
  </diagram>
</mxfile>
